%TF.GenerationSoftware,KiCad,Pcbnew,7.0.8*%
%TF.CreationDate,2025-04-12T00:46:53+05:30*%
%TF.ProjectId,hardware assignement,68617264-7761-4726-9520-61737369676e,rev?*%
%TF.SameCoordinates,Original*%
%TF.FileFunction,Legend,Bot*%
%TF.FilePolarity,Positive*%
%FSLAX46Y46*%
G04 Gerber Fmt 4.6, Leading zero omitted, Abs format (unit mm)*
G04 Created by KiCad (PCBNEW 7.0.8) date 2025-04-12 00:46:53*
%MOMM*%
%LPD*%
G01*
G04 APERTURE LIST*
%ADD10C,0.150000*%
G04 APERTURE END LIST*
D10*
X28920839Y-22682200D02*
X28825601Y-22729819D01*
X28825601Y-22729819D02*
X28635125Y-22729819D01*
X28635125Y-22729819D02*
X28539887Y-22682200D01*
X28539887Y-22682200D02*
X28492268Y-22586961D01*
X28492268Y-22586961D02*
X28492268Y-22539342D01*
X28492268Y-22539342D02*
X28539887Y-22444104D01*
X28539887Y-22444104D02*
X28635125Y-22396485D01*
X28635125Y-22396485D02*
X28777982Y-22396485D01*
X28777982Y-22396485D02*
X28873220Y-22348866D01*
X28873220Y-22348866D02*
X28920839Y-22253628D01*
X28920839Y-22253628D02*
X28920839Y-22206009D01*
X28920839Y-22206009D02*
X28873220Y-22110771D01*
X28873220Y-22110771D02*
X28777982Y-22063152D01*
X28777982Y-22063152D02*
X28635125Y-22063152D01*
X28635125Y-22063152D02*
X28539887Y-22110771D01*
X28063696Y-22729819D02*
X28063696Y-22063152D01*
X28063696Y-21729819D02*
X28111315Y-21777438D01*
X28111315Y-21777438D02*
X28063696Y-21825057D01*
X28063696Y-21825057D02*
X28016077Y-21777438D01*
X28016077Y-21777438D02*
X28063696Y-21729819D01*
X28063696Y-21729819D02*
X28063696Y-21825057D01*
X27158935Y-22063152D02*
X27158935Y-22872676D01*
X27158935Y-22872676D02*
X27206554Y-22967914D01*
X27206554Y-22967914D02*
X27254173Y-23015533D01*
X27254173Y-23015533D02*
X27349411Y-23063152D01*
X27349411Y-23063152D02*
X27492268Y-23063152D01*
X27492268Y-23063152D02*
X27587506Y-23015533D01*
X27158935Y-22682200D02*
X27254173Y-22729819D01*
X27254173Y-22729819D02*
X27444649Y-22729819D01*
X27444649Y-22729819D02*
X27539887Y-22682200D01*
X27539887Y-22682200D02*
X27587506Y-22634580D01*
X27587506Y-22634580D02*
X27635125Y-22539342D01*
X27635125Y-22539342D02*
X27635125Y-22253628D01*
X27635125Y-22253628D02*
X27587506Y-22158390D01*
X27587506Y-22158390D02*
X27539887Y-22110771D01*
X27539887Y-22110771D02*
X27444649Y-22063152D01*
X27444649Y-22063152D02*
X27254173Y-22063152D01*
X27254173Y-22063152D02*
X27158935Y-22110771D01*
X26682744Y-22063152D02*
X26682744Y-22729819D01*
X26682744Y-22158390D02*
X26635125Y-22110771D01*
X26635125Y-22110771D02*
X26539887Y-22063152D01*
X26539887Y-22063152D02*
X26397030Y-22063152D01*
X26397030Y-22063152D02*
X26301792Y-22110771D01*
X26301792Y-22110771D02*
X26254173Y-22206009D01*
X26254173Y-22206009D02*
X26254173Y-22729819D01*
X25349411Y-22729819D02*
X25349411Y-22206009D01*
X25349411Y-22206009D02*
X25397030Y-22110771D01*
X25397030Y-22110771D02*
X25492268Y-22063152D01*
X25492268Y-22063152D02*
X25682744Y-22063152D01*
X25682744Y-22063152D02*
X25777982Y-22110771D01*
X25349411Y-22682200D02*
X25444649Y-22729819D01*
X25444649Y-22729819D02*
X25682744Y-22729819D01*
X25682744Y-22729819D02*
X25777982Y-22682200D01*
X25777982Y-22682200D02*
X25825601Y-22586961D01*
X25825601Y-22586961D02*
X25825601Y-22491723D01*
X25825601Y-22491723D02*
X25777982Y-22396485D01*
X25777982Y-22396485D02*
X25682744Y-22348866D01*
X25682744Y-22348866D02*
X25444649Y-22348866D01*
X25444649Y-22348866D02*
X25349411Y-22301247D01*
X24730363Y-22729819D02*
X24825601Y-22682200D01*
X24825601Y-22682200D02*
X24873220Y-22586961D01*
X24873220Y-22586961D02*
X24873220Y-21729819D01*
X27174649Y-24603152D02*
X27174649Y-25412676D01*
X27174649Y-25412676D02*
X27222268Y-25507914D01*
X27222268Y-25507914D02*
X27269887Y-25555533D01*
X27269887Y-25555533D02*
X27365125Y-25603152D01*
X27365125Y-25603152D02*
X27507982Y-25603152D01*
X27507982Y-25603152D02*
X27603220Y-25555533D01*
X27174649Y-25222200D02*
X27269887Y-25269819D01*
X27269887Y-25269819D02*
X27460363Y-25269819D01*
X27460363Y-25269819D02*
X27555601Y-25222200D01*
X27555601Y-25222200D02*
X27603220Y-25174580D01*
X27603220Y-25174580D02*
X27650839Y-25079342D01*
X27650839Y-25079342D02*
X27650839Y-24793628D01*
X27650839Y-24793628D02*
X27603220Y-24698390D01*
X27603220Y-24698390D02*
X27555601Y-24650771D01*
X27555601Y-24650771D02*
X27460363Y-24603152D01*
X27460363Y-24603152D02*
X27269887Y-24603152D01*
X27269887Y-24603152D02*
X27174649Y-24650771D01*
X26698458Y-24603152D02*
X26698458Y-25269819D01*
X26698458Y-24698390D02*
X26650839Y-24650771D01*
X26650839Y-24650771D02*
X26555601Y-24603152D01*
X26555601Y-24603152D02*
X26412744Y-24603152D01*
X26412744Y-24603152D02*
X26317506Y-24650771D01*
X26317506Y-24650771D02*
X26269887Y-24746009D01*
X26269887Y-24746009D02*
X26269887Y-25269819D01*
X25365125Y-25269819D02*
X25365125Y-24269819D01*
X25365125Y-25222200D02*
X25460363Y-25269819D01*
X25460363Y-25269819D02*
X25650839Y-25269819D01*
X25650839Y-25269819D02*
X25746077Y-25222200D01*
X25746077Y-25222200D02*
X25793696Y-25174580D01*
X25793696Y-25174580D02*
X25841315Y-25079342D01*
X25841315Y-25079342D02*
X25841315Y-24793628D01*
X25841315Y-24793628D02*
X25793696Y-24698390D01*
X25793696Y-24698390D02*
X25746077Y-24650771D01*
X25746077Y-24650771D02*
X25650839Y-24603152D01*
X25650839Y-24603152D02*
X25460363Y-24603152D01*
X25460363Y-24603152D02*
X25365125Y-24650771D01*
X25063220Y-19808866D02*
X24301316Y-19808866D01*
X24682268Y-20189819D02*
X24682268Y-19427914D01*
M02*
