%TF.GenerationSoftware,KiCad,Pcbnew,7.0.8*%
%TF.CreationDate,2025-04-12T00:46:53+05:30*%
%TF.ProjectId,hardware assignement,68617264-7761-4726-9520-61737369676e,rev?*%
%TF.SameCoordinates,Original*%
%TF.FileFunction,Legend,Top*%
%TF.FilePolarity,Positive*%
%FSLAX46Y46*%
G04 Gerber Fmt 4.6, Leading zero omitted, Abs format (unit mm)*
G04 Created by KiCad (PCBNEW 7.0.8) date 2025-04-12 00:46:53*
%MOMM*%
%LPD*%
G01*
G04 APERTURE LIST*
%ADD10C,0.150000*%
%ADD11C,0.120000*%
%ADD12C,0.100000*%
G04 APERTURE END LIST*
D10*
X146058152Y-102433333D02*
X146724819Y-102433333D01*
X146058152Y-102861904D02*
X146581961Y-102861904D01*
X146581961Y-102861904D02*
X146677200Y-102814285D01*
X146677200Y-102814285D02*
X146724819Y-102719047D01*
X146724819Y-102719047D02*
X146724819Y-102576190D01*
X146724819Y-102576190D02*
X146677200Y-102480952D01*
X146677200Y-102480952D02*
X146629580Y-102433333D01*
X146724819Y-101528571D02*
X146201009Y-101528571D01*
X146201009Y-101528571D02*
X146105771Y-101576190D01*
X146105771Y-101576190D02*
X146058152Y-101671428D01*
X146058152Y-101671428D02*
X146058152Y-101861904D01*
X146058152Y-101861904D02*
X146105771Y-101957142D01*
X146677200Y-101528571D02*
X146724819Y-101623809D01*
X146724819Y-101623809D02*
X146724819Y-101861904D01*
X146724819Y-101861904D02*
X146677200Y-101957142D01*
X146677200Y-101957142D02*
X146581961Y-102004761D01*
X146581961Y-102004761D02*
X146486723Y-102004761D01*
X146486723Y-102004761D02*
X146391485Y-101957142D01*
X146391485Y-101957142D02*
X146343866Y-101861904D01*
X146343866Y-101861904D02*
X146343866Y-101623809D01*
X146343866Y-101623809D02*
X146296247Y-101528571D01*
X146724819Y-101052380D02*
X146058152Y-101052380D01*
X146248628Y-101052380D02*
X146153390Y-101004761D01*
X146153390Y-101004761D02*
X146105771Y-100957142D01*
X146105771Y-100957142D02*
X146058152Y-100861904D01*
X146058152Y-100861904D02*
X146058152Y-100766666D01*
X146058152Y-100576189D02*
X146058152Y-100195237D01*
X145724819Y-100433332D02*
X146581961Y-100433332D01*
X146581961Y-100433332D02*
X146677200Y-100385713D01*
X146677200Y-100385713D02*
X146724819Y-100290475D01*
X146724819Y-100290475D02*
X146724819Y-100195237D01*
X165334819Y-67016189D02*
X164334819Y-67016189D01*
X164430057Y-66587618D02*
X164382438Y-66539999D01*
X164382438Y-66539999D02*
X164334819Y-66444761D01*
X164334819Y-66444761D02*
X164334819Y-66206666D01*
X164334819Y-66206666D02*
X164382438Y-66111428D01*
X164382438Y-66111428D02*
X164430057Y-66063809D01*
X164430057Y-66063809D02*
X164525295Y-66016190D01*
X164525295Y-66016190D02*
X164620533Y-66016190D01*
X164620533Y-66016190D02*
X164763390Y-66063809D01*
X164763390Y-66063809D02*
X165334819Y-66635237D01*
X165334819Y-66635237D02*
X165334819Y-66016190D01*
X165239580Y-65016190D02*
X165287200Y-65063809D01*
X165287200Y-65063809D02*
X165334819Y-65206666D01*
X165334819Y-65206666D02*
X165334819Y-65301904D01*
X165334819Y-65301904D02*
X165287200Y-65444761D01*
X165287200Y-65444761D02*
X165191961Y-65539999D01*
X165191961Y-65539999D02*
X165096723Y-65587618D01*
X165096723Y-65587618D02*
X164906247Y-65635237D01*
X164906247Y-65635237D02*
X164763390Y-65635237D01*
X164763390Y-65635237D02*
X164572914Y-65587618D01*
X164572914Y-65587618D02*
X164477676Y-65539999D01*
X164477676Y-65539999D02*
X164382438Y-65444761D01*
X164382438Y-65444761D02*
X164334819Y-65301904D01*
X164334819Y-65301904D02*
X164334819Y-65206666D01*
X164334819Y-65206666D02*
X164382438Y-65063809D01*
X164382438Y-65063809D02*
X164430057Y-65016190D01*
X186988152Y-79382857D02*
X187654819Y-79382857D01*
X186988152Y-79811428D02*
X187511961Y-79811428D01*
X187511961Y-79811428D02*
X187607200Y-79763809D01*
X187607200Y-79763809D02*
X187654819Y-79668571D01*
X187654819Y-79668571D02*
X187654819Y-79525714D01*
X187654819Y-79525714D02*
X187607200Y-79430476D01*
X187607200Y-79430476D02*
X187559580Y-79382857D01*
X187607200Y-78954285D02*
X187654819Y-78859047D01*
X187654819Y-78859047D02*
X187654819Y-78668571D01*
X187654819Y-78668571D02*
X187607200Y-78573333D01*
X187607200Y-78573333D02*
X187511961Y-78525714D01*
X187511961Y-78525714D02*
X187464342Y-78525714D01*
X187464342Y-78525714D02*
X187369104Y-78573333D01*
X187369104Y-78573333D02*
X187321485Y-78668571D01*
X187321485Y-78668571D02*
X187321485Y-78811428D01*
X187321485Y-78811428D02*
X187273866Y-78906666D01*
X187273866Y-78906666D02*
X187178628Y-78954285D01*
X187178628Y-78954285D02*
X187131009Y-78954285D01*
X187131009Y-78954285D02*
X187035771Y-78906666D01*
X187035771Y-78906666D02*
X186988152Y-78811428D01*
X186988152Y-78811428D02*
X186988152Y-78668571D01*
X186988152Y-78668571D02*
X187035771Y-78573333D01*
X187654819Y-78097142D02*
X186654819Y-78097142D01*
X187035771Y-78097142D02*
X186988152Y-78001904D01*
X186988152Y-78001904D02*
X186988152Y-77811428D01*
X186988152Y-77811428D02*
X187035771Y-77716190D01*
X187035771Y-77716190D02*
X187083390Y-77668571D01*
X187083390Y-77668571D02*
X187178628Y-77620952D01*
X187178628Y-77620952D02*
X187464342Y-77620952D01*
X187464342Y-77620952D02*
X187559580Y-77668571D01*
X187559580Y-77668571D02*
X187607200Y-77716190D01*
X187607200Y-77716190D02*
X187654819Y-77811428D01*
X187654819Y-77811428D02*
X187654819Y-78001904D01*
X187654819Y-78001904D02*
X187607200Y-78097142D01*
X118673809Y-87817200D02*
X118816666Y-87864819D01*
X118816666Y-87864819D02*
X119054761Y-87864819D01*
X119054761Y-87864819D02*
X119149999Y-87817200D01*
X119149999Y-87817200D02*
X119197618Y-87769580D01*
X119197618Y-87769580D02*
X119245237Y-87674342D01*
X119245237Y-87674342D02*
X119245237Y-87579104D01*
X119245237Y-87579104D02*
X119197618Y-87483866D01*
X119197618Y-87483866D02*
X119149999Y-87436247D01*
X119149999Y-87436247D02*
X119054761Y-87388628D01*
X119054761Y-87388628D02*
X118864285Y-87341009D01*
X118864285Y-87341009D02*
X118769047Y-87293390D01*
X118769047Y-87293390D02*
X118721428Y-87245771D01*
X118721428Y-87245771D02*
X118673809Y-87150533D01*
X118673809Y-87150533D02*
X118673809Y-87055295D01*
X118673809Y-87055295D02*
X118721428Y-86960057D01*
X118721428Y-86960057D02*
X118769047Y-86912438D01*
X118769047Y-86912438D02*
X118864285Y-86864819D01*
X118864285Y-86864819D02*
X119102380Y-86864819D01*
X119102380Y-86864819D02*
X119245237Y-86912438D01*
X120054761Y-87817200D02*
X119959523Y-87864819D01*
X119959523Y-87864819D02*
X119769047Y-87864819D01*
X119769047Y-87864819D02*
X119673809Y-87817200D01*
X119673809Y-87817200D02*
X119626190Y-87721961D01*
X119626190Y-87721961D02*
X119626190Y-87341009D01*
X119626190Y-87341009D02*
X119673809Y-87245771D01*
X119673809Y-87245771D02*
X119769047Y-87198152D01*
X119769047Y-87198152D02*
X119959523Y-87198152D01*
X119959523Y-87198152D02*
X120054761Y-87245771D01*
X120054761Y-87245771D02*
X120102380Y-87341009D01*
X120102380Y-87341009D02*
X120102380Y-87436247D01*
X120102380Y-87436247D02*
X119626190Y-87531485D01*
X120530952Y-87864819D02*
X120530952Y-87198152D01*
X120530952Y-87388628D02*
X120578571Y-87293390D01*
X120578571Y-87293390D02*
X120626190Y-87245771D01*
X120626190Y-87245771D02*
X120721428Y-87198152D01*
X120721428Y-87198152D02*
X120816666Y-87198152D01*
X121150000Y-87864819D02*
X121150000Y-87198152D01*
X121150000Y-86864819D02*
X121102381Y-86912438D01*
X121102381Y-86912438D02*
X121150000Y-86960057D01*
X121150000Y-86960057D02*
X121197619Y-86912438D01*
X121197619Y-86912438D02*
X121150000Y-86864819D01*
X121150000Y-86864819D02*
X121150000Y-86960057D01*
X122054761Y-87864819D02*
X122054761Y-87341009D01*
X122054761Y-87341009D02*
X122007142Y-87245771D01*
X122007142Y-87245771D02*
X121911904Y-87198152D01*
X121911904Y-87198152D02*
X121721428Y-87198152D01*
X121721428Y-87198152D02*
X121626190Y-87245771D01*
X122054761Y-87817200D02*
X121959523Y-87864819D01*
X121959523Y-87864819D02*
X121721428Y-87864819D01*
X121721428Y-87864819D02*
X121626190Y-87817200D01*
X121626190Y-87817200D02*
X121578571Y-87721961D01*
X121578571Y-87721961D02*
X121578571Y-87626723D01*
X121578571Y-87626723D02*
X121626190Y-87531485D01*
X121626190Y-87531485D02*
X121721428Y-87483866D01*
X121721428Y-87483866D02*
X121959523Y-87483866D01*
X121959523Y-87483866D02*
X122054761Y-87436247D01*
X122673809Y-87864819D02*
X122578571Y-87817200D01*
X122578571Y-87817200D02*
X122530952Y-87721961D01*
X122530952Y-87721961D02*
X122530952Y-86864819D01*
X40544819Y-24296666D02*
X40068628Y-24629999D01*
X40544819Y-24868094D02*
X39544819Y-24868094D01*
X39544819Y-24868094D02*
X39544819Y-24487142D01*
X39544819Y-24487142D02*
X39592438Y-24391904D01*
X39592438Y-24391904D02*
X39640057Y-24344285D01*
X39640057Y-24344285D02*
X39735295Y-24296666D01*
X39735295Y-24296666D02*
X39878152Y-24296666D01*
X39878152Y-24296666D02*
X39973390Y-24344285D01*
X39973390Y-24344285D02*
X40021009Y-24391904D01*
X40021009Y-24391904D02*
X40068628Y-24487142D01*
X40068628Y-24487142D02*
X40068628Y-24868094D01*
X39544819Y-23963332D02*
X39544819Y-23344285D01*
X39544819Y-23344285D02*
X39925771Y-23677618D01*
X39925771Y-23677618D02*
X39925771Y-23534761D01*
X39925771Y-23534761D02*
X39973390Y-23439523D01*
X39973390Y-23439523D02*
X40021009Y-23391904D01*
X40021009Y-23391904D02*
X40116247Y-23344285D01*
X40116247Y-23344285D02*
X40354342Y-23344285D01*
X40354342Y-23344285D02*
X40449580Y-23391904D01*
X40449580Y-23391904D02*
X40497200Y-23439523D01*
X40497200Y-23439523D02*
X40544819Y-23534761D01*
X40544819Y-23534761D02*
X40544819Y-23820475D01*
X40544819Y-23820475D02*
X40497200Y-23915713D01*
X40497200Y-23915713D02*
X40449580Y-23963332D01*
X160789580Y-51442857D02*
X160837200Y-51490476D01*
X160837200Y-51490476D02*
X160884819Y-51633333D01*
X160884819Y-51633333D02*
X160884819Y-51728571D01*
X160884819Y-51728571D02*
X160837200Y-51871428D01*
X160837200Y-51871428D02*
X160741961Y-51966666D01*
X160741961Y-51966666D02*
X160646723Y-52014285D01*
X160646723Y-52014285D02*
X160456247Y-52061904D01*
X160456247Y-52061904D02*
X160313390Y-52061904D01*
X160313390Y-52061904D02*
X160122914Y-52014285D01*
X160122914Y-52014285D02*
X160027676Y-51966666D01*
X160027676Y-51966666D02*
X159932438Y-51871428D01*
X159932438Y-51871428D02*
X159884819Y-51728571D01*
X159884819Y-51728571D02*
X159884819Y-51633333D01*
X159884819Y-51633333D02*
X159932438Y-51490476D01*
X159932438Y-51490476D02*
X159980057Y-51442857D01*
X160884819Y-50490476D02*
X160884819Y-51061904D01*
X160884819Y-50776190D02*
X159884819Y-50776190D01*
X159884819Y-50776190D02*
X160027676Y-50871428D01*
X160027676Y-50871428D02*
X160122914Y-50966666D01*
X160122914Y-50966666D02*
X160170533Y-51061904D01*
X159884819Y-49633333D02*
X159884819Y-49823809D01*
X159884819Y-49823809D02*
X159932438Y-49919047D01*
X159932438Y-49919047D02*
X159980057Y-49966666D01*
X159980057Y-49966666D02*
X160122914Y-50061904D01*
X160122914Y-50061904D02*
X160313390Y-50109523D01*
X160313390Y-50109523D02*
X160694342Y-50109523D01*
X160694342Y-50109523D02*
X160789580Y-50061904D01*
X160789580Y-50061904D02*
X160837200Y-50014285D01*
X160837200Y-50014285D02*
X160884819Y-49919047D01*
X160884819Y-49919047D02*
X160884819Y-49728571D01*
X160884819Y-49728571D02*
X160837200Y-49633333D01*
X160837200Y-49633333D02*
X160789580Y-49585714D01*
X160789580Y-49585714D02*
X160694342Y-49538095D01*
X160694342Y-49538095D02*
X160456247Y-49538095D01*
X160456247Y-49538095D02*
X160361009Y-49585714D01*
X160361009Y-49585714D02*
X160313390Y-49633333D01*
X160313390Y-49633333D02*
X160265771Y-49728571D01*
X160265771Y-49728571D02*
X160265771Y-49919047D01*
X160265771Y-49919047D02*
X160313390Y-50014285D01*
X160313390Y-50014285D02*
X160361009Y-50061904D01*
X160361009Y-50061904D02*
X160456247Y-50109523D01*
X137109580Y-79382857D02*
X137157200Y-79430476D01*
X137157200Y-79430476D02*
X137204819Y-79573333D01*
X137204819Y-79573333D02*
X137204819Y-79668571D01*
X137204819Y-79668571D02*
X137157200Y-79811428D01*
X137157200Y-79811428D02*
X137061961Y-79906666D01*
X137061961Y-79906666D02*
X136966723Y-79954285D01*
X136966723Y-79954285D02*
X136776247Y-80001904D01*
X136776247Y-80001904D02*
X136633390Y-80001904D01*
X136633390Y-80001904D02*
X136442914Y-79954285D01*
X136442914Y-79954285D02*
X136347676Y-79906666D01*
X136347676Y-79906666D02*
X136252438Y-79811428D01*
X136252438Y-79811428D02*
X136204819Y-79668571D01*
X136204819Y-79668571D02*
X136204819Y-79573333D01*
X136204819Y-79573333D02*
X136252438Y-79430476D01*
X136252438Y-79430476D02*
X136300057Y-79382857D01*
X137204819Y-78430476D02*
X137204819Y-79001904D01*
X137204819Y-78716190D02*
X136204819Y-78716190D01*
X136204819Y-78716190D02*
X136347676Y-78811428D01*
X136347676Y-78811428D02*
X136442914Y-78906666D01*
X136442914Y-78906666D02*
X136490533Y-79001904D01*
X137204819Y-77478095D02*
X137204819Y-78049523D01*
X137204819Y-77763809D02*
X136204819Y-77763809D01*
X136204819Y-77763809D02*
X136347676Y-77859047D01*
X136347676Y-77859047D02*
X136442914Y-77954285D01*
X136442914Y-77954285D02*
X136490533Y-78049523D01*
X146908642Y-86877877D02*
X146956262Y-86925496D01*
X146956262Y-86925496D02*
X147003881Y-87068353D01*
X147003881Y-87068353D02*
X147003881Y-87163591D01*
X147003881Y-87163591D02*
X146956262Y-87306448D01*
X146956262Y-87306448D02*
X146861023Y-87401686D01*
X146861023Y-87401686D02*
X146765785Y-87449305D01*
X146765785Y-87449305D02*
X146575309Y-87496924D01*
X146575309Y-87496924D02*
X146432452Y-87496924D01*
X146432452Y-87496924D02*
X146241976Y-87449305D01*
X146241976Y-87449305D02*
X146146738Y-87401686D01*
X146146738Y-87401686D02*
X146051500Y-87306448D01*
X146051500Y-87306448D02*
X146003881Y-87163591D01*
X146003881Y-87163591D02*
X146003881Y-87068353D01*
X146003881Y-87068353D02*
X146051500Y-86925496D01*
X146051500Y-86925496D02*
X146099119Y-86877877D01*
X147003881Y-85925496D02*
X147003881Y-86496924D01*
X147003881Y-86211210D02*
X146003881Y-86211210D01*
X146003881Y-86211210D02*
X146146738Y-86306448D01*
X146146738Y-86306448D02*
X146241976Y-86401686D01*
X146241976Y-86401686D02*
X146289595Y-86496924D01*
X146003881Y-85306448D02*
X146003881Y-85211210D01*
X146003881Y-85211210D02*
X146051500Y-85115972D01*
X146051500Y-85115972D02*
X146099119Y-85068353D01*
X146099119Y-85068353D02*
X146194357Y-85020734D01*
X146194357Y-85020734D02*
X146384833Y-84973115D01*
X146384833Y-84973115D02*
X146622928Y-84973115D01*
X146622928Y-84973115D02*
X146813404Y-85020734D01*
X146813404Y-85020734D02*
X146908642Y-85068353D01*
X146908642Y-85068353D02*
X146956262Y-85115972D01*
X146956262Y-85115972D02*
X147003881Y-85211210D01*
X147003881Y-85211210D02*
X147003881Y-85306448D01*
X147003881Y-85306448D02*
X146956262Y-85401686D01*
X146956262Y-85401686D02*
X146908642Y-85449305D01*
X146908642Y-85449305D02*
X146813404Y-85496924D01*
X146813404Y-85496924D02*
X146622928Y-85544543D01*
X146622928Y-85544543D02*
X146384833Y-85544543D01*
X146384833Y-85544543D02*
X146194357Y-85496924D01*
X146194357Y-85496924D02*
X146099119Y-85449305D01*
X146099119Y-85449305D02*
X146051500Y-85401686D01*
X146051500Y-85401686D02*
X146003881Y-85306448D01*
X37290476Y-27394819D02*
X37290476Y-28109104D01*
X37290476Y-28109104D02*
X37242857Y-28251961D01*
X37242857Y-28251961D02*
X37147619Y-28347200D01*
X37147619Y-28347200D02*
X37004762Y-28394819D01*
X37004762Y-28394819D02*
X36909524Y-28394819D01*
X38290476Y-28394819D02*
X37719048Y-28394819D01*
X38004762Y-28394819D02*
X38004762Y-27394819D01*
X38004762Y-27394819D02*
X37909524Y-27537676D01*
X37909524Y-27537676D02*
X37814286Y-27632914D01*
X37814286Y-27632914D02*
X37719048Y-27680533D01*
X38671429Y-27490057D02*
X38719048Y-27442438D01*
X38719048Y-27442438D02*
X38814286Y-27394819D01*
X38814286Y-27394819D02*
X39052381Y-27394819D01*
X39052381Y-27394819D02*
X39147619Y-27442438D01*
X39147619Y-27442438D02*
X39195238Y-27490057D01*
X39195238Y-27490057D02*
X39242857Y-27585295D01*
X39242857Y-27585295D02*
X39242857Y-27680533D01*
X39242857Y-27680533D02*
X39195238Y-27823390D01*
X39195238Y-27823390D02*
X38623810Y-28394819D01*
X38623810Y-28394819D02*
X39242857Y-28394819D01*
X47874819Y-24145713D02*
X47874819Y-23574285D01*
X48874819Y-23859999D02*
X47874819Y-23859999D01*
X48874819Y-23240951D02*
X47874819Y-23240951D01*
X48351009Y-23240951D02*
X48351009Y-22669523D01*
X48874819Y-22669523D02*
X47874819Y-22669523D01*
X48874819Y-21669523D02*
X48874819Y-22240951D01*
X48874819Y-21955237D02*
X47874819Y-21955237D01*
X47874819Y-21955237D02*
X48017676Y-22050475D01*
X48017676Y-22050475D02*
X48112914Y-22145713D01*
X48112914Y-22145713D02*
X48160533Y-22240951D01*
X175103333Y-48159819D02*
X174770000Y-47683628D01*
X174531905Y-48159819D02*
X174531905Y-47159819D01*
X174531905Y-47159819D02*
X174912857Y-47159819D01*
X174912857Y-47159819D02*
X175008095Y-47207438D01*
X175008095Y-47207438D02*
X175055714Y-47255057D01*
X175055714Y-47255057D02*
X175103333Y-47350295D01*
X175103333Y-47350295D02*
X175103333Y-47493152D01*
X175103333Y-47493152D02*
X175055714Y-47588390D01*
X175055714Y-47588390D02*
X175008095Y-47636009D01*
X175008095Y-47636009D02*
X174912857Y-47683628D01*
X174912857Y-47683628D02*
X174531905Y-47683628D01*
X175674762Y-47588390D02*
X175579524Y-47540771D01*
X175579524Y-47540771D02*
X175531905Y-47493152D01*
X175531905Y-47493152D02*
X175484286Y-47397914D01*
X175484286Y-47397914D02*
X175484286Y-47350295D01*
X175484286Y-47350295D02*
X175531905Y-47255057D01*
X175531905Y-47255057D02*
X175579524Y-47207438D01*
X175579524Y-47207438D02*
X175674762Y-47159819D01*
X175674762Y-47159819D02*
X175865238Y-47159819D01*
X175865238Y-47159819D02*
X175960476Y-47207438D01*
X175960476Y-47207438D02*
X176008095Y-47255057D01*
X176008095Y-47255057D02*
X176055714Y-47350295D01*
X176055714Y-47350295D02*
X176055714Y-47397914D01*
X176055714Y-47397914D02*
X176008095Y-47493152D01*
X176008095Y-47493152D02*
X175960476Y-47540771D01*
X175960476Y-47540771D02*
X175865238Y-47588390D01*
X175865238Y-47588390D02*
X175674762Y-47588390D01*
X175674762Y-47588390D02*
X175579524Y-47636009D01*
X175579524Y-47636009D02*
X175531905Y-47683628D01*
X175531905Y-47683628D02*
X175484286Y-47778866D01*
X175484286Y-47778866D02*
X175484286Y-47969342D01*
X175484286Y-47969342D02*
X175531905Y-48064580D01*
X175531905Y-48064580D02*
X175579524Y-48112200D01*
X175579524Y-48112200D02*
X175674762Y-48159819D01*
X175674762Y-48159819D02*
X175865238Y-48159819D01*
X175865238Y-48159819D02*
X175960476Y-48112200D01*
X175960476Y-48112200D02*
X176008095Y-48064580D01*
X176008095Y-48064580D02*
X176055714Y-47969342D01*
X176055714Y-47969342D02*
X176055714Y-47778866D01*
X176055714Y-47778866D02*
X176008095Y-47683628D01*
X176008095Y-47683628D02*
X175960476Y-47636009D01*
X175960476Y-47636009D02*
X175865238Y-47588390D01*
X175103333Y-53239819D02*
X174770000Y-52763628D01*
X174531905Y-53239819D02*
X174531905Y-52239819D01*
X174531905Y-52239819D02*
X174912857Y-52239819D01*
X174912857Y-52239819D02*
X175008095Y-52287438D01*
X175008095Y-52287438D02*
X175055714Y-52335057D01*
X175055714Y-52335057D02*
X175103333Y-52430295D01*
X175103333Y-52430295D02*
X175103333Y-52573152D01*
X175103333Y-52573152D02*
X175055714Y-52668390D01*
X175055714Y-52668390D02*
X175008095Y-52716009D01*
X175008095Y-52716009D02*
X174912857Y-52763628D01*
X174912857Y-52763628D02*
X174531905Y-52763628D01*
X175960476Y-52239819D02*
X175770000Y-52239819D01*
X175770000Y-52239819D02*
X175674762Y-52287438D01*
X175674762Y-52287438D02*
X175627143Y-52335057D01*
X175627143Y-52335057D02*
X175531905Y-52477914D01*
X175531905Y-52477914D02*
X175484286Y-52668390D01*
X175484286Y-52668390D02*
X175484286Y-53049342D01*
X175484286Y-53049342D02*
X175531905Y-53144580D01*
X175531905Y-53144580D02*
X175579524Y-53192200D01*
X175579524Y-53192200D02*
X175674762Y-53239819D01*
X175674762Y-53239819D02*
X175865238Y-53239819D01*
X175865238Y-53239819D02*
X175960476Y-53192200D01*
X175960476Y-53192200D02*
X176008095Y-53144580D01*
X176008095Y-53144580D02*
X176055714Y-53049342D01*
X176055714Y-53049342D02*
X176055714Y-52811247D01*
X176055714Y-52811247D02*
X176008095Y-52716009D01*
X176008095Y-52716009D02*
X175960476Y-52668390D01*
X175960476Y-52668390D02*
X175865238Y-52620771D01*
X175865238Y-52620771D02*
X175674762Y-52620771D01*
X175674762Y-52620771D02*
X175579524Y-52668390D01*
X175579524Y-52668390D02*
X175531905Y-52716009D01*
X175531905Y-52716009D02*
X175484286Y-52811247D01*
X158484819Y-96686666D02*
X158008628Y-97019999D01*
X158484819Y-97258094D02*
X157484819Y-97258094D01*
X157484819Y-97258094D02*
X157484819Y-96877142D01*
X157484819Y-96877142D02*
X157532438Y-96781904D01*
X157532438Y-96781904D02*
X157580057Y-96734285D01*
X157580057Y-96734285D02*
X157675295Y-96686666D01*
X157675295Y-96686666D02*
X157818152Y-96686666D01*
X157818152Y-96686666D02*
X157913390Y-96734285D01*
X157913390Y-96734285D02*
X157961009Y-96781904D01*
X157961009Y-96781904D02*
X158008628Y-96877142D01*
X158008628Y-96877142D02*
X158008628Y-97258094D01*
X157484819Y-95781904D02*
X157484819Y-96258094D01*
X157484819Y-96258094D02*
X157961009Y-96305713D01*
X157961009Y-96305713D02*
X157913390Y-96258094D01*
X157913390Y-96258094D02*
X157865771Y-96162856D01*
X157865771Y-96162856D02*
X157865771Y-95924761D01*
X157865771Y-95924761D02*
X157913390Y-95829523D01*
X157913390Y-95829523D02*
X157961009Y-95781904D01*
X157961009Y-95781904D02*
X158056247Y-95734285D01*
X158056247Y-95734285D02*
X158294342Y-95734285D01*
X158294342Y-95734285D02*
X158389580Y-95781904D01*
X158389580Y-95781904D02*
X158437200Y-95829523D01*
X158437200Y-95829523D02*
X158484819Y-95924761D01*
X158484819Y-95924761D02*
X158484819Y-96162856D01*
X158484819Y-96162856D02*
X158437200Y-96258094D01*
X158437200Y-96258094D02*
X158389580Y-96305713D01*
X152134819Y-94426666D02*
X151658628Y-94759999D01*
X152134819Y-94998094D02*
X151134819Y-94998094D01*
X151134819Y-94998094D02*
X151134819Y-94617142D01*
X151134819Y-94617142D02*
X151182438Y-94521904D01*
X151182438Y-94521904D02*
X151230057Y-94474285D01*
X151230057Y-94474285D02*
X151325295Y-94426666D01*
X151325295Y-94426666D02*
X151468152Y-94426666D01*
X151468152Y-94426666D02*
X151563390Y-94474285D01*
X151563390Y-94474285D02*
X151611009Y-94521904D01*
X151611009Y-94521904D02*
X151658628Y-94617142D01*
X151658628Y-94617142D02*
X151658628Y-94998094D01*
X151468152Y-93569523D02*
X152134819Y-93569523D01*
X151087200Y-93807618D02*
X151801485Y-94045713D01*
X151801485Y-94045713D02*
X151801485Y-93426666D01*
X124793333Y-61614819D02*
X124317143Y-61614819D01*
X124317143Y-61614819D02*
X124317143Y-60614819D01*
X125650476Y-61614819D02*
X125079048Y-61614819D01*
X125364762Y-61614819D02*
X125364762Y-60614819D01*
X125364762Y-60614819D02*
X125269524Y-60757676D01*
X125269524Y-60757676D02*
X125174286Y-60852914D01*
X125174286Y-60852914D02*
X125079048Y-60900533D01*
X182070476Y-29934819D02*
X182070476Y-30649104D01*
X182070476Y-30649104D02*
X182022857Y-30791961D01*
X182022857Y-30791961D02*
X181927619Y-30887200D01*
X181927619Y-30887200D02*
X181784762Y-30934819D01*
X181784762Y-30934819D02*
X181689524Y-30934819D01*
X183070476Y-30934819D02*
X182499048Y-30934819D01*
X182784762Y-30934819D02*
X182784762Y-29934819D01*
X182784762Y-29934819D02*
X182689524Y-30077676D01*
X182689524Y-30077676D02*
X182594286Y-30172914D01*
X182594286Y-30172914D02*
X182499048Y-30220533D01*
X184022857Y-30934819D02*
X183451429Y-30934819D01*
X183737143Y-30934819D02*
X183737143Y-29934819D01*
X183737143Y-29934819D02*
X183641905Y-30077676D01*
X183641905Y-30077676D02*
X183546667Y-30172914D01*
X183546667Y-30172914D02*
X183451429Y-30220533D01*
X123260476Y-36064819D02*
X123260476Y-36779104D01*
X123260476Y-36779104D02*
X123212857Y-36921961D01*
X123212857Y-36921961D02*
X123117619Y-37017200D01*
X123117619Y-37017200D02*
X122974762Y-37064819D01*
X122974762Y-37064819D02*
X122879524Y-37064819D01*
X124260476Y-37064819D02*
X123689048Y-37064819D01*
X123974762Y-37064819D02*
X123974762Y-36064819D01*
X123974762Y-36064819D02*
X123879524Y-36207676D01*
X123879524Y-36207676D02*
X123784286Y-36302914D01*
X123784286Y-36302914D02*
X123689048Y-36350533D01*
X124879524Y-36064819D02*
X124974762Y-36064819D01*
X124974762Y-36064819D02*
X125070000Y-36112438D01*
X125070000Y-36112438D02*
X125117619Y-36160057D01*
X125117619Y-36160057D02*
X125165238Y-36255295D01*
X125165238Y-36255295D02*
X125212857Y-36445771D01*
X125212857Y-36445771D02*
X125212857Y-36683866D01*
X125212857Y-36683866D02*
X125165238Y-36874342D01*
X125165238Y-36874342D02*
X125117619Y-36969580D01*
X125117619Y-36969580D02*
X125070000Y-37017200D01*
X125070000Y-37017200D02*
X124974762Y-37064819D01*
X124974762Y-37064819D02*
X124879524Y-37064819D01*
X124879524Y-37064819D02*
X124784286Y-37017200D01*
X124784286Y-37017200D02*
X124736667Y-36969580D01*
X124736667Y-36969580D02*
X124689048Y-36874342D01*
X124689048Y-36874342D02*
X124641429Y-36683866D01*
X124641429Y-36683866D02*
X124641429Y-36445771D01*
X124641429Y-36445771D02*
X124689048Y-36255295D01*
X124689048Y-36255295D02*
X124736667Y-36160057D01*
X124736667Y-36160057D02*
X124784286Y-36112438D01*
X124784286Y-36112438D02*
X124879524Y-36064819D01*
X140206666Y-93659819D02*
X140206666Y-94374104D01*
X140206666Y-94374104D02*
X140159047Y-94516961D01*
X140159047Y-94516961D02*
X140063809Y-94612200D01*
X140063809Y-94612200D02*
X139920952Y-94659819D01*
X139920952Y-94659819D02*
X139825714Y-94659819D01*
X140587619Y-93659819D02*
X141254285Y-93659819D01*
X141254285Y-93659819D02*
X140825714Y-94659819D01*
X135556666Y-93659819D02*
X135556666Y-94374104D01*
X135556666Y-94374104D02*
X135509047Y-94516961D01*
X135509047Y-94516961D02*
X135413809Y-94612200D01*
X135413809Y-94612200D02*
X135270952Y-94659819D01*
X135270952Y-94659819D02*
X135175714Y-94659819D01*
X136461428Y-93659819D02*
X136270952Y-93659819D01*
X136270952Y-93659819D02*
X136175714Y-93707438D01*
X136175714Y-93707438D02*
X136128095Y-93755057D01*
X136128095Y-93755057D02*
X136032857Y-93897914D01*
X136032857Y-93897914D02*
X135985238Y-94088390D01*
X135985238Y-94088390D02*
X135985238Y-94469342D01*
X135985238Y-94469342D02*
X136032857Y-94564580D01*
X136032857Y-94564580D02*
X136080476Y-94612200D01*
X136080476Y-94612200D02*
X136175714Y-94659819D01*
X136175714Y-94659819D02*
X136366190Y-94659819D01*
X136366190Y-94659819D02*
X136461428Y-94612200D01*
X136461428Y-94612200D02*
X136509047Y-94564580D01*
X136509047Y-94564580D02*
X136556666Y-94469342D01*
X136556666Y-94469342D02*
X136556666Y-94231247D01*
X136556666Y-94231247D02*
X136509047Y-94136009D01*
X136509047Y-94136009D02*
X136461428Y-94088390D01*
X136461428Y-94088390D02*
X136366190Y-94040771D01*
X136366190Y-94040771D02*
X136175714Y-94040771D01*
X136175714Y-94040771D02*
X136080476Y-94088390D01*
X136080476Y-94088390D02*
X136032857Y-94136009D01*
X136032857Y-94136009D02*
X135985238Y-94231247D01*
X130906666Y-93659819D02*
X130906666Y-94374104D01*
X130906666Y-94374104D02*
X130859047Y-94516961D01*
X130859047Y-94516961D02*
X130763809Y-94612200D01*
X130763809Y-94612200D02*
X130620952Y-94659819D01*
X130620952Y-94659819D02*
X130525714Y-94659819D01*
X131287619Y-93659819D02*
X131906666Y-93659819D01*
X131906666Y-93659819D02*
X131573333Y-94040771D01*
X131573333Y-94040771D02*
X131716190Y-94040771D01*
X131716190Y-94040771D02*
X131811428Y-94088390D01*
X131811428Y-94088390D02*
X131859047Y-94136009D01*
X131859047Y-94136009D02*
X131906666Y-94231247D01*
X131906666Y-94231247D02*
X131906666Y-94469342D01*
X131906666Y-94469342D02*
X131859047Y-94564580D01*
X131859047Y-94564580D02*
X131811428Y-94612200D01*
X131811428Y-94612200D02*
X131716190Y-94659819D01*
X131716190Y-94659819D02*
X131430476Y-94659819D01*
X131430476Y-94659819D02*
X131335238Y-94612200D01*
X131335238Y-94612200D02*
X131287619Y-94564580D01*
X126666666Y-93659819D02*
X126666666Y-94374104D01*
X126666666Y-94374104D02*
X126619047Y-94516961D01*
X126619047Y-94516961D02*
X126523809Y-94612200D01*
X126523809Y-94612200D02*
X126380952Y-94659819D01*
X126380952Y-94659819D02*
X126285714Y-94659819D01*
X127666666Y-94659819D02*
X127095238Y-94659819D01*
X127380952Y-94659819D02*
X127380952Y-93659819D01*
X127380952Y-93659819D02*
X127285714Y-93802676D01*
X127285714Y-93802676D02*
X127190476Y-93897914D01*
X127190476Y-93897914D02*
X127095238Y-93945533D01*
X156471927Y-69813105D02*
X155471927Y-69813105D01*
X155471927Y-69813105D02*
X155471927Y-69575010D01*
X155471927Y-69575010D02*
X155519546Y-69432153D01*
X155519546Y-69432153D02*
X155614784Y-69336915D01*
X155614784Y-69336915D02*
X155710022Y-69289296D01*
X155710022Y-69289296D02*
X155900498Y-69241677D01*
X155900498Y-69241677D02*
X156043355Y-69241677D01*
X156043355Y-69241677D02*
X156233831Y-69289296D01*
X156233831Y-69289296D02*
X156329069Y-69336915D01*
X156329069Y-69336915D02*
X156424308Y-69432153D01*
X156424308Y-69432153D02*
X156471927Y-69575010D01*
X156471927Y-69575010D02*
X156471927Y-69813105D01*
X155471927Y-68384534D02*
X155471927Y-68575010D01*
X155471927Y-68575010D02*
X155519546Y-68670248D01*
X155519546Y-68670248D02*
X155567165Y-68717867D01*
X155567165Y-68717867D02*
X155710022Y-68813105D01*
X155710022Y-68813105D02*
X155900498Y-68860724D01*
X155900498Y-68860724D02*
X156281450Y-68860724D01*
X156281450Y-68860724D02*
X156376688Y-68813105D01*
X156376688Y-68813105D02*
X156424308Y-68765486D01*
X156424308Y-68765486D02*
X156471927Y-68670248D01*
X156471927Y-68670248D02*
X156471927Y-68479772D01*
X156471927Y-68479772D02*
X156424308Y-68384534D01*
X156424308Y-68384534D02*
X156376688Y-68336915D01*
X156376688Y-68336915D02*
X156281450Y-68289296D01*
X156281450Y-68289296D02*
X156043355Y-68289296D01*
X156043355Y-68289296D02*
X155948117Y-68336915D01*
X155948117Y-68336915D02*
X155900498Y-68384534D01*
X155900498Y-68384534D02*
X155852879Y-68479772D01*
X155852879Y-68479772D02*
X155852879Y-68670248D01*
X155852879Y-68670248D02*
X155900498Y-68765486D01*
X155900498Y-68765486D02*
X155948117Y-68813105D01*
X155948117Y-68813105D02*
X156043355Y-68860724D01*
X159894819Y-70588094D02*
X158894819Y-70588094D01*
X158894819Y-70588094D02*
X158894819Y-70349999D01*
X158894819Y-70349999D02*
X158942438Y-70207142D01*
X158942438Y-70207142D02*
X159037676Y-70111904D01*
X159037676Y-70111904D02*
X159132914Y-70064285D01*
X159132914Y-70064285D02*
X159323390Y-70016666D01*
X159323390Y-70016666D02*
X159466247Y-70016666D01*
X159466247Y-70016666D02*
X159656723Y-70064285D01*
X159656723Y-70064285D02*
X159751961Y-70111904D01*
X159751961Y-70111904D02*
X159847200Y-70207142D01*
X159847200Y-70207142D02*
X159894819Y-70349999D01*
X159894819Y-70349999D02*
X159894819Y-70588094D01*
X159228152Y-69159523D02*
X159894819Y-69159523D01*
X158847200Y-69397618D02*
X159561485Y-69635713D01*
X159561485Y-69635713D02*
X159561485Y-69016666D01*
X173864819Y-82018094D02*
X172864819Y-82018094D01*
X172864819Y-82018094D02*
X172864819Y-81779999D01*
X172864819Y-81779999D02*
X172912438Y-81637142D01*
X172912438Y-81637142D02*
X173007676Y-81541904D01*
X173007676Y-81541904D02*
X173102914Y-81494285D01*
X173102914Y-81494285D02*
X173293390Y-81446666D01*
X173293390Y-81446666D02*
X173436247Y-81446666D01*
X173436247Y-81446666D02*
X173626723Y-81494285D01*
X173626723Y-81494285D02*
X173721961Y-81541904D01*
X173721961Y-81541904D02*
X173817200Y-81637142D01*
X173817200Y-81637142D02*
X173864819Y-81779999D01*
X173864819Y-81779999D02*
X173864819Y-82018094D01*
X172864819Y-81113332D02*
X172864819Y-80494285D01*
X172864819Y-80494285D02*
X173245771Y-80827618D01*
X173245771Y-80827618D02*
X173245771Y-80684761D01*
X173245771Y-80684761D02*
X173293390Y-80589523D01*
X173293390Y-80589523D02*
X173341009Y-80541904D01*
X173341009Y-80541904D02*
X173436247Y-80494285D01*
X173436247Y-80494285D02*
X173674342Y-80494285D01*
X173674342Y-80494285D02*
X173769580Y-80541904D01*
X173769580Y-80541904D02*
X173817200Y-80589523D01*
X173817200Y-80589523D02*
X173864819Y-80684761D01*
X173864819Y-80684761D02*
X173864819Y-80970475D01*
X173864819Y-80970475D02*
X173817200Y-81065713D01*
X173817200Y-81065713D02*
X173769580Y-81113332D01*
X177564819Y-78208094D02*
X176564819Y-78208094D01*
X176564819Y-78208094D02*
X176564819Y-77969999D01*
X176564819Y-77969999D02*
X176612438Y-77827142D01*
X176612438Y-77827142D02*
X176707676Y-77731904D01*
X176707676Y-77731904D02*
X176802914Y-77684285D01*
X176802914Y-77684285D02*
X176993390Y-77636666D01*
X176993390Y-77636666D02*
X177136247Y-77636666D01*
X177136247Y-77636666D02*
X177326723Y-77684285D01*
X177326723Y-77684285D02*
X177421961Y-77731904D01*
X177421961Y-77731904D02*
X177517200Y-77827142D01*
X177517200Y-77827142D02*
X177564819Y-77969999D01*
X177564819Y-77969999D02*
X177564819Y-78208094D01*
X176660057Y-77255713D02*
X176612438Y-77208094D01*
X176612438Y-77208094D02*
X176564819Y-77112856D01*
X176564819Y-77112856D02*
X176564819Y-76874761D01*
X176564819Y-76874761D02*
X176612438Y-76779523D01*
X176612438Y-76779523D02*
X176660057Y-76731904D01*
X176660057Y-76731904D02*
X176755295Y-76684285D01*
X176755295Y-76684285D02*
X176850533Y-76684285D01*
X176850533Y-76684285D02*
X176993390Y-76731904D01*
X176993390Y-76731904D02*
X177564819Y-77303332D01*
X177564819Y-77303332D02*
X177564819Y-76684285D01*
X130167142Y-43459580D02*
X130119523Y-43507200D01*
X130119523Y-43507200D02*
X129976666Y-43554819D01*
X129976666Y-43554819D02*
X129881428Y-43554819D01*
X129881428Y-43554819D02*
X129738571Y-43507200D01*
X129738571Y-43507200D02*
X129643333Y-43411961D01*
X129643333Y-43411961D02*
X129595714Y-43316723D01*
X129595714Y-43316723D02*
X129548095Y-43126247D01*
X129548095Y-43126247D02*
X129548095Y-42983390D01*
X129548095Y-42983390D02*
X129595714Y-42792914D01*
X129595714Y-42792914D02*
X129643333Y-42697676D01*
X129643333Y-42697676D02*
X129738571Y-42602438D01*
X129738571Y-42602438D02*
X129881428Y-42554819D01*
X129881428Y-42554819D02*
X129976666Y-42554819D01*
X129976666Y-42554819D02*
X130119523Y-42602438D01*
X130119523Y-42602438D02*
X130167142Y-42650057D01*
X131119523Y-43554819D02*
X130548095Y-43554819D01*
X130833809Y-43554819D02*
X130833809Y-42554819D01*
X130833809Y-42554819D02*
X130738571Y-42697676D01*
X130738571Y-42697676D02*
X130643333Y-42792914D01*
X130643333Y-42792914D02*
X130548095Y-42840533D01*
X132024285Y-42554819D02*
X131548095Y-42554819D01*
X131548095Y-42554819D02*
X131500476Y-43031009D01*
X131500476Y-43031009D02*
X131548095Y-42983390D01*
X131548095Y-42983390D02*
X131643333Y-42935771D01*
X131643333Y-42935771D02*
X131881428Y-42935771D01*
X131881428Y-42935771D02*
X131976666Y-42983390D01*
X131976666Y-42983390D02*
X132024285Y-43031009D01*
X132024285Y-43031009D02*
X132071904Y-43126247D01*
X132071904Y-43126247D02*
X132071904Y-43364342D01*
X132071904Y-43364342D02*
X132024285Y-43459580D01*
X132024285Y-43459580D02*
X131976666Y-43507200D01*
X131976666Y-43507200D02*
X131881428Y-43554819D01*
X131881428Y-43554819D02*
X131643333Y-43554819D01*
X131643333Y-43554819D02*
X131548095Y-43507200D01*
X131548095Y-43507200D02*
X131500476Y-43459580D01*
X128897142Y-40919580D02*
X128849523Y-40967200D01*
X128849523Y-40967200D02*
X128706666Y-41014819D01*
X128706666Y-41014819D02*
X128611428Y-41014819D01*
X128611428Y-41014819D02*
X128468571Y-40967200D01*
X128468571Y-40967200D02*
X128373333Y-40871961D01*
X128373333Y-40871961D02*
X128325714Y-40776723D01*
X128325714Y-40776723D02*
X128278095Y-40586247D01*
X128278095Y-40586247D02*
X128278095Y-40443390D01*
X128278095Y-40443390D02*
X128325714Y-40252914D01*
X128325714Y-40252914D02*
X128373333Y-40157676D01*
X128373333Y-40157676D02*
X128468571Y-40062438D01*
X128468571Y-40062438D02*
X128611428Y-40014819D01*
X128611428Y-40014819D02*
X128706666Y-40014819D01*
X128706666Y-40014819D02*
X128849523Y-40062438D01*
X128849523Y-40062438D02*
X128897142Y-40110057D01*
X129849523Y-41014819D02*
X129278095Y-41014819D01*
X129563809Y-41014819D02*
X129563809Y-40014819D01*
X129563809Y-40014819D02*
X129468571Y-40157676D01*
X129468571Y-40157676D02*
X129373333Y-40252914D01*
X129373333Y-40252914D02*
X129278095Y-40300533D01*
X130706666Y-40348152D02*
X130706666Y-41014819D01*
X130468571Y-39967200D02*
X130230476Y-40681485D01*
X130230476Y-40681485D02*
X130849523Y-40681485D01*
X133977142Y-45349580D02*
X133929523Y-45397200D01*
X133929523Y-45397200D02*
X133786666Y-45444819D01*
X133786666Y-45444819D02*
X133691428Y-45444819D01*
X133691428Y-45444819D02*
X133548571Y-45397200D01*
X133548571Y-45397200D02*
X133453333Y-45301961D01*
X133453333Y-45301961D02*
X133405714Y-45206723D01*
X133405714Y-45206723D02*
X133358095Y-45016247D01*
X133358095Y-45016247D02*
X133358095Y-44873390D01*
X133358095Y-44873390D02*
X133405714Y-44682914D01*
X133405714Y-44682914D02*
X133453333Y-44587676D01*
X133453333Y-44587676D02*
X133548571Y-44492438D01*
X133548571Y-44492438D02*
X133691428Y-44444819D01*
X133691428Y-44444819D02*
X133786666Y-44444819D01*
X133786666Y-44444819D02*
X133929523Y-44492438D01*
X133929523Y-44492438D02*
X133977142Y-44540057D01*
X134929523Y-45444819D02*
X134358095Y-45444819D01*
X134643809Y-45444819D02*
X134643809Y-44444819D01*
X134643809Y-44444819D02*
X134548571Y-44587676D01*
X134548571Y-44587676D02*
X134453333Y-44682914D01*
X134453333Y-44682914D02*
X134358095Y-44730533D01*
X135262857Y-44444819D02*
X135881904Y-44444819D01*
X135881904Y-44444819D02*
X135548571Y-44825771D01*
X135548571Y-44825771D02*
X135691428Y-44825771D01*
X135691428Y-44825771D02*
X135786666Y-44873390D01*
X135786666Y-44873390D02*
X135834285Y-44921009D01*
X135834285Y-44921009D02*
X135881904Y-45016247D01*
X135881904Y-45016247D02*
X135881904Y-45254342D01*
X135881904Y-45254342D02*
X135834285Y-45349580D01*
X135834285Y-45349580D02*
X135786666Y-45397200D01*
X135786666Y-45397200D02*
X135691428Y-45444819D01*
X135691428Y-45444819D02*
X135405714Y-45444819D01*
X135405714Y-45444819D02*
X135310476Y-45397200D01*
X135310476Y-45397200D02*
X135262857Y-45349580D01*
X137397142Y-29629580D02*
X137349523Y-29677200D01*
X137349523Y-29677200D02*
X137206666Y-29724819D01*
X137206666Y-29724819D02*
X137111428Y-29724819D01*
X137111428Y-29724819D02*
X136968571Y-29677200D01*
X136968571Y-29677200D02*
X136873333Y-29581961D01*
X136873333Y-29581961D02*
X136825714Y-29486723D01*
X136825714Y-29486723D02*
X136778095Y-29296247D01*
X136778095Y-29296247D02*
X136778095Y-29153390D01*
X136778095Y-29153390D02*
X136825714Y-28962914D01*
X136825714Y-28962914D02*
X136873333Y-28867676D01*
X136873333Y-28867676D02*
X136968571Y-28772438D01*
X136968571Y-28772438D02*
X137111428Y-28724819D01*
X137111428Y-28724819D02*
X137206666Y-28724819D01*
X137206666Y-28724819D02*
X137349523Y-28772438D01*
X137349523Y-28772438D02*
X137397142Y-28820057D01*
X138349523Y-29724819D02*
X137778095Y-29724819D01*
X138063809Y-29724819D02*
X138063809Y-28724819D01*
X138063809Y-28724819D02*
X137968571Y-28867676D01*
X137968571Y-28867676D02*
X137873333Y-28962914D01*
X137873333Y-28962914D02*
X137778095Y-29010533D01*
X138730476Y-28820057D02*
X138778095Y-28772438D01*
X138778095Y-28772438D02*
X138873333Y-28724819D01*
X138873333Y-28724819D02*
X139111428Y-28724819D01*
X139111428Y-28724819D02*
X139206666Y-28772438D01*
X139206666Y-28772438D02*
X139254285Y-28820057D01*
X139254285Y-28820057D02*
X139301904Y-28915295D01*
X139301904Y-28915295D02*
X139301904Y-29010533D01*
X139301904Y-29010533D02*
X139254285Y-29153390D01*
X139254285Y-29153390D02*
X138682857Y-29724819D01*
X138682857Y-29724819D02*
X139301904Y-29724819D01*
X136042021Y-81688479D02*
X136042021Y-82164670D01*
X135708688Y-81164670D02*
X136042021Y-81688479D01*
X136042021Y-81688479D02*
X136375354Y-81164670D01*
X137232497Y-82164670D02*
X136661069Y-82164670D01*
X136946783Y-82164670D02*
X136946783Y-81164670D01*
X136946783Y-81164670D02*
X136851545Y-81307527D01*
X136851545Y-81307527D02*
X136756307Y-81402765D01*
X136756307Y-81402765D02*
X136661069Y-81450384D01*
X173234819Y-42671904D02*
X174044342Y-42671904D01*
X174044342Y-42671904D02*
X174139580Y-42624285D01*
X174139580Y-42624285D02*
X174187200Y-42576666D01*
X174187200Y-42576666D02*
X174234819Y-42481428D01*
X174234819Y-42481428D02*
X174234819Y-42290952D01*
X174234819Y-42290952D02*
X174187200Y-42195714D01*
X174187200Y-42195714D02*
X174139580Y-42148095D01*
X174139580Y-42148095D02*
X174044342Y-42100476D01*
X174044342Y-42100476D02*
X173234819Y-42100476D01*
X173234819Y-41719523D02*
X173234819Y-41100476D01*
X173234819Y-41100476D02*
X173615771Y-41433809D01*
X173615771Y-41433809D02*
X173615771Y-41290952D01*
X173615771Y-41290952D02*
X173663390Y-41195714D01*
X173663390Y-41195714D02*
X173711009Y-41148095D01*
X173711009Y-41148095D02*
X173806247Y-41100476D01*
X173806247Y-41100476D02*
X174044342Y-41100476D01*
X174044342Y-41100476D02*
X174139580Y-41148095D01*
X174139580Y-41148095D02*
X174187200Y-41195714D01*
X174187200Y-41195714D02*
X174234819Y-41290952D01*
X174234819Y-41290952D02*
X174234819Y-41576666D01*
X174234819Y-41576666D02*
X174187200Y-41671904D01*
X174187200Y-41671904D02*
X174139580Y-41719523D01*
X127584819Y-45021904D02*
X128394342Y-45021904D01*
X128394342Y-45021904D02*
X128489580Y-44974285D01*
X128489580Y-44974285D02*
X128537200Y-44926666D01*
X128537200Y-44926666D02*
X128584819Y-44831428D01*
X128584819Y-44831428D02*
X128584819Y-44640952D01*
X128584819Y-44640952D02*
X128537200Y-44545714D01*
X128537200Y-44545714D02*
X128489580Y-44498095D01*
X128489580Y-44498095D02*
X128394342Y-44450476D01*
X128394342Y-44450476D02*
X127584819Y-44450476D01*
X127680057Y-44021904D02*
X127632438Y-43974285D01*
X127632438Y-43974285D02*
X127584819Y-43879047D01*
X127584819Y-43879047D02*
X127584819Y-43640952D01*
X127584819Y-43640952D02*
X127632438Y-43545714D01*
X127632438Y-43545714D02*
X127680057Y-43498095D01*
X127680057Y-43498095D02*
X127775295Y-43450476D01*
X127775295Y-43450476D02*
X127870533Y-43450476D01*
X127870533Y-43450476D02*
X128013390Y-43498095D01*
X128013390Y-43498095D02*
X128584819Y-44069523D01*
X128584819Y-44069523D02*
X128584819Y-43450476D01*
X151405595Y-74434819D02*
X151405595Y-75244342D01*
X151405595Y-75244342D02*
X151453214Y-75339580D01*
X151453214Y-75339580D02*
X151500833Y-75387200D01*
X151500833Y-75387200D02*
X151596071Y-75434819D01*
X151596071Y-75434819D02*
X151786547Y-75434819D01*
X151786547Y-75434819D02*
X151881785Y-75387200D01*
X151881785Y-75387200D02*
X151929404Y-75339580D01*
X151929404Y-75339580D02*
X151977023Y-75244342D01*
X151977023Y-75244342D02*
X151977023Y-74434819D01*
X152977023Y-75434819D02*
X152405595Y-75434819D01*
X152691309Y-75434819D02*
X152691309Y-74434819D01*
X152691309Y-74434819D02*
X152596071Y-74577676D01*
X152596071Y-74577676D02*
X152500833Y-74672914D01*
X152500833Y-74672914D02*
X152405595Y-74720533D01*
X152959002Y-70054063D02*
X153006621Y-69911206D01*
X153006621Y-69911206D02*
X153006621Y-69673111D01*
X153006621Y-69673111D02*
X152959002Y-69577873D01*
X152959002Y-69577873D02*
X152911382Y-69530254D01*
X152911382Y-69530254D02*
X152816144Y-69482635D01*
X152816144Y-69482635D02*
X152720906Y-69482635D01*
X152720906Y-69482635D02*
X152625668Y-69530254D01*
X152625668Y-69530254D02*
X152578049Y-69577873D01*
X152578049Y-69577873D02*
X152530430Y-69673111D01*
X152530430Y-69673111D02*
X152482811Y-69863587D01*
X152482811Y-69863587D02*
X152435192Y-69958825D01*
X152435192Y-69958825D02*
X152387573Y-70006444D01*
X152387573Y-70006444D02*
X152292335Y-70054063D01*
X152292335Y-70054063D02*
X152197097Y-70054063D01*
X152197097Y-70054063D02*
X152101859Y-70006444D01*
X152101859Y-70006444D02*
X152054240Y-69958825D01*
X152054240Y-69958825D02*
X152006621Y-69863587D01*
X152006621Y-69863587D02*
X152006621Y-69625492D01*
X152006621Y-69625492D02*
X152054240Y-69482635D01*
X152006621Y-69149301D02*
X153006621Y-68911206D01*
X153006621Y-68911206D02*
X152292335Y-68720730D01*
X152292335Y-68720730D02*
X153006621Y-68530254D01*
X153006621Y-68530254D02*
X152006621Y-68292159D01*
X153006621Y-67387397D02*
X153006621Y-67958825D01*
X153006621Y-67673111D02*
X152006621Y-67673111D01*
X152006621Y-67673111D02*
X152149478Y-67768349D01*
X152149478Y-67768349D02*
X152244716Y-67863587D01*
X152244716Y-67863587D02*
X152292335Y-67958825D01*
X120483333Y-44554819D02*
X120150000Y-44078628D01*
X119911905Y-44554819D02*
X119911905Y-43554819D01*
X119911905Y-43554819D02*
X120292857Y-43554819D01*
X120292857Y-43554819D02*
X120388095Y-43602438D01*
X120388095Y-43602438D02*
X120435714Y-43650057D01*
X120435714Y-43650057D02*
X120483333Y-43745295D01*
X120483333Y-43745295D02*
X120483333Y-43888152D01*
X120483333Y-43888152D02*
X120435714Y-43983390D01*
X120435714Y-43983390D02*
X120388095Y-44031009D01*
X120388095Y-44031009D02*
X120292857Y-44078628D01*
X120292857Y-44078628D02*
X119911905Y-44078628D01*
X120816667Y-43554819D02*
X121483333Y-43554819D01*
X121483333Y-43554819D02*
X121054762Y-44554819D01*
X170794819Y-77636666D02*
X170318628Y-77969999D01*
X170794819Y-78208094D02*
X169794819Y-78208094D01*
X169794819Y-78208094D02*
X169794819Y-77827142D01*
X169794819Y-77827142D02*
X169842438Y-77731904D01*
X169842438Y-77731904D02*
X169890057Y-77684285D01*
X169890057Y-77684285D02*
X169985295Y-77636666D01*
X169985295Y-77636666D02*
X170128152Y-77636666D01*
X170128152Y-77636666D02*
X170223390Y-77684285D01*
X170223390Y-77684285D02*
X170271009Y-77731904D01*
X170271009Y-77731904D02*
X170318628Y-77827142D01*
X170318628Y-77827142D02*
X170318628Y-78208094D01*
X169890057Y-77255713D02*
X169842438Y-77208094D01*
X169842438Y-77208094D02*
X169794819Y-77112856D01*
X169794819Y-77112856D02*
X169794819Y-76874761D01*
X169794819Y-76874761D02*
X169842438Y-76779523D01*
X169842438Y-76779523D02*
X169890057Y-76731904D01*
X169890057Y-76731904D02*
X169985295Y-76684285D01*
X169985295Y-76684285D02*
X170080533Y-76684285D01*
X170080533Y-76684285D02*
X170223390Y-76731904D01*
X170223390Y-76731904D02*
X170794819Y-77303332D01*
X170794819Y-77303332D02*
X170794819Y-76684285D01*
X155554819Y-71286666D02*
X155078628Y-71619999D01*
X155554819Y-71858094D02*
X154554819Y-71858094D01*
X154554819Y-71858094D02*
X154554819Y-71477142D01*
X154554819Y-71477142D02*
X154602438Y-71381904D01*
X154602438Y-71381904D02*
X154650057Y-71334285D01*
X154650057Y-71334285D02*
X154745295Y-71286666D01*
X154745295Y-71286666D02*
X154888152Y-71286666D01*
X154888152Y-71286666D02*
X154983390Y-71334285D01*
X154983390Y-71334285D02*
X155031009Y-71381904D01*
X155031009Y-71381904D02*
X155078628Y-71477142D01*
X155078628Y-71477142D02*
X155078628Y-71858094D01*
X155554819Y-70334285D02*
X155554819Y-70905713D01*
X155554819Y-70619999D02*
X154554819Y-70619999D01*
X154554819Y-70619999D02*
X154697676Y-70715237D01*
X154697676Y-70715237D02*
X154792914Y-70810475D01*
X154792914Y-70810475D02*
X154840533Y-70905713D01*
X184054761Y-36000057D02*
X183959523Y-35952438D01*
X183959523Y-35952438D02*
X183864285Y-35857200D01*
X183864285Y-35857200D02*
X183721428Y-35714342D01*
X183721428Y-35714342D02*
X183626190Y-35666723D01*
X183626190Y-35666723D02*
X183530952Y-35666723D01*
X183578571Y-35904819D02*
X183483333Y-35857200D01*
X183483333Y-35857200D02*
X183388095Y-35761961D01*
X183388095Y-35761961D02*
X183340476Y-35571485D01*
X183340476Y-35571485D02*
X183340476Y-35238152D01*
X183340476Y-35238152D02*
X183388095Y-35047676D01*
X183388095Y-35047676D02*
X183483333Y-34952438D01*
X183483333Y-34952438D02*
X183578571Y-34904819D01*
X183578571Y-34904819D02*
X183769047Y-34904819D01*
X183769047Y-34904819D02*
X183864285Y-34952438D01*
X183864285Y-34952438D02*
X183959523Y-35047676D01*
X183959523Y-35047676D02*
X184007142Y-35238152D01*
X184007142Y-35238152D02*
X184007142Y-35571485D01*
X184007142Y-35571485D02*
X183959523Y-35761961D01*
X183959523Y-35761961D02*
X183864285Y-35857200D01*
X183864285Y-35857200D02*
X183769047Y-35904819D01*
X183769047Y-35904819D02*
X183578571Y-35904819D01*
X184388095Y-35000057D02*
X184435714Y-34952438D01*
X184435714Y-34952438D02*
X184530952Y-34904819D01*
X184530952Y-34904819D02*
X184769047Y-34904819D01*
X184769047Y-34904819D02*
X184864285Y-34952438D01*
X184864285Y-34952438D02*
X184911904Y-35000057D01*
X184911904Y-35000057D02*
X184959523Y-35095295D01*
X184959523Y-35095295D02*
X184959523Y-35190533D01*
X184959523Y-35190533D02*
X184911904Y-35333390D01*
X184911904Y-35333390D02*
X184340476Y-35904819D01*
X184340476Y-35904819D02*
X184959523Y-35904819D01*
X138866666Y-82481009D02*
X138533333Y-82481009D01*
X138533333Y-83004819D02*
X138533333Y-82004819D01*
X138533333Y-82004819D02*
X139009523Y-82004819D01*
X139723809Y-82481009D02*
X139866666Y-82528628D01*
X139866666Y-82528628D02*
X139914285Y-82576247D01*
X139914285Y-82576247D02*
X139961904Y-82671485D01*
X139961904Y-82671485D02*
X139961904Y-82814342D01*
X139961904Y-82814342D02*
X139914285Y-82909580D01*
X139914285Y-82909580D02*
X139866666Y-82957200D01*
X139866666Y-82957200D02*
X139771428Y-83004819D01*
X139771428Y-83004819D02*
X139390476Y-83004819D01*
X139390476Y-83004819D02*
X139390476Y-82004819D01*
X139390476Y-82004819D02*
X139723809Y-82004819D01*
X139723809Y-82004819D02*
X139819047Y-82052438D01*
X139819047Y-82052438D02*
X139866666Y-82100057D01*
X139866666Y-82100057D02*
X139914285Y-82195295D01*
X139914285Y-82195295D02*
X139914285Y-82290533D01*
X139914285Y-82290533D02*
X139866666Y-82385771D01*
X139866666Y-82385771D02*
X139819047Y-82433390D01*
X139819047Y-82433390D02*
X139723809Y-82481009D01*
X139723809Y-82481009D02*
X139390476Y-82481009D01*
X140914285Y-83004819D02*
X140342857Y-83004819D01*
X140628571Y-83004819D02*
X140628571Y-82004819D01*
X140628571Y-82004819D02*
X140533333Y-82147676D01*
X140533333Y-82147676D02*
X140438095Y-82242914D01*
X140438095Y-82242914D02*
X140342857Y-82290533D01*
X122154819Y-50078094D02*
X121154819Y-50078094D01*
X121154819Y-50078094D02*
X121154819Y-49839999D01*
X121154819Y-49839999D02*
X121202438Y-49697142D01*
X121202438Y-49697142D02*
X121297676Y-49601904D01*
X121297676Y-49601904D02*
X121392914Y-49554285D01*
X121392914Y-49554285D02*
X121583390Y-49506666D01*
X121583390Y-49506666D02*
X121726247Y-49506666D01*
X121726247Y-49506666D02*
X121916723Y-49554285D01*
X121916723Y-49554285D02*
X122011961Y-49601904D01*
X122011961Y-49601904D02*
X122107200Y-49697142D01*
X122107200Y-49697142D02*
X122154819Y-49839999D01*
X122154819Y-49839999D02*
X122154819Y-50078094D01*
X122154819Y-48554285D02*
X122154819Y-49125713D01*
X122154819Y-48839999D02*
X121154819Y-48839999D01*
X121154819Y-48839999D02*
X121297676Y-48935237D01*
X121297676Y-48935237D02*
X121392914Y-49030475D01*
X121392914Y-49030475D02*
X121440533Y-49125713D01*
X141329580Y-89066666D02*
X141377200Y-89114285D01*
X141377200Y-89114285D02*
X141424819Y-89257142D01*
X141424819Y-89257142D02*
X141424819Y-89352380D01*
X141424819Y-89352380D02*
X141377200Y-89495237D01*
X141377200Y-89495237D02*
X141281961Y-89590475D01*
X141281961Y-89590475D02*
X141186723Y-89638094D01*
X141186723Y-89638094D02*
X140996247Y-89685713D01*
X140996247Y-89685713D02*
X140853390Y-89685713D01*
X140853390Y-89685713D02*
X140662914Y-89638094D01*
X140662914Y-89638094D02*
X140567676Y-89590475D01*
X140567676Y-89590475D02*
X140472438Y-89495237D01*
X140472438Y-89495237D02*
X140424819Y-89352380D01*
X140424819Y-89352380D02*
X140424819Y-89257142D01*
X140424819Y-89257142D02*
X140472438Y-89114285D01*
X140472438Y-89114285D02*
X140520057Y-89066666D01*
X141424819Y-88590475D02*
X141424819Y-88399999D01*
X141424819Y-88399999D02*
X141377200Y-88304761D01*
X141377200Y-88304761D02*
X141329580Y-88257142D01*
X141329580Y-88257142D02*
X141186723Y-88161904D01*
X141186723Y-88161904D02*
X140996247Y-88114285D01*
X140996247Y-88114285D02*
X140615295Y-88114285D01*
X140615295Y-88114285D02*
X140520057Y-88161904D01*
X140520057Y-88161904D02*
X140472438Y-88209523D01*
X140472438Y-88209523D02*
X140424819Y-88304761D01*
X140424819Y-88304761D02*
X140424819Y-88495237D01*
X140424819Y-88495237D02*
X140472438Y-88590475D01*
X140472438Y-88590475D02*
X140520057Y-88638094D01*
X140520057Y-88638094D02*
X140615295Y-88685713D01*
X140615295Y-88685713D02*
X140853390Y-88685713D01*
X140853390Y-88685713D02*
X140948628Y-88638094D01*
X140948628Y-88638094D02*
X140996247Y-88590475D01*
X140996247Y-88590475D02*
X141043866Y-88495237D01*
X141043866Y-88495237D02*
X141043866Y-88304761D01*
X141043866Y-88304761D02*
X140996247Y-88209523D01*
X140996247Y-88209523D02*
X140948628Y-88161904D01*
X140948628Y-88161904D02*
X140853390Y-88114285D01*
X146148704Y-77188163D02*
X146101085Y-77235783D01*
X146101085Y-77235783D02*
X145958228Y-77283402D01*
X145958228Y-77283402D02*
X145862990Y-77283402D01*
X145862990Y-77283402D02*
X145720133Y-77235783D01*
X145720133Y-77235783D02*
X145624895Y-77140544D01*
X145624895Y-77140544D02*
X145577276Y-77045306D01*
X145577276Y-77045306D02*
X145529657Y-76854830D01*
X145529657Y-76854830D02*
X145529657Y-76711973D01*
X145529657Y-76711973D02*
X145577276Y-76521497D01*
X145577276Y-76521497D02*
X145624895Y-76426259D01*
X145624895Y-76426259D02*
X145720133Y-76331021D01*
X145720133Y-76331021D02*
X145862990Y-76283402D01*
X145862990Y-76283402D02*
X145958228Y-76283402D01*
X145958228Y-76283402D02*
X146101085Y-76331021D01*
X146101085Y-76331021D02*
X146148704Y-76378640D01*
X146720133Y-76711973D02*
X146624895Y-76664354D01*
X146624895Y-76664354D02*
X146577276Y-76616735D01*
X146577276Y-76616735D02*
X146529657Y-76521497D01*
X146529657Y-76521497D02*
X146529657Y-76473878D01*
X146529657Y-76473878D02*
X146577276Y-76378640D01*
X146577276Y-76378640D02*
X146624895Y-76331021D01*
X146624895Y-76331021D02*
X146720133Y-76283402D01*
X146720133Y-76283402D02*
X146910609Y-76283402D01*
X146910609Y-76283402D02*
X147005847Y-76331021D01*
X147005847Y-76331021D02*
X147053466Y-76378640D01*
X147053466Y-76378640D02*
X147101085Y-76473878D01*
X147101085Y-76473878D02*
X147101085Y-76521497D01*
X147101085Y-76521497D02*
X147053466Y-76616735D01*
X147053466Y-76616735D02*
X147005847Y-76664354D01*
X147005847Y-76664354D02*
X146910609Y-76711973D01*
X146910609Y-76711973D02*
X146720133Y-76711973D01*
X146720133Y-76711973D02*
X146624895Y-76759592D01*
X146624895Y-76759592D02*
X146577276Y-76807211D01*
X146577276Y-76807211D02*
X146529657Y-76902449D01*
X146529657Y-76902449D02*
X146529657Y-77092925D01*
X146529657Y-77092925D02*
X146577276Y-77188163D01*
X146577276Y-77188163D02*
X146624895Y-77235783D01*
X146624895Y-77235783D02*
X146720133Y-77283402D01*
X146720133Y-77283402D02*
X146910609Y-77283402D01*
X146910609Y-77283402D02*
X147005847Y-77235783D01*
X147005847Y-77235783D02*
X147053466Y-77188163D01*
X147053466Y-77188163D02*
X147101085Y-77092925D01*
X147101085Y-77092925D02*
X147101085Y-76902449D01*
X147101085Y-76902449D02*
X147053466Y-76807211D01*
X147053466Y-76807211D02*
X147005847Y-76759592D01*
X147005847Y-76759592D02*
X146910609Y-76711973D01*
X148964114Y-71947768D02*
X148916495Y-71995388D01*
X148916495Y-71995388D02*
X148773638Y-72043007D01*
X148773638Y-72043007D02*
X148678400Y-72043007D01*
X148678400Y-72043007D02*
X148535543Y-71995388D01*
X148535543Y-71995388D02*
X148440305Y-71900149D01*
X148440305Y-71900149D02*
X148392686Y-71804911D01*
X148392686Y-71804911D02*
X148345067Y-71614435D01*
X148345067Y-71614435D02*
X148345067Y-71471578D01*
X148345067Y-71471578D02*
X148392686Y-71281102D01*
X148392686Y-71281102D02*
X148440305Y-71185864D01*
X148440305Y-71185864D02*
X148535543Y-71090626D01*
X148535543Y-71090626D02*
X148678400Y-71043007D01*
X148678400Y-71043007D02*
X148773638Y-71043007D01*
X148773638Y-71043007D02*
X148916495Y-71090626D01*
X148916495Y-71090626D02*
X148964114Y-71138245D01*
X149297448Y-71043007D02*
X149964114Y-71043007D01*
X149964114Y-71043007D02*
X149535543Y-72043007D01*
X159853333Y-76149580D02*
X159805714Y-76197200D01*
X159805714Y-76197200D02*
X159662857Y-76244819D01*
X159662857Y-76244819D02*
X159567619Y-76244819D01*
X159567619Y-76244819D02*
X159424762Y-76197200D01*
X159424762Y-76197200D02*
X159329524Y-76101961D01*
X159329524Y-76101961D02*
X159281905Y-76006723D01*
X159281905Y-76006723D02*
X159234286Y-75816247D01*
X159234286Y-75816247D02*
X159234286Y-75673390D01*
X159234286Y-75673390D02*
X159281905Y-75482914D01*
X159281905Y-75482914D02*
X159329524Y-75387676D01*
X159329524Y-75387676D02*
X159424762Y-75292438D01*
X159424762Y-75292438D02*
X159567619Y-75244819D01*
X159567619Y-75244819D02*
X159662857Y-75244819D01*
X159662857Y-75244819D02*
X159805714Y-75292438D01*
X159805714Y-75292438D02*
X159853333Y-75340057D01*
X160710476Y-75244819D02*
X160520000Y-75244819D01*
X160520000Y-75244819D02*
X160424762Y-75292438D01*
X160424762Y-75292438D02*
X160377143Y-75340057D01*
X160377143Y-75340057D02*
X160281905Y-75482914D01*
X160281905Y-75482914D02*
X160234286Y-75673390D01*
X160234286Y-75673390D02*
X160234286Y-76054342D01*
X160234286Y-76054342D02*
X160281905Y-76149580D01*
X160281905Y-76149580D02*
X160329524Y-76197200D01*
X160329524Y-76197200D02*
X160424762Y-76244819D01*
X160424762Y-76244819D02*
X160615238Y-76244819D01*
X160615238Y-76244819D02*
X160710476Y-76197200D01*
X160710476Y-76197200D02*
X160758095Y-76149580D01*
X160758095Y-76149580D02*
X160805714Y-76054342D01*
X160805714Y-76054342D02*
X160805714Y-75816247D01*
X160805714Y-75816247D02*
X160758095Y-75721009D01*
X160758095Y-75721009D02*
X160710476Y-75673390D01*
X160710476Y-75673390D02*
X160615238Y-75625771D01*
X160615238Y-75625771D02*
X160424762Y-75625771D01*
X160424762Y-75625771D02*
X160329524Y-75673390D01*
X160329524Y-75673390D02*
X160281905Y-75721009D01*
X160281905Y-75721009D02*
X160234286Y-75816247D01*
X131169580Y-86526666D02*
X131217200Y-86574285D01*
X131217200Y-86574285D02*
X131264819Y-86717142D01*
X131264819Y-86717142D02*
X131264819Y-86812380D01*
X131264819Y-86812380D02*
X131217200Y-86955237D01*
X131217200Y-86955237D02*
X131121961Y-87050475D01*
X131121961Y-87050475D02*
X131026723Y-87098094D01*
X131026723Y-87098094D02*
X130836247Y-87145713D01*
X130836247Y-87145713D02*
X130693390Y-87145713D01*
X130693390Y-87145713D02*
X130502914Y-87098094D01*
X130502914Y-87098094D02*
X130407676Y-87050475D01*
X130407676Y-87050475D02*
X130312438Y-86955237D01*
X130312438Y-86955237D02*
X130264819Y-86812380D01*
X130264819Y-86812380D02*
X130264819Y-86717142D01*
X130264819Y-86717142D02*
X130312438Y-86574285D01*
X130312438Y-86574285D02*
X130360057Y-86526666D01*
X130264819Y-85621904D02*
X130264819Y-86098094D01*
X130264819Y-86098094D02*
X130741009Y-86145713D01*
X130741009Y-86145713D02*
X130693390Y-86098094D01*
X130693390Y-86098094D02*
X130645771Y-86002856D01*
X130645771Y-86002856D02*
X130645771Y-85764761D01*
X130645771Y-85764761D02*
X130693390Y-85669523D01*
X130693390Y-85669523D02*
X130741009Y-85621904D01*
X130741009Y-85621904D02*
X130836247Y-85574285D01*
X130836247Y-85574285D02*
X131074342Y-85574285D01*
X131074342Y-85574285D02*
X131169580Y-85621904D01*
X131169580Y-85621904D02*
X131217200Y-85669523D01*
X131217200Y-85669523D02*
X131264819Y-85764761D01*
X131264819Y-85764761D02*
X131264819Y-86002856D01*
X131264819Y-86002856D02*
X131217200Y-86098094D01*
X131217200Y-86098094D02*
X131169580Y-86145713D01*
X157770796Y-92434524D02*
X157723177Y-92482144D01*
X157723177Y-92482144D02*
X157580320Y-92529763D01*
X157580320Y-92529763D02*
X157485082Y-92529763D01*
X157485082Y-92529763D02*
X157342225Y-92482144D01*
X157342225Y-92482144D02*
X157246987Y-92386905D01*
X157246987Y-92386905D02*
X157199368Y-92291667D01*
X157199368Y-92291667D02*
X157151749Y-92101191D01*
X157151749Y-92101191D02*
X157151749Y-91958334D01*
X157151749Y-91958334D02*
X157199368Y-91767858D01*
X157199368Y-91767858D02*
X157246987Y-91672620D01*
X157246987Y-91672620D02*
X157342225Y-91577382D01*
X157342225Y-91577382D02*
X157485082Y-91529763D01*
X157485082Y-91529763D02*
X157580320Y-91529763D01*
X157580320Y-91529763D02*
X157723177Y-91577382D01*
X157723177Y-91577382D02*
X157770796Y-91625001D01*
X158627939Y-91863096D02*
X158627939Y-92529763D01*
X158389844Y-91482144D02*
X158151749Y-92196429D01*
X158151749Y-92196429D02*
X158770796Y-92196429D01*
X156043333Y-86309580D02*
X155995714Y-86357200D01*
X155995714Y-86357200D02*
X155852857Y-86404819D01*
X155852857Y-86404819D02*
X155757619Y-86404819D01*
X155757619Y-86404819D02*
X155614762Y-86357200D01*
X155614762Y-86357200D02*
X155519524Y-86261961D01*
X155519524Y-86261961D02*
X155471905Y-86166723D01*
X155471905Y-86166723D02*
X155424286Y-85976247D01*
X155424286Y-85976247D02*
X155424286Y-85833390D01*
X155424286Y-85833390D02*
X155471905Y-85642914D01*
X155471905Y-85642914D02*
X155519524Y-85547676D01*
X155519524Y-85547676D02*
X155614762Y-85452438D01*
X155614762Y-85452438D02*
X155757619Y-85404819D01*
X155757619Y-85404819D02*
X155852857Y-85404819D01*
X155852857Y-85404819D02*
X155995714Y-85452438D01*
X155995714Y-85452438D02*
X156043333Y-85500057D01*
X156376667Y-85404819D02*
X156995714Y-85404819D01*
X156995714Y-85404819D02*
X156662381Y-85785771D01*
X156662381Y-85785771D02*
X156805238Y-85785771D01*
X156805238Y-85785771D02*
X156900476Y-85833390D01*
X156900476Y-85833390D02*
X156948095Y-85881009D01*
X156948095Y-85881009D02*
X156995714Y-85976247D01*
X156995714Y-85976247D02*
X156995714Y-86214342D01*
X156995714Y-86214342D02*
X156948095Y-86309580D01*
X156948095Y-86309580D02*
X156900476Y-86357200D01*
X156900476Y-86357200D02*
X156805238Y-86404819D01*
X156805238Y-86404819D02*
X156519524Y-86404819D01*
X156519524Y-86404819D02*
X156424286Y-86357200D01*
X156424286Y-86357200D02*
X156376667Y-86309580D01*
X133331652Y-78811724D02*
X133379272Y-78859343D01*
X133379272Y-78859343D02*
X133426891Y-79002200D01*
X133426891Y-79002200D02*
X133426891Y-79097438D01*
X133426891Y-79097438D02*
X133379272Y-79240295D01*
X133379272Y-79240295D02*
X133284033Y-79335533D01*
X133284033Y-79335533D02*
X133188795Y-79383152D01*
X133188795Y-79383152D02*
X132998319Y-79430771D01*
X132998319Y-79430771D02*
X132855462Y-79430771D01*
X132855462Y-79430771D02*
X132664986Y-79383152D01*
X132664986Y-79383152D02*
X132569748Y-79335533D01*
X132569748Y-79335533D02*
X132474510Y-79240295D01*
X132474510Y-79240295D02*
X132426891Y-79097438D01*
X132426891Y-79097438D02*
X132426891Y-79002200D01*
X132426891Y-79002200D02*
X132474510Y-78859343D01*
X132474510Y-78859343D02*
X132522129Y-78811724D01*
X132522129Y-78430771D02*
X132474510Y-78383152D01*
X132474510Y-78383152D02*
X132426891Y-78287914D01*
X132426891Y-78287914D02*
X132426891Y-78049819D01*
X132426891Y-78049819D02*
X132474510Y-77954581D01*
X132474510Y-77954581D02*
X132522129Y-77906962D01*
X132522129Y-77906962D02*
X132617367Y-77859343D01*
X132617367Y-77859343D02*
X132712605Y-77859343D01*
X132712605Y-77859343D02*
X132855462Y-77906962D01*
X132855462Y-77906962D02*
X133426891Y-78478390D01*
X133426891Y-78478390D02*
X133426891Y-77859343D01*
X146269342Y-80285690D02*
X146221723Y-80333310D01*
X146221723Y-80333310D02*
X146078866Y-80380929D01*
X146078866Y-80380929D02*
X145983628Y-80380929D01*
X145983628Y-80380929D02*
X145840771Y-80333310D01*
X145840771Y-80333310D02*
X145745533Y-80238071D01*
X145745533Y-80238071D02*
X145697914Y-80142833D01*
X145697914Y-80142833D02*
X145650295Y-79952357D01*
X145650295Y-79952357D02*
X145650295Y-79809500D01*
X145650295Y-79809500D02*
X145697914Y-79619024D01*
X145697914Y-79619024D02*
X145745533Y-79523786D01*
X145745533Y-79523786D02*
X145840771Y-79428548D01*
X145840771Y-79428548D02*
X145983628Y-79380929D01*
X145983628Y-79380929D02*
X146078866Y-79380929D01*
X146078866Y-79380929D02*
X146221723Y-79428548D01*
X146221723Y-79428548D02*
X146269342Y-79476167D01*
X147221723Y-80380929D02*
X146650295Y-80380929D01*
X146936009Y-80380929D02*
X146936009Y-79380929D01*
X146936009Y-79380929D02*
X146840771Y-79523786D01*
X146840771Y-79523786D02*
X146745533Y-79619024D01*
X146745533Y-79619024D02*
X146650295Y-79666643D01*
D11*
%TO.C,uart*%
X149870000Y-102930000D02*
X157550000Y-102930000D01*
X147270000Y-102930000D02*
X147270000Y-101600000D01*
X149870000Y-102930000D02*
X149870000Y-100270000D01*
X157550000Y-102930000D02*
X157550000Y-100270000D01*
X148600000Y-102930000D02*
X147270000Y-102930000D01*
X149870000Y-100270000D02*
X157550000Y-100270000D01*
%TO.C,I2C*%
X161280000Y-64710000D02*
X153600000Y-64710000D01*
X163880000Y-64710000D02*
X163880000Y-66040000D01*
X161280000Y-64710000D02*
X161280000Y-67370000D01*
X153600000Y-64710000D02*
X153600000Y-67370000D01*
X162550000Y-64710000D02*
X163880000Y-64710000D01*
X161280000Y-67370000D02*
X153600000Y-67370000D01*
%TO.C,usb*%
X193100000Y-82550000D02*
X192840000Y-82550000D01*
X192840000Y-74930000D02*
X193100000Y-74930000D01*
X188790000Y-82550000D02*
X188790000Y-82170000D01*
X188790000Y-74930000D02*
X190560000Y-74930000D01*
X190560000Y-82550000D02*
X188790000Y-82550000D01*
X188790000Y-74930000D02*
X188790000Y-75310000D01*
%TO.C,Serial*%
X121980000Y-83810000D02*
X121980000Y-76130000D01*
X121980000Y-86410000D02*
X120650000Y-86410000D01*
X121980000Y-83810000D02*
X119320000Y-83810000D01*
X121980000Y-76130000D02*
X119320000Y-76130000D01*
X121980000Y-85080000D02*
X121980000Y-86410000D01*
X119320000Y-83810000D02*
X119320000Y-76130000D01*
%TO.C,R3*%
X42820000Y-24857064D02*
X42820000Y-23402936D01*
X41000000Y-24857064D02*
X41000000Y-23402936D01*
%TO.C,C16*%
X158015000Y-50538748D02*
X158015000Y-51061252D01*
X159485000Y-50538748D02*
X159485000Y-51061252D01*
%TO.C,C11*%
X139165000Y-79001252D02*
X139165000Y-78478748D01*
X137695000Y-79001252D02*
X137695000Y-78478748D01*
%TO.C,C10*%
X145515000Y-86621252D02*
X145515000Y-86098748D01*
X144045000Y-86621252D02*
X144045000Y-86098748D01*
%TO.C,J12*%
X35990000Y-19005000D02*
X35990000Y-20335000D01*
X24790000Y-20660235D02*
X33420000Y-20660235D01*
X33420000Y-25775000D02*
X33830000Y-25775000D01*
X24790000Y-19005000D02*
X24790000Y-26745000D01*
X24790000Y-21368805D02*
X33420000Y-21368805D01*
X24790000Y-19833570D02*
X33420000Y-19833570D01*
X24790000Y-20778330D02*
X33420000Y-20778330D01*
X34880000Y-19005000D02*
X35990000Y-19005000D01*
X24790000Y-19479285D02*
X33420000Y-19479285D01*
X24790000Y-26745000D02*
X33420000Y-26745000D01*
X24790000Y-20896425D02*
X33420000Y-20896425D01*
X33420000Y-22515000D02*
X33830000Y-22515000D01*
X24790000Y-20305950D02*
X33420000Y-20305950D01*
X24790000Y-20542140D02*
X33420000Y-20542140D01*
X33420000Y-19005000D02*
X33420000Y-26745000D01*
X24790000Y-20187855D02*
X33420000Y-20187855D01*
X24790000Y-19715475D02*
X33420000Y-19715475D01*
X24790000Y-19243095D02*
X33420000Y-19243095D01*
X24790000Y-21486900D02*
X33420000Y-21486900D01*
X24790000Y-21605000D02*
X33420000Y-21605000D01*
X24790000Y-20424045D02*
X33420000Y-20424045D01*
X24790000Y-19125000D02*
X33420000Y-19125000D01*
X24790000Y-19951665D02*
X33420000Y-19951665D01*
X33420000Y-25055000D02*
X33830000Y-25055000D01*
X24790000Y-20069760D02*
X33420000Y-20069760D01*
X33420000Y-19975000D02*
X33770000Y-19975000D01*
X24790000Y-19361190D02*
X33420000Y-19361190D01*
X24790000Y-21132615D02*
X33420000Y-21132615D01*
X24790000Y-24145000D02*
X33420000Y-24145000D01*
X24790000Y-19005000D02*
X33420000Y-19005000D01*
X33420000Y-20695000D02*
X33770000Y-20695000D01*
X24790000Y-21250710D02*
X33420000Y-21250710D01*
X24790000Y-21014520D02*
X33420000Y-21014520D01*
X24790000Y-19597380D02*
X33420000Y-19597380D01*
X33420000Y-23235000D02*
X33830000Y-23235000D01*
%TO.C,TH1*%
X47512500Y-22622742D02*
X47512500Y-23097258D01*
X46467500Y-22622742D02*
X46467500Y-23097258D01*
%TO.C,R8*%
X174542936Y-50435000D02*
X175997064Y-50435000D01*
X174542936Y-48615000D02*
X175997064Y-48615000D01*
%TO.C,R6*%
X174542936Y-55515000D02*
X175997064Y-55515000D01*
X174542936Y-53695000D02*
X175997064Y-53695000D01*
%TO.C,R5*%
X155300000Y-95792936D02*
X155300000Y-97247064D01*
X157120000Y-95792936D02*
X157120000Y-97247064D01*
%TO.C,R4*%
X148950000Y-93532936D02*
X148950000Y-94987064D01*
X150770000Y-93532936D02*
X150770000Y-94987064D01*
%TO.C,L1*%
X127960000Y-60460000D02*
X125960000Y-60460000D01*
X127960000Y-58460000D02*
X127960000Y-60460000D01*
X127580000Y-60080000D02*
X127580000Y-58310000D01*
X127580000Y-60080000D02*
X121340000Y-60080000D01*
X127580000Y-55610000D02*
X127580000Y-53840000D01*
X127580000Y-53840000D02*
X121340000Y-53840000D01*
X121340000Y-60080000D02*
X121340000Y-58310000D01*
X121340000Y-55610000D02*
X121340000Y-53840000D01*
%TO.C,J11*%
X178700000Y-30480000D02*
G75*
G03*
X178700000Y-30480000I-1680000J0D01*
G01*
X174944999Y-31370999D02*
G75*
G03*
X174945503Y-29589808I-1425002J890999D01*
G01*
X172654000Y-31920000D02*
G75*
G03*
X173548674Y-32160098I866003J1440014D01*
G01*
X174386000Y-29040000D02*
G75*
G03*
X172630106Y-29054642I-866000J-1439998D01*
G01*
X173520000Y-32159999D02*
G75*
G03*
X174410264Y-31904720I3J1679989D01*
G01*
X172080000Y-29614000D02*
G75*
G03*
X172094642Y-31369894I1439998J-866000D01*
G01*
X171710000Y-33480000D02*
X178830000Y-33480000D01*
X178830000Y-27320000D02*
X178830000Y-35040000D01*
X171710000Y-27320000D02*
X178830000Y-27320000D01*
X175875000Y-31421000D02*
X175746000Y-31549000D01*
X171470000Y-35280000D02*
X171870000Y-35280000D01*
X178090000Y-29205000D02*
X177996000Y-29299000D01*
X176045000Y-31661000D02*
X175951000Y-31754000D01*
X171710000Y-27320000D02*
X171710000Y-35040000D01*
X171710000Y-35040000D02*
X178830000Y-35040000D01*
X178295000Y-29411000D02*
X178166000Y-29539000D01*
X171470000Y-34640000D02*
X171470000Y-35280000D01*
X171710000Y-34580000D02*
X178830000Y-34580000D01*
%TO.C,J10*%
X124000000Y-32450000D02*
G75*
G03*
X124000000Y-32450000I-1680000J0D01*
G01*
X124395001Y-31559001D02*
G75*
G03*
X124394497Y-33340192I1425002J-890999D01*
G01*
X126686000Y-31010000D02*
G75*
G03*
X125791326Y-30769902I-866003J-1440014D01*
G01*
X124954000Y-33890000D02*
G75*
G03*
X126709894Y-33875358I866000J1439998D01*
G01*
X125820000Y-30770001D02*
G75*
G03*
X124929736Y-31025280I-3J-1679989D01*
G01*
X127260000Y-33316000D02*
G75*
G03*
X127245358Y-31560106I-1439998J866000D01*
G01*
X127630000Y-29450000D02*
X120510000Y-29450000D01*
X120510000Y-35610000D02*
X120510000Y-27890000D01*
X127630000Y-35610000D02*
X120510000Y-35610000D01*
X123465000Y-31509000D02*
X123594000Y-31381000D01*
X127870000Y-27650000D02*
X127470000Y-27650000D01*
X121250000Y-33725000D02*
X121344000Y-33631000D01*
X123295000Y-31269000D02*
X123389000Y-31176000D01*
X127630000Y-35610000D02*
X127630000Y-27890000D01*
X127630000Y-27890000D02*
X120510000Y-27890000D01*
X121045000Y-33519000D02*
X121174000Y-33391000D01*
X127870000Y-28290000D02*
X127870000Y-27650000D01*
X127630000Y-28350000D02*
X120510000Y-28350000D01*
%TO.C,J7*%
X139210000Y-97805000D02*
X141870000Y-97805000D01*
X139210000Y-95205000D02*
X140540000Y-95205000D01*
X141870000Y-97805000D02*
X141870000Y-102945000D01*
X139210000Y-96535000D02*
X139210000Y-95205000D01*
X139210000Y-97805000D02*
X139210000Y-102945000D01*
X139210000Y-102945000D02*
X141870000Y-102945000D01*
%TO.C,J6*%
X134560000Y-97805000D02*
X137220000Y-97805000D01*
X134560000Y-95205000D02*
X135890000Y-95205000D01*
X137220000Y-97805000D02*
X137220000Y-102945000D01*
X134560000Y-96535000D02*
X134560000Y-95205000D01*
X134560000Y-97805000D02*
X134560000Y-102945000D01*
X134560000Y-102945000D02*
X137220000Y-102945000D01*
%TO.C,J3*%
X129910000Y-97805000D02*
X132570000Y-97805000D01*
X129910000Y-95205000D02*
X131240000Y-95205000D01*
X132570000Y-97805000D02*
X132570000Y-102945000D01*
X129910000Y-96535000D02*
X129910000Y-95205000D01*
X129910000Y-97805000D02*
X129910000Y-102945000D01*
X129910000Y-102945000D02*
X132570000Y-102945000D01*
%TO.C,J1*%
X125670000Y-97805000D02*
X128330000Y-97805000D01*
X125670000Y-95205000D02*
X127000000Y-95205000D01*
X128330000Y-97805000D02*
X128330000Y-102945000D01*
X125670000Y-96535000D02*
X125670000Y-95205000D01*
X125670000Y-97805000D02*
X125670000Y-102945000D01*
X125670000Y-102945000D02*
X128330000Y-102945000D01*
%TO.C,D6*%
X156630000Y-71460000D02*
X156630000Y-68800000D01*
X158330000Y-71460000D02*
X158330000Y-68800000D01*
X156630000Y-71460000D02*
X158330000Y-71460000D01*
%TO.C,D4*%
X160440000Y-71460000D02*
X160440000Y-68800000D01*
X162140000Y-71460000D02*
X162140000Y-68800000D01*
X160440000Y-71460000D02*
X162140000Y-71460000D01*
%TO.C,D3*%
X174410000Y-82890000D02*
X174410000Y-80230000D01*
X176110000Y-82890000D02*
X176110000Y-80230000D01*
X174410000Y-82890000D02*
X176110000Y-82890000D01*
%TO.C,D2*%
X176110000Y-75860000D02*
X176110000Y-78520000D01*
X174410000Y-75860000D02*
X174410000Y-78520000D01*
X176110000Y-75860000D02*
X174410000Y-75860000D01*
%TO.C,C15*%
X129432164Y-43900000D02*
X129647836Y-43900000D01*
X129432164Y-44620000D02*
X129647836Y-44620000D01*
%TO.C,C14*%
X129432164Y-42080000D02*
X129647836Y-42080000D01*
X129432164Y-41360000D02*
X129647836Y-41360000D01*
%TO.C,C13*%
X135487500Y-52750000D02*
X135487500Y-50400000D01*
X129731937Y-52750000D02*
X135487500Y-52750000D01*
X128667500Y-51685563D02*
X129731937Y-52750000D01*
X128667500Y-51685563D02*
X128667500Y-50400000D01*
X128667500Y-46994437D02*
X128667500Y-48280000D01*
X129731937Y-45930000D02*
X135487500Y-45930000D01*
X128667500Y-46994437D02*
X129731937Y-45930000D01*
X135487500Y-45930000D02*
X135487500Y-48280000D01*
%TO.C,C12*%
X130670000Y-30400000D02*
X130670000Y-35640000D01*
X130670000Y-30400000D02*
X145410000Y-30400000D01*
X145410000Y-30400000D02*
X145410000Y-35640000D01*
X130670000Y-35640000D02*
X145410000Y-35640000D01*
%TO.C,Y1*%
X135300000Y-84150000D02*
X135300000Y-80950000D01*
X135300000Y-80950000D02*
X131400000Y-80950000D01*
%TO.C,U3*%
X172780000Y-40910000D02*
G75*
G03*
X172780000Y-42910000I0J-1000000D01*
G01*
X172780000Y-40910000D02*
X172780000Y-39260000D01*
X154880000Y-44560000D02*
X172780000Y-44560000D01*
X154880000Y-39260000D02*
X154880000Y-44560000D01*
X172780000Y-44560000D02*
X172780000Y-42910000D01*
X172780000Y-39260000D02*
X154880000Y-39260000D01*
%TO.C,U2*%
X127290000Y-44260000D02*
X127290000Y-42460000D01*
X124170000Y-44260000D02*
X124170000Y-43460000D01*
X124170000Y-44260000D02*
X124170000Y-45060000D01*
X127290000Y-44260000D02*
X127290000Y-45060000D01*
%TO.C,U1*%
X155327500Y-77220000D02*
X155777500Y-77220000D01*
X148557500Y-84440000D02*
X148557500Y-83990000D01*
X148557500Y-77220000D02*
X148557500Y-77670000D01*
X155327500Y-84440000D02*
X155777500Y-84440000D01*
X155777500Y-84440000D02*
X155777500Y-83990000D01*
X149007500Y-77220000D02*
X148557500Y-77220000D01*
X149007500Y-84440000D02*
X148557500Y-84440000D01*
X148557500Y-77670000D02*
X147267500Y-77670000D01*
X155777500Y-77220000D02*
X155777500Y-77670000D01*
%TO.C,SW1*%
X150445000Y-70545000D02*
X148570000Y-70545000D01*
X150445000Y-69155000D02*
X150445000Y-69241724D01*
X150445000Y-70458276D02*
X150445000Y-70545000D01*
X151815000Y-69155000D02*
X151815000Y-69850000D01*
X148570000Y-69155000D02*
X148570000Y-69455507D01*
X148570000Y-70244493D02*
X148570000Y-70545000D01*
X150445000Y-69155000D02*
X148570000Y-69155000D01*
X151130000Y-69155000D02*
X151815000Y-69155000D01*
%TO.C,R7*%
X120412742Y-45007500D02*
X120887258Y-45007500D01*
X120412742Y-46052500D02*
X120887258Y-46052500D01*
%TO.C,R2*%
X169432500Y-77232742D02*
X169432500Y-77707258D01*
X168387500Y-77232742D02*
X168387500Y-77707258D01*
%TO.C,R1*%
X154192500Y-70882742D02*
X154192500Y-71357258D01*
X153147500Y-70882742D02*
X153147500Y-71357258D01*
%TO.C,Q2*%
X184235000Y-36450000D02*
X184335000Y-36550000D01*
X178535000Y-36550000D02*
X178635000Y-36450000D01*
X178635000Y-41450000D02*
X178535000Y-41350000D01*
X184235000Y-41450000D02*
X178635000Y-41450000D01*
X178635000Y-36450000D02*
X184235000Y-36450000D01*
X185085000Y-41350000D02*
X184335000Y-41350000D01*
X184335000Y-41350000D02*
X184235000Y-41450000D01*
%TO.C,FB1*%
X144345242Y-83460000D02*
X142674758Y-83460000D01*
X144345242Y-81640000D02*
X142674758Y-81640000D01*
D12*
%TO.C,D1*%
X120700000Y-48305000D02*
G75*
G03*
X120700000Y-48305000I-50000J0D01*
G01*
D11*
%TO.C,C9*%
X142975000Y-86621252D02*
X142975000Y-86098748D01*
X141505000Y-86621252D02*
X141505000Y-86098748D01*
%TO.C,C8*%
X143771252Y-76735000D02*
X143248748Y-76735000D01*
X143771252Y-78205000D02*
X143248748Y-78205000D01*
%TO.C,C7*%
X149598748Y-72925000D02*
X150121252Y-72925000D01*
X149598748Y-74395000D02*
X150121252Y-74395000D01*
%TO.C,C6*%
X159758748Y-78205000D02*
X160281252Y-78205000D01*
X159758748Y-76735000D02*
X160281252Y-76735000D01*
%TO.C,C5*%
X131613229Y-85931847D02*
X131613229Y-86135785D01*
X132853229Y-85931847D02*
X132853229Y-86135785D01*
%TO.C,C4*%
X155948748Y-90905000D02*
X156471252Y-90905000D01*
X155948748Y-89435000D02*
X156471252Y-89435000D01*
%TO.C,C3*%
X155948748Y-88365000D02*
X156471252Y-88365000D01*
X155948748Y-86895000D02*
X156471252Y-86895000D01*
%TO.C,C2*%
X135082072Y-78747027D02*
X135082072Y-78543089D01*
X133842072Y-78747027D02*
X133842072Y-78543089D01*
%TO.C,C1*%
X143771252Y-79275000D02*
X143248748Y-79275000D01*
X143771252Y-80745000D02*
X143248748Y-80745000D01*
%TD*%
M02*
