%TF.GenerationSoftware,KiCad,Pcbnew,7.0.8*%
%TF.CreationDate,2025-04-12T00:46:53+05:30*%
%TF.ProjectId,hardware assignement,68617264-7761-4726-9520-61737369676e,rev?*%
%TF.SameCoordinates,Original*%
%TF.FileFunction,Copper,L2,Bot*%
%TF.FilePolarity,Positive*%
%FSLAX46Y46*%
G04 Gerber Fmt 4.6, Leading zero omitted, Abs format (unit mm)*
G04 Created by KiCad (PCBNEW 7.0.8) date 2025-04-12 00:46:53*
%MOMM*%
%LPD*%
G01*
G04 APERTURE LIST*
%TA.AperFunction,ComponentPad*%
%ADD10O,1.700000X1.700000*%
%TD*%
%TA.AperFunction,ComponentPad*%
%ADD11R,1.700000X1.700000*%
%TD*%
%TA.AperFunction,ComponentPad*%
%ADD12C,2.400000*%
%TD*%
%TA.AperFunction,ComponentPad*%
%ADD13R,2.400000X2.400000*%
%TD*%
%TA.AperFunction,ComponentPad*%
%ADD14C,2.000000*%
%TD*%
%TA.AperFunction,ComponentPad*%
%ADD15O,1.600000X1.600000*%
%TD*%
%TA.AperFunction,ComponentPad*%
%ADD16R,1.600000X1.600000*%
%TD*%
%TA.AperFunction,ComponentPad*%
%ADD17O,0.850000X0.850000*%
%TD*%
%TA.AperFunction,ComponentPad*%
%ADD18R,0.850000X0.850000*%
%TD*%
%TA.AperFunction,ViaPad*%
%ADD19C,0.800000*%
%TD*%
%TA.AperFunction,ViaPad*%
%ADD20C,1.000000*%
%TD*%
%TA.AperFunction,Conductor*%
%ADD21C,0.250000*%
%TD*%
%TA.AperFunction,Conductor*%
%ADD22C,0.300000*%
%TD*%
G04 APERTURE END LIST*
D10*
%TO.P,uart,4,Pin_4*%
%TO.N,GND*%
X156220000Y-101600000D03*
%TO.P,uart,3,Pin_3*%
%TO.N,Net-(J9-Pin_3)*%
X153680000Y-101600000D03*
%TO.P,uart,2,Pin_2*%
%TO.N,Net-(J9-Pin_2)*%
X151140000Y-101600000D03*
D11*
%TO.P,uart,1,Pin_1*%
%TO.N,+3.3V*%
X148600000Y-101600000D03*
%TD*%
D10*
%TO.P,I2C,4,Pin_4*%
%TO.N,GND*%
X154930000Y-66040000D03*
%TO.P,I2C,3,Pin_3*%
%TO.N,/SDA*%
X157470000Y-66040000D03*
%TO.P,I2C,2,Pin_2*%
%TO.N,/SCL*%
X160010000Y-66040000D03*
D11*
%TO.P,I2C,1,Pin_1*%
%TO.N,+3.3V*%
X162550000Y-66040000D03*
%TD*%
D10*
%TO.P,Serial,4,Pin_4*%
%TO.N,GND*%
X120650000Y-77460000D03*
%TO.P,Serial,3,Pin_3*%
%TO.N,/SWCLK*%
X120650000Y-80000000D03*
%TO.P,Serial,2,Pin_2*%
%TO.N,/SWDIO*%
X120650000Y-82540000D03*
D11*
%TO.P,Serial,1,Pin_1*%
%TO.N,+3.3VA*%
X120650000Y-85080000D03*
%TD*%
D10*
%TO.P,J12,3,Pin_3*%
%TO.N,Net-(J12-Pin_3)*%
X34880000Y-25415000D03*
%TO.P,J12,2,Pin_2*%
%TO.N,/vout*%
X34880000Y-22875000D03*
D11*
%TO.P,J12,1,Pin_1*%
%TO.N,Net-(J12-Pin_1)*%
X34880000Y-20335000D03*
%TD*%
D12*
%TO.P,J11,2,Pin_2*%
%TO.N,/screw2mos*%
X177020000Y-30480000D03*
D13*
%TO.P,J11,1,Pin_1*%
%TO.N,+36V*%
X173520000Y-30480000D03*
%TD*%
D12*
%TO.P,J10,2,Pin_2*%
%TO.N,GND*%
X122320000Y-32450000D03*
D13*
%TO.P,J10,1,Pin_1*%
%TO.N,+36V*%
X125820000Y-32450000D03*
%TD*%
D10*
%TO.P,J7,3,Pin_3*%
%TO.N,+3.3V*%
X140540000Y-101615000D03*
%TO.P,J7,2,Pin_2*%
%TO.N,Net-(J7-Pin_2)*%
X140540000Y-99075000D03*
D11*
%TO.P,J7,1,Pin_1*%
%TO.N,GND*%
X140540000Y-96535000D03*
%TD*%
D10*
%TO.P,J6,3,Pin_3*%
%TO.N,+3.3V*%
X135890000Y-101615000D03*
%TO.P,J6,2,Pin_2*%
%TO.N,Net-(J6-Pin_2)*%
X135890000Y-99075000D03*
D11*
%TO.P,J6,1,Pin_1*%
%TO.N,GND*%
X135890000Y-96535000D03*
%TD*%
D10*
%TO.P,J3,3,Pin_3*%
%TO.N,+3.3V*%
X131240000Y-101615000D03*
%TO.P,J3,2,Pin_2*%
%TO.N,Net-(J3-Pin_2)*%
X131240000Y-99075000D03*
D11*
%TO.P,J3,1,Pin_1*%
%TO.N,GND*%
X131240000Y-96535000D03*
%TD*%
D10*
%TO.P,J1,3,Pin_3*%
%TO.N,+3.3V*%
X127000000Y-101615000D03*
%TO.P,J1,2,Pin_2*%
%TO.N,Net-(J1-Pin_2)*%
X127000000Y-99075000D03*
D11*
%TO.P,J1,1,Pin_1*%
%TO.N,GND*%
X127000000Y-96535000D03*
%TD*%
D14*
%TO.P,C12,2*%
%TO.N,GND*%
X141790000Y-33020000D03*
%TO.P,C12,1*%
%TO.N,+36V*%
X134290000Y-33020000D03*
%TD*%
D15*
%TO.P,U3,14,NC*%
%TO.N,unconnected-(U3-NC-Pad14)*%
X171450000Y-45720000D03*
%TO.P,U3,13,VSS*%
%TO.N,GND*%
X168910000Y-45720000D03*
%TO.P,U3,12,LIN*%
%TO.N,PWM_pin*%
X166370000Y-45720000D03*
%TO.P,U3,11,SD*%
%TO.N,GND*%
X163830000Y-45720000D03*
%TO.P,U3,10,HIN*%
X161290000Y-45720000D03*
%TO.P,U3,9,VDD*%
%TO.N,+3.3V*%
X158750000Y-45720000D03*
%TO.P,U3,8,NC*%
%TO.N,unconnected-(U3-NC-Pad8)*%
X156210000Y-45720000D03*
%TO.P,U3,7,HO*%
%TO.N,unconnected-(U3-HO-Pad7)*%
X156210000Y-38100000D03*
%TO.P,U3,6,VB*%
%TO.N,unconnected-(U3-VB-Pad6)*%
X158750000Y-38100000D03*
%TO.P,U3,5,VS*%
%TO.N,GND*%
X161290000Y-38100000D03*
%TO.P,U3,4,NC*%
%TO.N,unconnected-(U3-NC-Pad4)*%
X163830000Y-38100000D03*
%TO.P,U3,3,VCC*%
%TO.N,+36V*%
X166370000Y-38100000D03*
%TO.P,U3,2,COM*%
%TO.N,GND*%
X168910000Y-38100000D03*
D16*
%TO.P,U3,1,LO*%
%TO.N,Net-(U3-LO)*%
X171450000Y-38100000D03*
%TD*%
D17*
%TO.P,SW1,3,C*%
%TO.N,+3.3V*%
X149130000Y-69850000D03*
%TO.P,SW1,2,B*%
%TO.N,/sw_boot0*%
X150130000Y-69850000D03*
D18*
%TO.P,SW1,1,A*%
%TO.N,GND*%
X151130000Y-69850000D03*
%TD*%
D19*
%TO.N,GND*%
X149860000Y-81280000D03*
X175260000Y-83820000D03*
X132080000Y-41910000D03*
X131992750Y-44268376D03*
X124856994Y-47491799D03*
D20*
X182880000Y-35560000D03*
X180340000Y-43180000D03*
D19*
X140970000Y-80010000D03*
X158126658Y-78762225D03*
X121920000Y-43180000D03*
D20*
X119380000Y-34290000D03*
X119380000Y-33020000D03*
X119380000Y-31750000D03*
X144780000Y-29210000D03*
X143510000Y-29210000D03*
X142240000Y-29210000D03*
X161290000Y-48260000D03*
X163830000Y-48260000D03*
X168910000Y-48260000D03*
X158750000Y-53340000D03*
X181610000Y-35560000D03*
X181610000Y-43180000D03*
D19*
X176530000Y-46990000D03*
X179070000Y-49530000D03*
X140065445Y-85549273D03*
X163830000Y-71120000D03*
X156210000Y-72390000D03*
X154940000Y-68580000D03*
X151211070Y-67900557D03*
X151083494Y-71740597D03*
X140547490Y-77625835D03*
X134620000Y-76200000D03*
X129540000Y-81280000D03*
X136515122Y-83300227D03*
X134620000Y-86360000D03*
X158750000Y-90170000D03*
X158750000Y-87630000D03*
X153670000Y-82550000D03*
X162560000Y-77470000D03*
X177800000Y-76200000D03*
X186690000Y-77470000D03*
%TO.N,+3.3V*%
X147320000Y-66040000D03*
X147320000Y-63500000D03*
X171450000Y-81280000D03*
X171450000Y-78740000D03*
X161290000Y-49530000D03*
%TO.N,PWM_pin*%
X156210000Y-60960000D03*
X152329505Y-81595897D03*
%TO.N,/SWCLK*%
X166370000Y-72390000D03*
X168910000Y-69850000D03*
%TD*%
D21*
%TO.N,PWM_pin*%
X152400000Y-64770000D02*
X156210000Y-60960000D01*
X152329505Y-81595897D02*
X152400000Y-81525402D01*
X152400000Y-81525402D02*
X152400000Y-64770000D01*
%TO.N,+3.3V*%
X147320000Y-63500000D02*
X147320000Y-66040000D01*
X171450000Y-78740000D02*
X171450000Y-81280000D01*
X162550000Y-50790000D02*
X161290000Y-49530000D01*
X162550000Y-66040000D02*
X162550000Y-50790000D01*
D22*
%TO.N,/SWCLK*%
X168910000Y-69850000D02*
X166370000Y-72390000D01*
%TD*%
%TA.AperFunction,Conductor*%
%TO.N,GND*%
G36*
X163502359Y-45481955D02*
G01*
X163444835Y-45594852D01*
X163425014Y-45720000D01*
X163444835Y-45845148D01*
X163502359Y-45958045D01*
X163514314Y-45970000D01*
X161605686Y-45970000D01*
X161617641Y-45958045D01*
X161675165Y-45845148D01*
X161694986Y-45720000D01*
X161675165Y-45594852D01*
X161617641Y-45481955D01*
X161605686Y-45470000D01*
X163514314Y-45470000D01*
X163502359Y-45481955D01*
G37*
%TD.AperFunction*%
%TA.AperFunction,Conductor*%
G36*
X191771737Y-26670598D02*
G01*
X191805041Y-26672467D01*
X191885603Y-26676992D01*
X192057691Y-26687401D01*
X192064297Y-26688160D01*
X192135907Y-26700327D01*
X192200343Y-26711277D01*
X192293462Y-26728340D01*
X192349227Y-26738560D01*
X192355198Y-26739963D01*
X192492032Y-26779384D01*
X192632850Y-26823265D01*
X192638092Y-26825164D01*
X192771420Y-26880391D01*
X192904609Y-26940334D01*
X192909147Y-26942605D01*
X192982221Y-26982991D01*
X193036422Y-27012947D01*
X193036439Y-27012956D01*
X193160935Y-27088217D01*
X193164739Y-27090711D01*
X193282726Y-27174427D01*
X193285072Y-27176176D01*
X193380416Y-27250874D01*
X193398332Y-27264910D01*
X193401409Y-27267486D01*
X193509430Y-27364018D01*
X193511957Y-27366408D01*
X193613590Y-27468041D01*
X193615980Y-27470568D01*
X193712512Y-27578589D01*
X193715088Y-27581666D01*
X193803811Y-27694912D01*
X193805571Y-27697272D01*
X193889287Y-27815259D01*
X193891781Y-27819063D01*
X193967043Y-27943560D01*
X194037393Y-28070851D01*
X194039668Y-28075398D01*
X194099609Y-28208581D01*
X194154831Y-28341899D01*
X194156744Y-28347183D01*
X194179633Y-28420634D01*
X194200631Y-28488021D01*
X194240032Y-28624790D01*
X194241440Y-28630781D01*
X194268722Y-28779656D01*
X194291835Y-28915683D01*
X194292599Y-28922330D01*
X194303012Y-29094475D01*
X194309402Y-29208263D01*
X194309500Y-29211741D01*
X194309500Y-102868258D01*
X194309402Y-102871736D01*
X194303012Y-102985524D01*
X194292599Y-103157668D01*
X194291835Y-103164315D01*
X194268722Y-103300343D01*
X194241440Y-103449217D01*
X194240032Y-103455208D01*
X194200625Y-103592001D01*
X194156744Y-103732815D01*
X194154831Y-103738099D01*
X194099609Y-103871418D01*
X194039668Y-104004600D01*
X194037394Y-104009147D01*
X193967043Y-104136439D01*
X193891781Y-104260936D01*
X193889287Y-104264739D01*
X193805571Y-104382726D01*
X193803811Y-104385086D01*
X193715088Y-104498332D01*
X193712512Y-104501409D01*
X193615980Y-104609430D01*
X193613590Y-104611957D01*
X193511957Y-104713590D01*
X193509430Y-104715980D01*
X193401409Y-104812512D01*
X193398332Y-104815088D01*
X193285086Y-104903811D01*
X193282726Y-104905571D01*
X193164739Y-104989287D01*
X193160936Y-104991781D01*
X193036439Y-105067043D01*
X192909147Y-105137394D01*
X192904600Y-105139668D01*
X192771418Y-105199609D01*
X192638099Y-105254831D01*
X192632815Y-105256744D01*
X192515231Y-105293385D01*
X192491990Y-105300627D01*
X192355208Y-105340032D01*
X192349217Y-105341440D01*
X192200343Y-105368722D01*
X192064315Y-105391835D01*
X192057668Y-105392599D01*
X191885524Y-105403012D01*
X191771736Y-105409402D01*
X191768258Y-105409500D01*
X114301742Y-105409500D01*
X114298265Y-105409402D01*
X114184475Y-105403012D01*
X114012330Y-105392599D01*
X114005683Y-105391835D01*
X113869656Y-105368722D01*
X113720781Y-105341440D01*
X113714790Y-105340032D01*
X113578021Y-105300631D01*
X113510634Y-105279633D01*
X113437183Y-105256744D01*
X113431899Y-105254831D01*
X113298581Y-105199609D01*
X113165398Y-105139668D01*
X113160851Y-105137393D01*
X113033560Y-105067043D01*
X112909063Y-104991781D01*
X112905259Y-104989287D01*
X112787272Y-104905571D01*
X112784912Y-104903811D01*
X112671666Y-104815088D01*
X112668589Y-104812512D01*
X112560568Y-104715980D01*
X112558041Y-104713590D01*
X112456408Y-104611957D01*
X112454018Y-104609430D01*
X112357486Y-104501409D01*
X112354910Y-104498332D01*
X112340874Y-104480416D01*
X112266176Y-104385072D01*
X112264427Y-104382726D01*
X112180711Y-104264739D01*
X112178217Y-104260935D01*
X112102956Y-104136439D01*
X112032605Y-104009147D01*
X112030330Y-104004600D01*
X111970390Y-103871418D01*
X111915167Y-103738099D01*
X111913265Y-103732850D01*
X111869375Y-103592001D01*
X111829963Y-103455198D01*
X111828560Y-103449227D01*
X111818340Y-103393462D01*
X111801277Y-103300343D01*
X111790327Y-103235907D01*
X111778160Y-103164297D01*
X111777401Y-103157691D01*
X111766992Y-102985603D01*
X111762626Y-102907867D01*
X111760598Y-102871736D01*
X111760500Y-102868259D01*
X111760500Y-100330000D01*
X114214341Y-100330000D01*
X114234936Y-100565403D01*
X114234938Y-100565413D01*
X114296094Y-100793655D01*
X114296096Y-100793659D01*
X114296097Y-100793663D01*
X114346031Y-100900746D01*
X114395964Y-101007828D01*
X114395965Y-101007830D01*
X114531505Y-101201402D01*
X114698597Y-101368494D01*
X114892169Y-101504034D01*
X114892171Y-101504035D01*
X115106337Y-101603903D01*
X115334592Y-101665063D01*
X115511034Y-101680500D01*
X115628966Y-101680500D01*
X115805408Y-101665063D01*
X115992248Y-101615000D01*
X125644341Y-101615000D01*
X125664936Y-101850403D01*
X125664938Y-101850413D01*
X125726094Y-102078655D01*
X125726096Y-102078659D01*
X125726097Y-102078663D01*
X125802364Y-102242217D01*
X125825965Y-102292830D01*
X125825967Y-102292834D01*
X125934281Y-102447521D01*
X125961505Y-102486401D01*
X126128599Y-102653495D01*
X126225384Y-102721265D01*
X126322165Y-102789032D01*
X126322167Y-102789033D01*
X126322170Y-102789035D01*
X126536337Y-102888903D01*
X126764592Y-102950063D01*
X126952918Y-102966539D01*
X126999999Y-102970659D01*
X127000000Y-102970659D01*
X127000001Y-102970659D01*
X127039234Y-102967226D01*
X127235408Y-102950063D01*
X127463663Y-102888903D01*
X127677830Y-102789035D01*
X127871401Y-102653495D01*
X128038495Y-102486401D01*
X128174035Y-102292830D01*
X128273903Y-102078663D01*
X128335063Y-101850408D01*
X128355659Y-101615000D01*
X129884341Y-101615000D01*
X129904936Y-101850403D01*
X129904938Y-101850413D01*
X129966094Y-102078655D01*
X129966096Y-102078659D01*
X129966097Y-102078663D01*
X130042364Y-102242217D01*
X130065965Y-102292830D01*
X130065967Y-102292834D01*
X130174281Y-102447521D01*
X130201505Y-102486401D01*
X130368599Y-102653495D01*
X130465384Y-102721265D01*
X130562165Y-102789032D01*
X130562167Y-102789033D01*
X130562170Y-102789035D01*
X130776337Y-102888903D01*
X131004592Y-102950063D01*
X131192918Y-102966539D01*
X131239999Y-102970659D01*
X131240000Y-102970659D01*
X131240001Y-102970659D01*
X131279234Y-102967226D01*
X131475408Y-102950063D01*
X131703663Y-102888903D01*
X131917830Y-102789035D01*
X132111401Y-102653495D01*
X132278495Y-102486401D01*
X132414035Y-102292830D01*
X132513903Y-102078663D01*
X132575063Y-101850408D01*
X132595659Y-101615000D01*
X134534341Y-101615000D01*
X134554936Y-101850403D01*
X134554938Y-101850413D01*
X134616094Y-102078655D01*
X134616096Y-102078659D01*
X134616097Y-102078663D01*
X134692364Y-102242217D01*
X134715965Y-102292830D01*
X134715967Y-102292834D01*
X134824281Y-102447521D01*
X134851505Y-102486401D01*
X135018599Y-102653495D01*
X135115384Y-102721265D01*
X135212165Y-102789032D01*
X135212167Y-102789033D01*
X135212170Y-102789035D01*
X135426337Y-102888903D01*
X135654592Y-102950063D01*
X135842918Y-102966539D01*
X135889999Y-102970659D01*
X135890000Y-102970659D01*
X135890001Y-102970659D01*
X135929234Y-102967226D01*
X136125408Y-102950063D01*
X136353663Y-102888903D01*
X136567830Y-102789035D01*
X136761401Y-102653495D01*
X136928495Y-102486401D01*
X137064035Y-102292830D01*
X137163903Y-102078663D01*
X137225063Y-101850408D01*
X137245659Y-101615000D01*
X139184341Y-101615000D01*
X139204936Y-101850403D01*
X139204938Y-101850413D01*
X139266094Y-102078655D01*
X139266096Y-102078659D01*
X139266097Y-102078663D01*
X139342364Y-102242217D01*
X139365965Y-102292830D01*
X139365967Y-102292834D01*
X139474281Y-102447521D01*
X139501505Y-102486401D01*
X139668599Y-102653495D01*
X139765384Y-102721265D01*
X139862165Y-102789032D01*
X139862167Y-102789033D01*
X139862170Y-102789035D01*
X140076337Y-102888903D01*
X140304592Y-102950063D01*
X140492918Y-102966539D01*
X140539999Y-102970659D01*
X140540000Y-102970659D01*
X140540001Y-102970659D01*
X140579234Y-102967226D01*
X140775408Y-102950063D01*
X141003663Y-102888903D01*
X141217830Y-102789035D01*
X141411401Y-102653495D01*
X141567026Y-102497870D01*
X147249500Y-102497870D01*
X147249501Y-102497876D01*
X147255908Y-102557483D01*
X147306202Y-102692328D01*
X147306206Y-102692335D01*
X147392452Y-102807544D01*
X147392455Y-102807547D01*
X147507664Y-102893793D01*
X147507671Y-102893797D01*
X147642517Y-102944091D01*
X147642516Y-102944091D01*
X147649444Y-102944835D01*
X147702127Y-102950500D01*
X149497872Y-102950499D01*
X149557483Y-102944091D01*
X149692331Y-102893796D01*
X149807546Y-102807546D01*
X149893796Y-102692331D01*
X149942810Y-102560916D01*
X149984681Y-102504984D01*
X150050145Y-102480566D01*
X150118418Y-102495417D01*
X150146673Y-102516569D01*
X150268599Y-102638495D01*
X150365384Y-102706265D01*
X150462165Y-102774032D01*
X150462167Y-102774033D01*
X150462170Y-102774035D01*
X150676337Y-102873903D01*
X150904592Y-102935063D01*
X151081034Y-102950500D01*
X151139999Y-102955659D01*
X151140000Y-102955659D01*
X151140001Y-102955659D01*
X151198966Y-102950500D01*
X151375408Y-102935063D01*
X151603663Y-102873903D01*
X151817830Y-102774035D01*
X152011401Y-102638495D01*
X152178495Y-102471401D01*
X152308425Y-102285842D01*
X152363002Y-102242217D01*
X152432500Y-102235023D01*
X152494855Y-102266546D01*
X152511575Y-102285842D01*
X152641500Y-102471395D01*
X152641505Y-102471401D01*
X152808599Y-102638495D01*
X152905384Y-102706265D01*
X153002165Y-102774032D01*
X153002167Y-102774033D01*
X153002170Y-102774035D01*
X153216337Y-102873903D01*
X153444592Y-102935063D01*
X153621034Y-102950500D01*
X153679999Y-102955659D01*
X153680000Y-102955659D01*
X153680001Y-102955659D01*
X153738966Y-102950500D01*
X153915408Y-102935063D01*
X154143663Y-102873903D01*
X154357830Y-102774035D01*
X154551401Y-102638495D01*
X154718495Y-102471401D01*
X154848730Y-102285405D01*
X154903307Y-102241781D01*
X154972805Y-102234587D01*
X155035160Y-102266110D01*
X155051879Y-102285405D01*
X155181890Y-102471078D01*
X155348917Y-102638105D01*
X155542421Y-102773600D01*
X155756507Y-102873429D01*
X155756516Y-102873433D01*
X155970000Y-102930634D01*
X155970000Y-102035501D01*
X156077685Y-102084680D01*
X156184237Y-102100000D01*
X156255763Y-102100000D01*
X156362315Y-102084680D01*
X156470000Y-102035501D01*
X156470000Y-102930633D01*
X156683483Y-102873433D01*
X156683492Y-102873429D01*
X156897578Y-102773600D01*
X157091082Y-102638105D01*
X157258105Y-102471082D01*
X157393600Y-102277578D01*
X157493429Y-102063492D01*
X157493432Y-102063486D01*
X157550636Y-101850000D01*
X156653686Y-101850000D01*
X156679493Y-101809844D01*
X156720000Y-101671889D01*
X156720000Y-101600000D01*
X189144341Y-101600000D01*
X189164936Y-101835403D01*
X189164938Y-101835413D01*
X189226094Y-102063655D01*
X189226096Y-102063659D01*
X189226097Y-102063663D01*
X189276031Y-102170746D01*
X189325964Y-102277828D01*
X189325965Y-102277830D01*
X189461505Y-102471402D01*
X189628597Y-102638494D01*
X189822169Y-102774034D01*
X189822171Y-102774035D01*
X190036337Y-102873903D01*
X190264592Y-102935063D01*
X190441034Y-102950500D01*
X190558966Y-102950500D01*
X190735408Y-102935063D01*
X190963663Y-102873903D01*
X191177829Y-102774035D01*
X191371401Y-102638495D01*
X191538495Y-102471401D01*
X191674035Y-102277830D01*
X191773903Y-102063663D01*
X191835063Y-101835408D01*
X191855659Y-101600000D01*
X191835063Y-101364592D01*
X191773903Y-101136337D01*
X191674035Y-100922171D01*
X191674034Y-100922169D01*
X191538494Y-100728597D01*
X191371402Y-100561505D01*
X191177830Y-100425965D01*
X191177828Y-100425964D01*
X191004200Y-100345000D01*
X190963663Y-100326097D01*
X190963659Y-100326096D01*
X190963655Y-100326094D01*
X190735413Y-100264938D01*
X190735403Y-100264936D01*
X190558966Y-100249500D01*
X190441034Y-100249500D01*
X190264596Y-100264936D01*
X190264586Y-100264938D01*
X190036344Y-100326094D01*
X190036335Y-100326098D01*
X189822171Y-100425964D01*
X189822169Y-100425965D01*
X189628597Y-100561505D01*
X189461506Y-100728597D01*
X189461501Y-100728604D01*
X189325967Y-100922165D01*
X189325965Y-100922169D01*
X189226098Y-101136335D01*
X189226094Y-101136344D01*
X189164938Y-101364586D01*
X189164936Y-101364596D01*
X189144341Y-101599999D01*
X189144341Y-101600000D01*
X156720000Y-101600000D01*
X156720000Y-101528111D01*
X156679493Y-101390156D01*
X156653686Y-101350000D01*
X157550636Y-101350000D01*
X157550635Y-101349999D01*
X157493432Y-101136513D01*
X157493429Y-101136507D01*
X157393600Y-100922422D01*
X157393599Y-100922420D01*
X157258113Y-100728926D01*
X157258108Y-100728920D01*
X157091082Y-100561894D01*
X156897578Y-100426399D01*
X156683492Y-100326570D01*
X156683486Y-100326567D01*
X156470000Y-100269364D01*
X156470000Y-101164498D01*
X156362315Y-101115320D01*
X156255763Y-101100000D01*
X156184237Y-101100000D01*
X156077685Y-101115320D01*
X155970000Y-101164498D01*
X155970000Y-100269364D01*
X155969999Y-100269364D01*
X155756513Y-100326567D01*
X155756507Y-100326570D01*
X155542422Y-100426399D01*
X155542420Y-100426400D01*
X155348926Y-100561886D01*
X155348920Y-100561891D01*
X155181891Y-100728920D01*
X155181890Y-100728922D01*
X155051880Y-100914595D01*
X154997303Y-100958219D01*
X154927804Y-100965412D01*
X154865450Y-100933890D01*
X154848730Y-100914594D01*
X154718494Y-100728597D01*
X154551402Y-100561506D01*
X154551395Y-100561501D01*
X154357834Y-100425967D01*
X154357830Y-100425965D01*
X154357828Y-100425964D01*
X154143663Y-100326097D01*
X154143659Y-100326096D01*
X154143655Y-100326094D01*
X153915413Y-100264938D01*
X153915403Y-100264936D01*
X153680001Y-100244341D01*
X153679999Y-100244341D01*
X153444596Y-100264936D01*
X153444586Y-100264938D01*
X153216344Y-100326094D01*
X153216335Y-100326098D01*
X153002171Y-100425964D01*
X153002169Y-100425965D01*
X152808597Y-100561505D01*
X152641505Y-100728597D01*
X152511575Y-100914158D01*
X152456998Y-100957783D01*
X152387500Y-100964977D01*
X152325145Y-100933454D01*
X152308425Y-100914158D01*
X152178494Y-100728597D01*
X152011402Y-100561506D01*
X152011395Y-100561501D01*
X151817834Y-100425967D01*
X151817830Y-100425965D01*
X151817828Y-100425964D01*
X151603663Y-100326097D01*
X151603659Y-100326096D01*
X151603655Y-100326094D01*
X151375413Y-100264938D01*
X151375403Y-100264936D01*
X151140001Y-100244341D01*
X151139999Y-100244341D01*
X150904596Y-100264936D01*
X150904586Y-100264938D01*
X150676344Y-100326094D01*
X150676335Y-100326098D01*
X150462171Y-100425964D01*
X150462169Y-100425965D01*
X150268600Y-100561503D01*
X150146673Y-100683430D01*
X150085350Y-100716914D01*
X150015658Y-100711930D01*
X149959725Y-100670058D01*
X149942810Y-100639081D01*
X149893797Y-100507671D01*
X149893793Y-100507664D01*
X149807547Y-100392455D01*
X149807544Y-100392452D01*
X149692335Y-100306206D01*
X149692328Y-100306202D01*
X149557482Y-100255908D01*
X149557483Y-100255908D01*
X149497883Y-100249501D01*
X149497881Y-100249500D01*
X149497873Y-100249500D01*
X149497864Y-100249500D01*
X147702129Y-100249500D01*
X147702123Y-100249501D01*
X147642516Y-100255908D01*
X147507671Y-100306202D01*
X147507664Y-100306206D01*
X147392455Y-100392452D01*
X147392452Y-100392455D01*
X147306206Y-100507664D01*
X147306202Y-100507671D01*
X147255908Y-100642517D01*
X147249501Y-100702116D01*
X147249500Y-100702135D01*
X147249500Y-102497870D01*
X141567026Y-102497870D01*
X141578495Y-102486401D01*
X141714035Y-102292830D01*
X141813903Y-102078663D01*
X141875063Y-101850408D01*
X141895659Y-101615000D01*
X141875063Y-101379592D01*
X141813903Y-101151337D01*
X141714035Y-100937171D01*
X141711433Y-100933454D01*
X141578494Y-100743597D01*
X141411402Y-100576506D01*
X141411396Y-100576501D01*
X141225842Y-100446575D01*
X141182217Y-100391998D01*
X141175023Y-100322500D01*
X141206546Y-100260145D01*
X141225842Y-100243425D01*
X141248026Y-100227891D01*
X141411401Y-100113495D01*
X141578495Y-99946401D01*
X141714035Y-99752830D01*
X141813903Y-99538663D01*
X141875063Y-99310408D01*
X141895659Y-99075000D01*
X141875063Y-98839592D01*
X141813903Y-98611337D01*
X141714035Y-98397171D01*
X141578495Y-98203599D01*
X141456179Y-98081283D01*
X141422696Y-98019963D01*
X141427680Y-97950271D01*
X141469551Y-97894337D01*
X141500529Y-97877422D01*
X141632086Y-97828354D01*
X141632093Y-97828350D01*
X141747187Y-97742190D01*
X141747190Y-97742187D01*
X141833350Y-97627093D01*
X141833354Y-97627086D01*
X141883596Y-97492379D01*
X141883598Y-97492372D01*
X141889999Y-97432844D01*
X141890000Y-97432827D01*
X141890000Y-96785000D01*
X140973686Y-96785000D01*
X140999493Y-96744844D01*
X141040000Y-96606889D01*
X141040000Y-96463111D01*
X140999493Y-96325156D01*
X140973686Y-96285000D01*
X141890000Y-96285000D01*
X141890000Y-95637172D01*
X141889999Y-95637155D01*
X141883598Y-95577627D01*
X141883596Y-95577620D01*
X141833354Y-95442913D01*
X141833350Y-95442906D01*
X141747190Y-95327812D01*
X141747187Y-95327809D01*
X141632093Y-95241649D01*
X141632086Y-95241645D01*
X141497379Y-95191403D01*
X141497372Y-95191401D01*
X141437844Y-95185000D01*
X140790000Y-95185000D01*
X140790000Y-96099498D01*
X140682315Y-96050320D01*
X140575763Y-96035000D01*
X140504237Y-96035000D01*
X140397685Y-96050320D01*
X140290000Y-96099498D01*
X140290000Y-95185000D01*
X139642155Y-95185000D01*
X139582627Y-95191401D01*
X139582620Y-95191403D01*
X139447913Y-95241645D01*
X139447906Y-95241649D01*
X139332812Y-95327809D01*
X139332809Y-95327812D01*
X139246649Y-95442906D01*
X139246645Y-95442913D01*
X139196403Y-95577620D01*
X139196401Y-95577627D01*
X139190000Y-95637155D01*
X139190000Y-96285000D01*
X140106314Y-96285000D01*
X140080507Y-96325156D01*
X140040000Y-96463111D01*
X140040000Y-96606889D01*
X140080507Y-96744844D01*
X140106314Y-96785000D01*
X139190000Y-96785000D01*
X139190000Y-97432844D01*
X139196401Y-97492372D01*
X139196403Y-97492379D01*
X139246645Y-97627086D01*
X139246649Y-97627093D01*
X139332809Y-97742187D01*
X139332812Y-97742190D01*
X139447906Y-97828350D01*
X139447913Y-97828354D01*
X139579470Y-97877421D01*
X139635403Y-97919292D01*
X139659821Y-97984756D01*
X139644970Y-98053029D01*
X139623819Y-98081284D01*
X139501503Y-98203600D01*
X139365965Y-98397169D01*
X139365964Y-98397171D01*
X139266098Y-98611335D01*
X139266094Y-98611344D01*
X139204938Y-98839586D01*
X139204936Y-98839596D01*
X139184341Y-99074999D01*
X139184341Y-99075000D01*
X139204936Y-99310403D01*
X139204938Y-99310413D01*
X139266094Y-99538655D01*
X139266096Y-99538659D01*
X139266097Y-99538663D01*
X139319027Y-99652171D01*
X139365965Y-99752830D01*
X139365967Y-99752834D01*
X139501501Y-99946395D01*
X139501506Y-99946402D01*
X139668597Y-100113493D01*
X139668603Y-100113498D01*
X139854158Y-100243425D01*
X139897783Y-100298002D01*
X139904977Y-100367500D01*
X139873454Y-100429855D01*
X139854158Y-100446575D01*
X139668597Y-100576505D01*
X139501505Y-100743597D01*
X139365965Y-100937169D01*
X139365964Y-100937171D01*
X139266098Y-101151335D01*
X139266094Y-101151344D01*
X139204938Y-101379586D01*
X139204936Y-101379596D01*
X139184341Y-101614999D01*
X139184341Y-101615000D01*
X137245659Y-101615000D01*
X137225063Y-101379592D01*
X137163903Y-101151337D01*
X137064035Y-100937171D01*
X137061433Y-100933454D01*
X136928494Y-100743597D01*
X136761402Y-100576506D01*
X136761396Y-100576501D01*
X136575842Y-100446575D01*
X136532217Y-100391998D01*
X136525023Y-100322500D01*
X136556546Y-100260145D01*
X136575842Y-100243425D01*
X136598026Y-100227891D01*
X136761401Y-100113495D01*
X136928495Y-99946401D01*
X137064035Y-99752830D01*
X137163903Y-99538663D01*
X137225063Y-99310408D01*
X137245659Y-99075000D01*
X137225063Y-98839592D01*
X137163903Y-98611337D01*
X137064035Y-98397171D01*
X136928495Y-98203599D01*
X136806179Y-98081283D01*
X136772696Y-98019963D01*
X136777680Y-97950271D01*
X136819551Y-97894337D01*
X136850529Y-97877422D01*
X136982086Y-97828354D01*
X136982093Y-97828350D01*
X137097187Y-97742190D01*
X137097190Y-97742187D01*
X137183350Y-97627093D01*
X137183354Y-97627086D01*
X137233596Y-97492379D01*
X137233598Y-97492372D01*
X137239999Y-97432844D01*
X137240000Y-97432827D01*
X137240000Y-96785000D01*
X136323686Y-96785000D01*
X136349493Y-96744844D01*
X136390000Y-96606889D01*
X136390000Y-96463111D01*
X136349493Y-96325156D01*
X136323686Y-96285000D01*
X137240000Y-96285000D01*
X137240000Y-95637172D01*
X137239999Y-95637155D01*
X137233598Y-95577627D01*
X137233596Y-95577620D01*
X137183354Y-95442913D01*
X137183350Y-95442906D01*
X137097190Y-95327812D01*
X137097187Y-95327809D01*
X136982093Y-95241649D01*
X136982086Y-95241645D01*
X136847379Y-95191403D01*
X136847372Y-95191401D01*
X136787844Y-95185000D01*
X136140000Y-95185000D01*
X136140000Y-96099498D01*
X136032315Y-96050320D01*
X135925763Y-96035000D01*
X135854237Y-96035000D01*
X135747685Y-96050320D01*
X135640000Y-96099498D01*
X135640000Y-95185000D01*
X134992155Y-95185000D01*
X134932627Y-95191401D01*
X134932620Y-95191403D01*
X134797913Y-95241645D01*
X134797906Y-95241649D01*
X134682812Y-95327809D01*
X134682809Y-95327812D01*
X134596649Y-95442906D01*
X134596645Y-95442913D01*
X134546403Y-95577620D01*
X134546401Y-95577627D01*
X134540000Y-95637155D01*
X134540000Y-96285000D01*
X135456314Y-96285000D01*
X135430507Y-96325156D01*
X135390000Y-96463111D01*
X135390000Y-96606889D01*
X135430507Y-96744844D01*
X135456314Y-96785000D01*
X134540000Y-96785000D01*
X134540000Y-97432844D01*
X134546401Y-97492372D01*
X134546403Y-97492379D01*
X134596645Y-97627086D01*
X134596649Y-97627093D01*
X134682809Y-97742187D01*
X134682812Y-97742190D01*
X134797906Y-97828350D01*
X134797913Y-97828354D01*
X134929470Y-97877421D01*
X134985403Y-97919292D01*
X135009821Y-97984756D01*
X134994970Y-98053029D01*
X134973819Y-98081284D01*
X134851503Y-98203600D01*
X134715965Y-98397169D01*
X134715964Y-98397171D01*
X134616098Y-98611335D01*
X134616094Y-98611344D01*
X134554938Y-98839586D01*
X134554936Y-98839596D01*
X134534341Y-99074999D01*
X134534341Y-99075000D01*
X134554936Y-99310403D01*
X134554938Y-99310413D01*
X134616094Y-99538655D01*
X134616096Y-99538659D01*
X134616097Y-99538663D01*
X134669027Y-99652171D01*
X134715965Y-99752830D01*
X134715967Y-99752834D01*
X134851501Y-99946395D01*
X134851506Y-99946402D01*
X135018597Y-100113493D01*
X135018603Y-100113498D01*
X135204158Y-100243425D01*
X135247783Y-100298002D01*
X135254977Y-100367500D01*
X135223454Y-100429855D01*
X135204158Y-100446575D01*
X135018597Y-100576505D01*
X134851505Y-100743597D01*
X134715965Y-100937169D01*
X134715964Y-100937171D01*
X134616098Y-101151335D01*
X134616094Y-101151344D01*
X134554938Y-101379586D01*
X134554936Y-101379596D01*
X134534341Y-101614999D01*
X134534341Y-101615000D01*
X132595659Y-101615000D01*
X132575063Y-101379592D01*
X132513903Y-101151337D01*
X132414035Y-100937171D01*
X132411433Y-100933454D01*
X132278494Y-100743597D01*
X132111402Y-100576506D01*
X132111396Y-100576501D01*
X131925842Y-100446575D01*
X131882217Y-100391998D01*
X131875023Y-100322500D01*
X131906546Y-100260145D01*
X131925842Y-100243425D01*
X131948026Y-100227891D01*
X132111401Y-100113495D01*
X132278495Y-99946401D01*
X132414035Y-99752830D01*
X132513903Y-99538663D01*
X132575063Y-99310408D01*
X132595659Y-99075000D01*
X132575063Y-98839592D01*
X132513903Y-98611337D01*
X132414035Y-98397171D01*
X132278495Y-98203599D01*
X132156179Y-98081283D01*
X132122696Y-98019963D01*
X132127680Y-97950271D01*
X132169551Y-97894337D01*
X132200529Y-97877422D01*
X132332086Y-97828354D01*
X132332093Y-97828350D01*
X132447187Y-97742190D01*
X132447190Y-97742187D01*
X132533350Y-97627093D01*
X132533354Y-97627086D01*
X132583596Y-97492379D01*
X132583598Y-97492372D01*
X132589999Y-97432844D01*
X132590000Y-97432827D01*
X132590000Y-96785000D01*
X131673686Y-96785000D01*
X131699493Y-96744844D01*
X131740000Y-96606889D01*
X131740000Y-96463111D01*
X131699493Y-96325156D01*
X131673686Y-96285000D01*
X132590000Y-96285000D01*
X132590000Y-95637172D01*
X132589999Y-95637155D01*
X132583598Y-95577627D01*
X132583596Y-95577620D01*
X132533354Y-95442913D01*
X132533350Y-95442906D01*
X132447190Y-95327812D01*
X132447187Y-95327809D01*
X132332093Y-95241649D01*
X132332086Y-95241645D01*
X132197379Y-95191403D01*
X132197372Y-95191401D01*
X132137844Y-95185000D01*
X131490000Y-95185000D01*
X131490000Y-96099498D01*
X131382315Y-96050320D01*
X131275763Y-96035000D01*
X131204237Y-96035000D01*
X131097685Y-96050320D01*
X130990000Y-96099498D01*
X130990000Y-95185000D01*
X130342155Y-95185000D01*
X130282627Y-95191401D01*
X130282620Y-95191403D01*
X130147913Y-95241645D01*
X130147906Y-95241649D01*
X130032812Y-95327809D01*
X130032809Y-95327812D01*
X129946649Y-95442906D01*
X129946645Y-95442913D01*
X129896403Y-95577620D01*
X129896401Y-95577627D01*
X129890000Y-95637155D01*
X129890000Y-96285000D01*
X130806314Y-96285000D01*
X130780507Y-96325156D01*
X130740000Y-96463111D01*
X130740000Y-96606889D01*
X130780507Y-96744844D01*
X130806314Y-96785000D01*
X129890000Y-96785000D01*
X129890000Y-97432844D01*
X129896401Y-97492372D01*
X129896403Y-97492379D01*
X129946645Y-97627086D01*
X129946649Y-97627093D01*
X130032809Y-97742187D01*
X130032812Y-97742190D01*
X130147906Y-97828350D01*
X130147913Y-97828354D01*
X130279470Y-97877421D01*
X130335403Y-97919292D01*
X130359821Y-97984756D01*
X130344970Y-98053029D01*
X130323819Y-98081284D01*
X130201503Y-98203600D01*
X130065965Y-98397169D01*
X130065964Y-98397171D01*
X129966098Y-98611335D01*
X129966094Y-98611344D01*
X129904938Y-98839586D01*
X129904936Y-98839596D01*
X129884341Y-99074999D01*
X129884341Y-99075000D01*
X129904936Y-99310403D01*
X129904938Y-99310413D01*
X129966094Y-99538655D01*
X129966096Y-99538659D01*
X129966097Y-99538663D01*
X130019027Y-99652171D01*
X130065965Y-99752830D01*
X130065967Y-99752834D01*
X130201501Y-99946395D01*
X130201506Y-99946402D01*
X130368597Y-100113493D01*
X130368603Y-100113498D01*
X130554158Y-100243425D01*
X130597783Y-100298002D01*
X130604977Y-100367500D01*
X130573454Y-100429855D01*
X130554158Y-100446575D01*
X130368597Y-100576505D01*
X130201505Y-100743597D01*
X130065965Y-100937169D01*
X130065964Y-100937171D01*
X129966098Y-101151335D01*
X129966094Y-101151344D01*
X129904938Y-101379586D01*
X129904936Y-101379596D01*
X129884341Y-101614999D01*
X129884341Y-101615000D01*
X128355659Y-101615000D01*
X128335063Y-101379592D01*
X128273903Y-101151337D01*
X128174035Y-100937171D01*
X128171433Y-100933454D01*
X128038494Y-100743597D01*
X127871402Y-100576506D01*
X127871396Y-100576501D01*
X127685842Y-100446575D01*
X127642217Y-100391998D01*
X127635023Y-100322500D01*
X127666546Y-100260145D01*
X127685842Y-100243425D01*
X127708026Y-100227891D01*
X127871401Y-100113495D01*
X128038495Y-99946401D01*
X128174035Y-99752830D01*
X128273903Y-99538663D01*
X128335063Y-99310408D01*
X128355659Y-99075000D01*
X128335063Y-98839592D01*
X128273903Y-98611337D01*
X128174035Y-98397171D01*
X128038495Y-98203599D01*
X127916179Y-98081283D01*
X127882696Y-98019963D01*
X127887680Y-97950271D01*
X127929551Y-97894337D01*
X127960529Y-97877422D01*
X128092086Y-97828354D01*
X128092093Y-97828350D01*
X128207187Y-97742190D01*
X128207190Y-97742187D01*
X128293350Y-97627093D01*
X128293354Y-97627086D01*
X128343596Y-97492379D01*
X128343598Y-97492372D01*
X128349999Y-97432844D01*
X128350000Y-97432827D01*
X128350000Y-96785000D01*
X127433686Y-96785000D01*
X127459493Y-96744844D01*
X127500000Y-96606889D01*
X127500000Y-96463111D01*
X127459493Y-96325156D01*
X127433686Y-96285000D01*
X128350000Y-96285000D01*
X128350000Y-95637172D01*
X128349999Y-95637155D01*
X128343598Y-95577627D01*
X128343596Y-95577620D01*
X128293354Y-95442913D01*
X128293350Y-95442906D01*
X128207190Y-95327812D01*
X128207187Y-95327809D01*
X128092093Y-95241649D01*
X128092086Y-95241645D01*
X127957379Y-95191403D01*
X127957372Y-95191401D01*
X127897844Y-95185000D01*
X127250000Y-95185000D01*
X127250000Y-96099498D01*
X127142315Y-96050320D01*
X127035763Y-96035000D01*
X126964237Y-96035000D01*
X126857685Y-96050320D01*
X126750000Y-96099498D01*
X126750000Y-95185000D01*
X126102155Y-95185000D01*
X126042627Y-95191401D01*
X126042620Y-95191403D01*
X125907913Y-95241645D01*
X125907906Y-95241649D01*
X125792812Y-95327809D01*
X125792809Y-95327812D01*
X125706649Y-95442906D01*
X125706645Y-95442913D01*
X125656403Y-95577620D01*
X125656401Y-95577627D01*
X125650000Y-95637155D01*
X125650000Y-96285000D01*
X126566314Y-96285000D01*
X126540507Y-96325156D01*
X126500000Y-96463111D01*
X126500000Y-96606889D01*
X126540507Y-96744844D01*
X126566314Y-96785000D01*
X125650000Y-96785000D01*
X125650000Y-97432844D01*
X125656401Y-97492372D01*
X125656403Y-97492379D01*
X125706645Y-97627086D01*
X125706649Y-97627093D01*
X125792809Y-97742187D01*
X125792812Y-97742190D01*
X125907906Y-97828350D01*
X125907913Y-97828354D01*
X126039470Y-97877421D01*
X126095403Y-97919292D01*
X126119821Y-97984756D01*
X126104970Y-98053029D01*
X126083819Y-98081284D01*
X125961503Y-98203600D01*
X125825965Y-98397169D01*
X125825964Y-98397171D01*
X125726098Y-98611335D01*
X125726094Y-98611344D01*
X125664938Y-98839586D01*
X125664936Y-98839596D01*
X125644341Y-99074999D01*
X125644341Y-99075000D01*
X125664936Y-99310403D01*
X125664938Y-99310413D01*
X125726094Y-99538655D01*
X125726096Y-99538659D01*
X125726097Y-99538663D01*
X125779027Y-99652171D01*
X125825965Y-99752830D01*
X125825967Y-99752834D01*
X125961501Y-99946395D01*
X125961506Y-99946402D01*
X126128597Y-100113493D01*
X126128603Y-100113498D01*
X126314158Y-100243425D01*
X126357783Y-100298002D01*
X126364977Y-100367500D01*
X126333454Y-100429855D01*
X126314158Y-100446575D01*
X126128597Y-100576505D01*
X125961505Y-100743597D01*
X125825965Y-100937169D01*
X125825964Y-100937171D01*
X125726098Y-101151335D01*
X125726094Y-101151344D01*
X125664938Y-101379586D01*
X125664936Y-101379596D01*
X125644341Y-101614999D01*
X125644341Y-101615000D01*
X115992248Y-101615000D01*
X116033663Y-101603903D01*
X116247829Y-101504035D01*
X116441401Y-101368495D01*
X116608495Y-101201401D01*
X116744035Y-101007830D01*
X116843903Y-100793663D01*
X116905063Y-100565408D01*
X116925659Y-100330000D01*
X116922859Y-100298002D01*
X116919967Y-100264937D01*
X116905063Y-100094592D01*
X116843903Y-99866337D01*
X116744035Y-99652171D01*
X116744034Y-99652169D01*
X116608494Y-99458597D01*
X116441402Y-99291505D01*
X116247830Y-99155965D01*
X116247828Y-99155964D01*
X116074200Y-99075000D01*
X116033663Y-99056097D01*
X116033659Y-99056096D01*
X116033655Y-99056094D01*
X115805413Y-98994938D01*
X115805403Y-98994936D01*
X115628966Y-98979500D01*
X115511034Y-98979500D01*
X115334596Y-98994936D01*
X115334586Y-98994938D01*
X115106344Y-99056094D01*
X115106335Y-99056098D01*
X114892171Y-99155964D01*
X114892169Y-99155965D01*
X114698597Y-99291505D01*
X114531506Y-99458597D01*
X114531501Y-99458604D01*
X114395967Y-99652165D01*
X114395965Y-99652169D01*
X114296098Y-99866335D01*
X114296094Y-99866344D01*
X114234938Y-100094586D01*
X114234936Y-100094596D01*
X114214341Y-100329999D01*
X114214341Y-100330000D01*
X111760500Y-100330000D01*
X111760500Y-82540000D01*
X119294341Y-82540000D01*
X119314936Y-82775403D01*
X119314938Y-82775413D01*
X119376094Y-83003655D01*
X119376096Y-83003659D01*
X119376097Y-83003663D01*
X119475965Y-83217830D01*
X119475967Y-83217834D01*
X119584281Y-83372521D01*
X119611501Y-83411396D01*
X119611506Y-83411402D01*
X119733430Y-83533326D01*
X119766915Y-83594649D01*
X119761931Y-83664341D01*
X119720059Y-83720274D01*
X119689083Y-83737189D01*
X119557669Y-83786203D01*
X119557664Y-83786206D01*
X119442455Y-83872452D01*
X119442452Y-83872455D01*
X119356206Y-83987664D01*
X119356202Y-83987671D01*
X119305908Y-84122517D01*
X119299501Y-84182116D01*
X119299501Y-84182123D01*
X119299500Y-84182135D01*
X119299500Y-85977870D01*
X119299501Y-85977876D01*
X119305908Y-86037483D01*
X119356202Y-86172328D01*
X119356206Y-86172335D01*
X119442452Y-86287544D01*
X119442455Y-86287547D01*
X119557664Y-86373793D01*
X119557671Y-86373797D01*
X119692517Y-86424091D01*
X119692516Y-86424091D01*
X119699444Y-86424835D01*
X119752127Y-86430500D01*
X121547872Y-86430499D01*
X121607483Y-86424091D01*
X121742331Y-86373796D01*
X121857546Y-86287546D01*
X121943796Y-86172331D01*
X121994091Y-86037483D01*
X122000500Y-85977873D01*
X122000499Y-84182128D01*
X121994091Y-84122517D01*
X121943796Y-83987669D01*
X121943795Y-83987668D01*
X121943793Y-83987664D01*
X121857547Y-83872455D01*
X121857544Y-83872452D01*
X121742335Y-83786206D01*
X121742328Y-83786202D01*
X121610917Y-83737189D01*
X121554983Y-83695318D01*
X121530566Y-83629853D01*
X121545418Y-83561580D01*
X121566563Y-83533332D01*
X121688495Y-83411401D01*
X121824035Y-83217830D01*
X121923903Y-83003663D01*
X121985063Y-82775408D01*
X122005659Y-82540000D01*
X121985063Y-82304592D01*
X121923903Y-82076337D01*
X121824035Y-81862171D01*
X121789057Y-81812216D01*
X121688494Y-81668597D01*
X121521402Y-81501506D01*
X121521396Y-81501501D01*
X121335842Y-81371575D01*
X121292217Y-81316998D01*
X121285023Y-81247500D01*
X121316546Y-81185145D01*
X121335842Y-81168425D01*
X121358026Y-81152891D01*
X121521401Y-81038495D01*
X121688495Y-80871401D01*
X121824035Y-80677830D01*
X121923903Y-80463663D01*
X121985063Y-80235408D01*
X122005659Y-80000000D01*
X121985063Y-79764592D01*
X121923903Y-79536337D01*
X121824035Y-79322171D01*
X121789057Y-79272216D01*
X121688494Y-79128597D01*
X121521402Y-78961506D01*
X121521401Y-78961505D01*
X121335405Y-78831269D01*
X121291781Y-78776692D01*
X121284588Y-78707193D01*
X121316110Y-78644839D01*
X121335405Y-78628119D01*
X121521082Y-78498105D01*
X121688105Y-78331082D01*
X121823600Y-78137578D01*
X121923429Y-77923492D01*
X121923432Y-77923486D01*
X121980636Y-77710000D01*
X121083686Y-77710000D01*
X121109493Y-77669844D01*
X121150000Y-77531889D01*
X121150000Y-77388111D01*
X121109493Y-77250156D01*
X121083686Y-77210000D01*
X121980636Y-77210000D01*
X121980635Y-77209999D01*
X121923432Y-76996513D01*
X121923429Y-76996507D01*
X121823600Y-76782422D01*
X121823599Y-76782420D01*
X121688113Y-76588926D01*
X121688108Y-76588920D01*
X121521082Y-76421894D01*
X121327578Y-76286399D01*
X121113492Y-76186570D01*
X121113486Y-76186567D01*
X120900000Y-76129364D01*
X120900000Y-77024498D01*
X120792315Y-76975320D01*
X120685763Y-76960000D01*
X120614237Y-76960000D01*
X120507685Y-76975320D01*
X120400000Y-77024498D01*
X120400000Y-76129364D01*
X120399999Y-76129364D01*
X120186513Y-76186567D01*
X120186507Y-76186570D01*
X119972422Y-76286399D01*
X119972420Y-76286400D01*
X119778926Y-76421886D01*
X119778920Y-76421891D01*
X119611891Y-76588920D01*
X119611886Y-76588926D01*
X119476400Y-76782420D01*
X119476399Y-76782422D01*
X119376570Y-76996507D01*
X119376567Y-76996513D01*
X119319364Y-77209999D01*
X119319364Y-77210000D01*
X120216314Y-77210000D01*
X120190507Y-77250156D01*
X120150000Y-77388111D01*
X120150000Y-77531889D01*
X120190507Y-77669844D01*
X120216314Y-77710000D01*
X119319364Y-77710000D01*
X119376567Y-77923486D01*
X119376570Y-77923492D01*
X119476399Y-78137578D01*
X119611894Y-78331082D01*
X119778917Y-78498105D01*
X119964595Y-78628119D01*
X120008219Y-78682696D01*
X120015412Y-78752195D01*
X119983890Y-78814549D01*
X119964595Y-78831269D01*
X119778594Y-78961508D01*
X119611505Y-79128597D01*
X119475965Y-79322169D01*
X119475964Y-79322171D01*
X119376098Y-79536335D01*
X119376094Y-79536344D01*
X119314938Y-79764586D01*
X119314936Y-79764596D01*
X119294341Y-79999999D01*
X119294341Y-80000000D01*
X119314936Y-80235403D01*
X119314938Y-80235413D01*
X119376094Y-80463655D01*
X119376096Y-80463659D01*
X119376097Y-80463663D01*
X119430958Y-80581312D01*
X119475965Y-80677830D01*
X119475967Y-80677834D01*
X119611501Y-80871395D01*
X119611506Y-80871402D01*
X119778597Y-81038493D01*
X119778603Y-81038498D01*
X119964158Y-81168425D01*
X120007783Y-81223002D01*
X120014977Y-81292500D01*
X119983454Y-81354855D01*
X119964158Y-81371575D01*
X119778597Y-81501505D01*
X119611505Y-81668597D01*
X119475965Y-81862169D01*
X119475964Y-81862171D01*
X119376098Y-82076335D01*
X119376094Y-82076344D01*
X119314938Y-82304586D01*
X119314936Y-82304596D01*
X119294341Y-82539999D01*
X119294341Y-82540000D01*
X111760500Y-82540000D01*
X111760500Y-69850000D01*
X148199402Y-69850000D01*
X148219738Y-70043483D01*
X148279856Y-70228510D01*
X148279857Y-70228511D01*
X148360159Y-70367597D01*
X148377130Y-70396992D01*
X148411523Y-70435189D01*
X148507302Y-70541564D01*
X148507305Y-70541566D01*
X148507308Y-70541569D01*
X148625352Y-70627333D01*
X148664702Y-70655923D01*
X148732926Y-70686297D01*
X148842429Y-70735051D01*
X149032726Y-70775500D01*
X149227274Y-70775500D01*
X149259750Y-70768597D01*
X149417571Y-70735051D01*
X149579569Y-70662925D01*
X149648815Y-70653642D01*
X149680425Y-70662922D01*
X149842429Y-70735051D01*
X149842432Y-70735051D01*
X149842433Y-70735052D01*
X150032726Y-70775500D01*
X150227274Y-70775500D01*
X150417571Y-70735051D01*
X150417581Y-70735046D01*
X150423750Y-70733043D01*
X150424629Y-70735749D01*
X150481479Y-70728069D01*
X150506124Y-70734470D01*
X150597623Y-70768597D01*
X150597627Y-70768598D01*
X150657155Y-70774999D01*
X150657172Y-70775000D01*
X150880000Y-70775000D01*
X150880000Y-70435189D01*
X150896613Y-70373189D01*
X150980142Y-70228511D01*
X150980143Y-70228510D01*
X151026611Y-70085495D01*
X151027653Y-70082286D01*
X151032455Y-70085495D01*
X151105376Y-70100000D01*
X151154624Y-70100000D01*
X151227545Y-70085495D01*
X151310240Y-70030240D01*
X151365495Y-69947545D01*
X151380000Y-69874623D01*
X151380000Y-70775000D01*
X151602828Y-70775000D01*
X151602839Y-70774999D01*
X151637242Y-70771300D01*
X151706002Y-70783704D01*
X151757140Y-70831313D01*
X151774500Y-70894589D01*
X151774500Y-80822871D01*
X151754815Y-80889910D01*
X151728073Y-80918228D01*
X151728463Y-80918661D01*
X151723633Y-80923009D01*
X151596971Y-81063682D01*
X151502326Y-81227612D01*
X151502323Y-81227619D01*
X151443832Y-81407637D01*
X151443831Y-81407641D01*
X151424045Y-81595897D01*
X151443831Y-81784153D01*
X151443832Y-81784156D01*
X151502323Y-81964174D01*
X151502326Y-81964181D01*
X151596972Y-82128113D01*
X151644142Y-82180500D01*
X151723634Y-82268785D01*
X151876770Y-82380045D01*
X151876775Y-82380048D01*
X152049697Y-82457039D01*
X152049702Y-82457041D01*
X152234859Y-82496397D01*
X152234860Y-82496397D01*
X152424149Y-82496397D01*
X152424151Y-82496397D01*
X152609308Y-82457041D01*
X152782235Y-82380048D01*
X152935376Y-82268785D01*
X153062038Y-82128113D01*
X153156684Y-81964181D01*
X153215179Y-81784153D01*
X153234965Y-81595897D01*
X153215179Y-81407641D01*
X153173706Y-81280000D01*
X170544540Y-81280000D01*
X170564326Y-81468256D01*
X170564327Y-81468259D01*
X170622818Y-81648277D01*
X170622821Y-81648284D01*
X170717467Y-81812216D01*
X170762447Y-81862171D01*
X170844129Y-81952888D01*
X170997265Y-82064148D01*
X170997270Y-82064151D01*
X171170192Y-82141142D01*
X171170197Y-82141144D01*
X171355354Y-82180500D01*
X171355355Y-82180500D01*
X171544644Y-82180500D01*
X171544646Y-82180500D01*
X171729803Y-82141144D01*
X171902730Y-82064151D01*
X172055871Y-81952888D01*
X172182533Y-81812216D01*
X172277179Y-81648284D01*
X172335674Y-81468256D01*
X172355460Y-81280000D01*
X172335674Y-81091744D01*
X172277179Y-80911716D01*
X172182533Y-80747784D01*
X172119550Y-80677834D01*
X172107350Y-80664284D01*
X172077120Y-80601292D01*
X172075500Y-80581312D01*
X172075500Y-79438687D01*
X172095185Y-79371648D01*
X172107350Y-79355715D01*
X172125891Y-79335122D01*
X172182533Y-79272216D01*
X172277179Y-79108284D01*
X172335674Y-78928256D01*
X172355460Y-78740000D01*
X172335674Y-78551744D01*
X172277179Y-78371716D01*
X172182533Y-78207784D01*
X172055871Y-78067112D01*
X172055870Y-78067111D01*
X171902734Y-77955851D01*
X171902729Y-77955848D01*
X171729807Y-77878857D01*
X171729802Y-77878855D01*
X171584001Y-77847865D01*
X171544646Y-77839500D01*
X171355354Y-77839500D01*
X171322897Y-77846398D01*
X171170197Y-77878855D01*
X171170192Y-77878857D01*
X170997270Y-77955848D01*
X170997265Y-77955851D01*
X170844129Y-78067111D01*
X170717466Y-78207785D01*
X170622821Y-78371715D01*
X170622818Y-78371722D01*
X170581754Y-78498105D01*
X170564326Y-78551744D01*
X170544540Y-78740000D01*
X170564326Y-78928256D01*
X170564327Y-78928259D01*
X170622818Y-79108277D01*
X170622821Y-79108284D01*
X170717467Y-79272216D01*
X170760772Y-79320310D01*
X170792650Y-79355715D01*
X170822880Y-79418706D01*
X170824500Y-79438687D01*
X170824500Y-80581312D01*
X170804815Y-80648351D01*
X170792650Y-80664284D01*
X170717466Y-80747784D01*
X170622821Y-80911715D01*
X170622818Y-80911722D01*
X170573445Y-81063679D01*
X170564326Y-81091744D01*
X170544540Y-81280000D01*
X153173706Y-81280000D01*
X153156684Y-81227613D01*
X153062038Y-81063681D01*
X153057348Y-81058472D01*
X153027120Y-80995480D01*
X153025500Y-80975502D01*
X153025500Y-72390000D01*
X165464540Y-72390000D01*
X165484326Y-72578256D01*
X165484327Y-72578259D01*
X165542818Y-72758277D01*
X165542821Y-72758284D01*
X165637467Y-72922216D01*
X165764129Y-73062888D01*
X165917265Y-73174148D01*
X165917270Y-73174151D01*
X166090192Y-73251142D01*
X166090197Y-73251144D01*
X166275354Y-73290500D01*
X166275355Y-73290500D01*
X166464644Y-73290500D01*
X166464646Y-73290500D01*
X166649803Y-73251144D01*
X166822730Y-73174151D01*
X166975871Y-73062888D01*
X167102533Y-72922216D01*
X167197179Y-72758284D01*
X167255674Y-72578256D01*
X167269168Y-72449855D01*
X167295752Y-72385242D01*
X167304799Y-72375145D01*
X168893127Y-70786819D01*
X168954450Y-70753334D01*
X168980808Y-70750500D01*
X169004644Y-70750500D01*
X169004646Y-70750500D01*
X169189803Y-70711144D01*
X169362730Y-70634151D01*
X169515871Y-70522888D01*
X169642533Y-70382216D01*
X169737179Y-70218284D01*
X169795674Y-70038256D01*
X169815460Y-69850000D01*
X169795674Y-69661744D01*
X169737179Y-69481716D01*
X169642533Y-69317784D01*
X169515871Y-69177112D01*
X169515870Y-69177111D01*
X169362734Y-69065851D01*
X169362729Y-69065848D01*
X169189807Y-68988857D01*
X169189802Y-68988855D01*
X169044001Y-68957865D01*
X169004646Y-68949500D01*
X168815354Y-68949500D01*
X168782897Y-68956398D01*
X168630197Y-68988855D01*
X168630192Y-68988857D01*
X168457270Y-69065848D01*
X168457265Y-69065851D01*
X168304129Y-69177111D01*
X168177466Y-69317785D01*
X168082821Y-69481715D01*
X168082818Y-69481722D01*
X168024327Y-69661739D01*
X168024326Y-69661741D01*
X168010831Y-69790142D01*
X167984246Y-69854757D01*
X167975191Y-69864861D01*
X166386873Y-71453181D01*
X166325550Y-71486666D01*
X166299192Y-71489500D01*
X166275354Y-71489500D01*
X166242897Y-71496398D01*
X166090197Y-71528855D01*
X166090192Y-71528857D01*
X165917270Y-71605848D01*
X165917265Y-71605851D01*
X165764129Y-71717111D01*
X165637466Y-71857785D01*
X165542821Y-72021715D01*
X165542818Y-72021722D01*
X165484327Y-72201740D01*
X165484326Y-72201744D01*
X165464540Y-72390000D01*
X153025500Y-72390000D01*
X153025500Y-66290000D01*
X153599364Y-66290000D01*
X153656567Y-66503486D01*
X153656570Y-66503492D01*
X153756399Y-66717578D01*
X153891894Y-66911082D01*
X154058917Y-67078105D01*
X154252421Y-67213600D01*
X154466507Y-67313429D01*
X154466516Y-67313433D01*
X154680000Y-67370634D01*
X154680000Y-66475501D01*
X154787685Y-66524680D01*
X154894237Y-66540000D01*
X154965763Y-66540000D01*
X155072315Y-66524680D01*
X155180000Y-66475501D01*
X155180000Y-67370633D01*
X155393483Y-67313433D01*
X155393492Y-67313429D01*
X155607578Y-67213600D01*
X155801082Y-67078105D01*
X155968105Y-66911082D01*
X156098119Y-66725405D01*
X156152696Y-66681781D01*
X156222195Y-66674588D01*
X156284549Y-66706110D01*
X156301269Y-66725405D01*
X156431505Y-66911401D01*
X156598599Y-67078495D01*
X156695384Y-67146265D01*
X156792165Y-67214032D01*
X156792167Y-67214033D01*
X156792170Y-67214035D01*
X157006337Y-67313903D01*
X157234592Y-67375063D01*
X157411034Y-67390500D01*
X157469999Y-67395659D01*
X157470000Y-67395659D01*
X157470001Y-67395659D01*
X157528966Y-67390500D01*
X157705408Y-67375063D01*
X157933663Y-67313903D01*
X158147830Y-67214035D01*
X158341401Y-67078495D01*
X158508495Y-66911401D01*
X158638425Y-66725842D01*
X158693002Y-66682217D01*
X158762500Y-66675023D01*
X158824855Y-66706546D01*
X158841575Y-66725842D01*
X158971281Y-66911082D01*
X158971505Y-66911401D01*
X159138599Y-67078495D01*
X159235384Y-67146265D01*
X159332165Y-67214032D01*
X159332167Y-67214033D01*
X159332170Y-67214035D01*
X159546337Y-67313903D01*
X159774592Y-67375063D01*
X159951034Y-67390500D01*
X160009999Y-67395659D01*
X160010000Y-67395659D01*
X160010001Y-67395659D01*
X160068966Y-67390500D01*
X160245408Y-67375063D01*
X160473663Y-67313903D01*
X160687830Y-67214035D01*
X160881401Y-67078495D01*
X161003329Y-66956566D01*
X161064648Y-66923084D01*
X161134340Y-66928068D01*
X161190274Y-66969939D01*
X161207189Y-67000917D01*
X161256202Y-67132328D01*
X161256206Y-67132335D01*
X161342452Y-67247544D01*
X161342455Y-67247547D01*
X161457664Y-67333793D01*
X161457671Y-67333797D01*
X161592517Y-67384091D01*
X161592516Y-67384091D01*
X161599444Y-67384835D01*
X161652127Y-67390500D01*
X163447872Y-67390499D01*
X163507483Y-67384091D01*
X163642331Y-67333796D01*
X163757546Y-67247546D01*
X163843796Y-67132331D01*
X163894091Y-66997483D01*
X163900500Y-66937873D01*
X163900499Y-65142128D01*
X163894091Y-65082517D01*
X163892810Y-65079083D01*
X163843797Y-64947671D01*
X163843793Y-64947664D01*
X163757547Y-64832455D01*
X163757544Y-64832452D01*
X163642335Y-64746206D01*
X163642328Y-64746202D01*
X163507482Y-64695908D01*
X163507483Y-64695908D01*
X163447883Y-64689501D01*
X163447881Y-64689500D01*
X163447873Y-64689500D01*
X163447865Y-64689500D01*
X163299500Y-64689500D01*
X163232461Y-64669815D01*
X163186706Y-64617011D01*
X163175500Y-64565500D01*
X163175500Y-50872738D01*
X163177224Y-50857124D01*
X163176938Y-50857097D01*
X163177672Y-50849334D01*
X163175500Y-50780203D01*
X163175500Y-50750651D01*
X163175500Y-50750650D01*
X163174629Y-50743759D01*
X163174172Y-50737945D01*
X163172709Y-50691372D01*
X163167122Y-50672144D01*
X163163174Y-50653084D01*
X163160663Y-50633204D01*
X163143512Y-50589887D01*
X163141619Y-50584358D01*
X163128618Y-50539609D01*
X163128616Y-50539606D01*
X163118423Y-50522371D01*
X163109861Y-50504894D01*
X163102487Y-50486270D01*
X163102486Y-50486268D01*
X163075079Y-50448545D01*
X163071888Y-50443686D01*
X163048172Y-50403583D01*
X163048165Y-50403574D01*
X163034006Y-50389415D01*
X163021368Y-50374619D01*
X163009594Y-50358413D01*
X162973688Y-50328709D01*
X162969376Y-50324786D01*
X162228960Y-49584369D01*
X162195475Y-49523046D01*
X162193323Y-49509668D01*
X162175674Y-49341744D01*
X162117179Y-49161716D01*
X162022533Y-48997784D01*
X161895871Y-48857112D01*
X161895870Y-48857111D01*
X161742734Y-48745851D01*
X161742729Y-48745848D01*
X161569807Y-48668857D01*
X161569802Y-48668855D01*
X161424001Y-48637865D01*
X161384646Y-48629500D01*
X161195354Y-48629500D01*
X161162897Y-48636398D01*
X161010197Y-48668855D01*
X161010192Y-48668857D01*
X160837270Y-48745848D01*
X160837265Y-48745851D01*
X160684129Y-48857111D01*
X160557466Y-48997785D01*
X160462821Y-49161715D01*
X160462818Y-49161722D01*
X160404327Y-49341740D01*
X160404326Y-49341744D01*
X160384540Y-49530000D01*
X160404326Y-49718256D01*
X160404327Y-49718259D01*
X160462818Y-49898277D01*
X160462821Y-49898284D01*
X160557467Y-50062216D01*
X160684129Y-50202888D01*
X160837265Y-50314148D01*
X160837270Y-50314151D01*
X161010192Y-50391142D01*
X161010197Y-50391144D01*
X161195354Y-50430500D01*
X161254548Y-50430500D01*
X161321587Y-50450185D01*
X161342229Y-50466819D01*
X161888181Y-51012771D01*
X161921666Y-51074094D01*
X161924500Y-51100452D01*
X161924500Y-64565500D01*
X161904815Y-64632539D01*
X161852011Y-64678294D01*
X161800501Y-64689500D01*
X161652130Y-64689500D01*
X161652123Y-64689501D01*
X161592516Y-64695908D01*
X161457671Y-64746202D01*
X161457664Y-64746206D01*
X161342455Y-64832452D01*
X161342452Y-64832455D01*
X161256206Y-64947664D01*
X161256203Y-64947669D01*
X161207189Y-65079083D01*
X161165317Y-65135016D01*
X161099853Y-65159433D01*
X161031580Y-65144581D01*
X161003326Y-65123430D01*
X160881402Y-65001506D01*
X160881395Y-65001501D01*
X160868927Y-64992771D01*
X160804518Y-64947671D01*
X160687834Y-64865967D01*
X160687830Y-64865965D01*
X160687828Y-64865964D01*
X160473663Y-64766097D01*
X160473659Y-64766096D01*
X160473655Y-64766094D01*
X160245413Y-64704938D01*
X160245403Y-64704936D01*
X160010001Y-64684341D01*
X160009999Y-64684341D01*
X159774596Y-64704936D01*
X159774586Y-64704938D01*
X159546344Y-64766094D01*
X159546335Y-64766098D01*
X159332171Y-64865964D01*
X159332169Y-64865965D01*
X159138597Y-65001505D01*
X158971505Y-65168597D01*
X158841575Y-65354158D01*
X158786998Y-65397783D01*
X158717500Y-65404977D01*
X158655145Y-65373454D01*
X158638425Y-65354158D01*
X158508494Y-65168597D01*
X158341402Y-65001506D01*
X158341395Y-65001501D01*
X158328927Y-64992771D01*
X158264518Y-64947671D01*
X158147834Y-64865967D01*
X158147830Y-64865965D01*
X158147828Y-64865964D01*
X157933663Y-64766097D01*
X157933659Y-64766096D01*
X157933655Y-64766094D01*
X157705413Y-64704938D01*
X157705403Y-64704936D01*
X157470001Y-64684341D01*
X157469999Y-64684341D01*
X157234596Y-64704936D01*
X157234586Y-64704938D01*
X157006344Y-64766094D01*
X157006335Y-64766098D01*
X156792171Y-64865964D01*
X156792169Y-64865965D01*
X156598597Y-65001505D01*
X156431508Y-65168594D01*
X156301269Y-65354595D01*
X156246692Y-65398219D01*
X156177193Y-65405412D01*
X156114839Y-65373890D01*
X156098119Y-65354594D01*
X155968113Y-65168926D01*
X155968108Y-65168920D01*
X155801082Y-65001894D01*
X155607578Y-64866399D01*
X155393492Y-64766570D01*
X155393486Y-64766567D01*
X155180000Y-64709364D01*
X155180000Y-65604498D01*
X155072315Y-65555320D01*
X154965763Y-65540000D01*
X154894237Y-65540000D01*
X154787685Y-65555320D01*
X154680000Y-65604498D01*
X154680000Y-64709364D01*
X154679999Y-64709364D01*
X154466513Y-64766567D01*
X154466507Y-64766570D01*
X154252422Y-64866399D01*
X154252420Y-64866400D01*
X154058926Y-65001886D01*
X154058920Y-65001891D01*
X153891891Y-65168920D01*
X153891886Y-65168926D01*
X153756400Y-65362420D01*
X153756399Y-65362422D01*
X153656570Y-65576507D01*
X153656567Y-65576513D01*
X153599364Y-65789999D01*
X153599364Y-65790000D01*
X154496314Y-65790000D01*
X154470507Y-65830156D01*
X154430000Y-65968111D01*
X154430000Y-66111889D01*
X154470507Y-66249844D01*
X154496314Y-66290000D01*
X153599364Y-66290000D01*
X153025500Y-66290000D01*
X153025500Y-65080452D01*
X153045185Y-65013413D01*
X153061819Y-64992771D01*
X156157771Y-61896819D01*
X156219094Y-61863334D01*
X156245452Y-61860500D01*
X156304644Y-61860500D01*
X156304646Y-61860500D01*
X156489803Y-61821144D01*
X156662730Y-61744151D01*
X156815871Y-61632888D01*
X156942533Y-61492216D01*
X157037179Y-61328284D01*
X157095674Y-61148256D01*
X157115460Y-60960000D01*
X157095674Y-60771744D01*
X157037179Y-60591716D01*
X156942533Y-60427784D01*
X156815871Y-60287112D01*
X156815870Y-60287111D01*
X156662734Y-60175851D01*
X156662729Y-60175848D01*
X156489807Y-60098857D01*
X156489802Y-60098855D01*
X156344001Y-60067865D01*
X156304646Y-60059500D01*
X156115354Y-60059500D01*
X156082897Y-60066398D01*
X155930197Y-60098855D01*
X155930192Y-60098857D01*
X155757270Y-60175848D01*
X155757265Y-60175851D01*
X155604129Y-60287111D01*
X155477466Y-60427785D01*
X155382821Y-60591715D01*
X155382818Y-60591722D01*
X155324327Y-60771740D01*
X155324326Y-60771744D01*
X155316405Y-60847105D01*
X155306678Y-60939651D01*
X155280093Y-61004266D01*
X155271038Y-61014370D01*
X152016208Y-64269199D01*
X152003951Y-64279020D01*
X152004134Y-64279241D01*
X151998123Y-64284213D01*
X151950772Y-64334636D01*
X151929889Y-64355519D01*
X151929877Y-64355532D01*
X151925621Y-64361017D01*
X151921837Y-64365447D01*
X151889937Y-64399418D01*
X151889936Y-64399420D01*
X151880284Y-64416976D01*
X151869610Y-64433226D01*
X151857329Y-64449061D01*
X151857324Y-64449068D01*
X151838815Y-64491838D01*
X151836245Y-64497084D01*
X151813803Y-64537906D01*
X151808822Y-64557307D01*
X151802521Y-64575710D01*
X151794562Y-64594102D01*
X151794561Y-64594105D01*
X151787271Y-64640127D01*
X151786087Y-64645846D01*
X151774501Y-64690972D01*
X151774500Y-64690982D01*
X151774500Y-64711016D01*
X151772973Y-64730415D01*
X151769840Y-64750194D01*
X151769840Y-64750195D01*
X151774225Y-64796583D01*
X151774500Y-64802421D01*
X151774500Y-68805410D01*
X151754815Y-68872449D01*
X151702011Y-68918204D01*
X151637246Y-68928700D01*
X151602830Y-68925000D01*
X151380000Y-68925000D01*
X151380000Y-69825376D01*
X151365495Y-69752455D01*
X151310240Y-69669760D01*
X151227545Y-69614505D01*
X151154624Y-69600000D01*
X151105376Y-69600000D01*
X151032455Y-69614505D01*
X151027653Y-69617713D01*
X150980144Y-69471492D01*
X150980143Y-69471491D01*
X150980143Y-69471489D01*
X150980142Y-69471488D01*
X150896613Y-69326811D01*
X150880000Y-69264811D01*
X150880000Y-68925000D01*
X150657155Y-68925000D01*
X150597627Y-68931401D01*
X150597620Y-68931403D01*
X150506124Y-68965529D01*
X150436432Y-68970513D01*
X150423925Y-68966420D01*
X150423751Y-68966957D01*
X150417569Y-68964948D01*
X150227274Y-68924500D01*
X150032726Y-68924500D01*
X149842430Y-68964948D01*
X149842427Y-68964949D01*
X149680434Y-69037072D01*
X149611184Y-69046356D01*
X149579566Y-69037072D01*
X149417572Y-68964949D01*
X149417569Y-68964948D01*
X149227274Y-68924500D01*
X149032726Y-68924500D01*
X148842431Y-68964948D01*
X148664702Y-69044076D01*
X148507305Y-69158433D01*
X148507302Y-69158435D01*
X148377129Y-69303009D01*
X148279857Y-69471488D01*
X148279856Y-69471489D01*
X148219738Y-69656516D01*
X148199402Y-69850000D01*
X111760500Y-69850000D01*
X111760500Y-66040000D01*
X146414540Y-66040000D01*
X146434326Y-66228256D01*
X146434327Y-66228259D01*
X146492818Y-66408277D01*
X146492821Y-66408284D01*
X146587467Y-66572216D01*
X146680035Y-66675023D01*
X146714129Y-66712888D01*
X146867265Y-66824148D01*
X146867270Y-66824151D01*
X147040192Y-66901142D01*
X147040197Y-66901144D01*
X147225354Y-66940500D01*
X147225355Y-66940500D01*
X147414644Y-66940500D01*
X147414646Y-66940500D01*
X147599803Y-66901144D01*
X147772730Y-66824151D01*
X147925871Y-66712888D01*
X148052533Y-66572216D01*
X148147179Y-66408284D01*
X148205674Y-66228256D01*
X148225460Y-66040000D01*
X148205674Y-65851744D01*
X148147179Y-65671716D01*
X148052533Y-65507784D01*
X147977350Y-65424284D01*
X147947120Y-65361292D01*
X147945500Y-65341312D01*
X147945500Y-64198687D01*
X147965185Y-64131648D01*
X147977350Y-64115715D01*
X147995891Y-64095122D01*
X148052533Y-64032216D01*
X148147179Y-63868284D01*
X148205674Y-63688256D01*
X148225460Y-63500000D01*
X148205674Y-63311744D01*
X148147179Y-63131716D01*
X148052533Y-62967784D01*
X147925871Y-62827112D01*
X147925870Y-62827111D01*
X147772734Y-62715851D01*
X147772729Y-62715848D01*
X147599807Y-62638857D01*
X147599802Y-62638855D01*
X147454001Y-62607865D01*
X147414646Y-62599500D01*
X147225354Y-62599500D01*
X147192897Y-62606398D01*
X147040197Y-62638855D01*
X147040192Y-62638857D01*
X146867270Y-62715848D01*
X146867265Y-62715851D01*
X146714129Y-62827111D01*
X146587466Y-62967785D01*
X146492821Y-63131715D01*
X146492818Y-63131722D01*
X146434327Y-63311740D01*
X146434326Y-63311744D01*
X146414540Y-63500000D01*
X146434326Y-63688256D01*
X146434327Y-63688259D01*
X146492818Y-63868277D01*
X146492821Y-63868284D01*
X146587467Y-64032216D01*
X146630772Y-64080310D01*
X146662650Y-64115715D01*
X146692880Y-64178706D01*
X146694500Y-64198687D01*
X146694500Y-65341312D01*
X146674815Y-65408351D01*
X146662650Y-65424284D01*
X146587466Y-65507784D01*
X146492821Y-65671715D01*
X146492818Y-65671722D01*
X146441340Y-65830156D01*
X146434326Y-65851744D01*
X146414540Y-66040000D01*
X111760500Y-66040000D01*
X111760500Y-45720001D01*
X154904532Y-45720001D01*
X154924364Y-45946686D01*
X154924366Y-45946697D01*
X154983258Y-46166488D01*
X154983261Y-46166497D01*
X155079431Y-46372732D01*
X155079432Y-46372734D01*
X155209954Y-46559141D01*
X155370858Y-46720045D01*
X155370861Y-46720047D01*
X155557266Y-46850568D01*
X155763504Y-46946739D01*
X155983308Y-47005635D01*
X156145230Y-47019801D01*
X156209998Y-47025468D01*
X156210000Y-47025468D01*
X156210002Y-47025468D01*
X156266673Y-47020509D01*
X156436692Y-47005635D01*
X156656496Y-46946739D01*
X156862734Y-46850568D01*
X157049139Y-46720047D01*
X157210047Y-46559139D01*
X157340568Y-46372734D01*
X157367618Y-46314724D01*
X157413790Y-46262285D01*
X157480983Y-46243133D01*
X157547865Y-46263348D01*
X157592382Y-46314725D01*
X157619429Y-46372728D01*
X157619432Y-46372734D01*
X157749954Y-46559141D01*
X157910858Y-46720045D01*
X157910861Y-46720047D01*
X158097266Y-46850568D01*
X158303504Y-46946739D01*
X158523308Y-47005635D01*
X158685230Y-47019801D01*
X158749998Y-47025468D01*
X158750000Y-47025468D01*
X158750002Y-47025468D01*
X158806673Y-47020509D01*
X158976692Y-47005635D01*
X159196496Y-46946739D01*
X159402734Y-46850568D01*
X159589139Y-46720047D01*
X159750047Y-46559139D01*
X159880568Y-46372734D01*
X159907895Y-46314129D01*
X159954064Y-46261695D01*
X160021257Y-46242542D01*
X160088139Y-46262757D01*
X160132657Y-46314133D01*
X160159865Y-46372482D01*
X160290342Y-46558820D01*
X160451179Y-46719657D01*
X160637517Y-46850134D01*
X160843673Y-46946265D01*
X160843682Y-46946269D01*
X161039999Y-46998872D01*
X161040000Y-46998871D01*
X161040000Y-46035686D01*
X161051955Y-46047641D01*
X161164852Y-46105165D01*
X161258519Y-46120000D01*
X161321481Y-46120000D01*
X161415148Y-46105165D01*
X161528045Y-46047641D01*
X161540000Y-46035686D01*
X161540000Y-46998872D01*
X161736317Y-46946269D01*
X161736326Y-46946265D01*
X161942482Y-46850134D01*
X162128820Y-46719657D01*
X162289657Y-46558820D01*
X162420134Y-46372481D01*
X162420135Y-46372479D01*
X162447618Y-46313543D01*
X162493790Y-46261103D01*
X162560983Y-46241951D01*
X162627864Y-46262166D01*
X162672382Y-46313543D01*
X162699864Y-46372479D01*
X162699865Y-46372481D01*
X162830342Y-46558820D01*
X162991179Y-46719657D01*
X163177517Y-46850134D01*
X163383673Y-46946265D01*
X163383682Y-46946269D01*
X163579999Y-46998872D01*
X163580000Y-46998871D01*
X163580000Y-46035686D01*
X163591955Y-46047641D01*
X163704852Y-46105165D01*
X163798519Y-46120000D01*
X163861481Y-46120000D01*
X163955148Y-46105165D01*
X164068045Y-46047641D01*
X164080000Y-46035686D01*
X164080000Y-46998872D01*
X164276317Y-46946269D01*
X164276326Y-46946265D01*
X164482482Y-46850134D01*
X164668820Y-46719657D01*
X164829657Y-46558820D01*
X164960132Y-46372484D01*
X164987341Y-46314134D01*
X165033513Y-46261695D01*
X165100707Y-46242542D01*
X165167588Y-46262757D01*
X165212106Y-46314133D01*
X165239431Y-46372732D01*
X165239432Y-46372734D01*
X165369954Y-46559141D01*
X165530858Y-46720045D01*
X165530861Y-46720047D01*
X165717266Y-46850568D01*
X165923504Y-46946739D01*
X166143308Y-47005635D01*
X166305230Y-47019801D01*
X166369998Y-47025468D01*
X166370000Y-47025468D01*
X166370002Y-47025468D01*
X166426673Y-47020509D01*
X166596692Y-47005635D01*
X166816496Y-46946739D01*
X167022734Y-46850568D01*
X167209139Y-46720047D01*
X167370047Y-46559139D01*
X167500568Y-46372734D01*
X167527895Y-46314129D01*
X167574064Y-46261695D01*
X167641257Y-46242542D01*
X167708139Y-46262757D01*
X167752657Y-46314133D01*
X167779865Y-46372482D01*
X167910342Y-46558820D01*
X168071179Y-46719657D01*
X168257517Y-46850134D01*
X168463673Y-46946265D01*
X168463682Y-46946269D01*
X168659999Y-46998872D01*
X168660000Y-46998871D01*
X168660000Y-46035686D01*
X168671955Y-46047641D01*
X168784852Y-46105165D01*
X168878519Y-46120000D01*
X168941481Y-46120000D01*
X169035148Y-46105165D01*
X169148045Y-46047641D01*
X169160000Y-46035686D01*
X169160000Y-46998872D01*
X169356317Y-46946269D01*
X169356326Y-46946265D01*
X169562482Y-46850134D01*
X169748820Y-46719657D01*
X169909657Y-46558820D01*
X170040132Y-46372484D01*
X170067341Y-46314134D01*
X170113513Y-46261695D01*
X170180707Y-46242542D01*
X170247588Y-46262757D01*
X170292106Y-46314133D01*
X170319431Y-46372732D01*
X170319432Y-46372734D01*
X170449954Y-46559141D01*
X170610858Y-46720045D01*
X170610861Y-46720047D01*
X170797266Y-46850568D01*
X171003504Y-46946739D01*
X171223308Y-47005635D01*
X171385230Y-47019801D01*
X171449998Y-47025468D01*
X171450000Y-47025468D01*
X171450002Y-47025468D01*
X171506673Y-47020509D01*
X171676692Y-47005635D01*
X171896496Y-46946739D01*
X172102734Y-46850568D01*
X172289139Y-46720047D01*
X172450047Y-46559139D01*
X172580568Y-46372734D01*
X172676739Y-46166496D01*
X172735635Y-45946692D01*
X172755468Y-45720000D01*
X172735635Y-45493308D01*
X172676739Y-45273504D01*
X172580568Y-45067266D01*
X172450047Y-44880861D01*
X172450045Y-44880858D01*
X172289141Y-44719954D01*
X172102734Y-44589432D01*
X172102732Y-44589431D01*
X171896497Y-44493261D01*
X171896488Y-44493258D01*
X171676697Y-44434366D01*
X171676693Y-44434365D01*
X171676692Y-44434365D01*
X171676691Y-44434364D01*
X171676686Y-44434364D01*
X171450002Y-44414532D01*
X171449998Y-44414532D01*
X171223313Y-44434364D01*
X171223302Y-44434366D01*
X171003511Y-44493258D01*
X171003502Y-44493261D01*
X170797267Y-44589431D01*
X170797265Y-44589432D01*
X170610858Y-44719954D01*
X170449954Y-44880858D01*
X170319433Y-45067264D01*
X170319432Y-45067266D01*
X170319315Y-45067518D01*
X170292106Y-45125867D01*
X170245933Y-45178306D01*
X170178739Y-45197457D01*
X170111858Y-45177241D01*
X170067342Y-45125865D01*
X170040135Y-45067520D01*
X170040134Y-45067518D01*
X169909657Y-44881179D01*
X169748820Y-44720342D01*
X169562482Y-44589865D01*
X169356328Y-44493734D01*
X169160000Y-44441127D01*
X169160000Y-45404314D01*
X169148045Y-45392359D01*
X169035148Y-45334835D01*
X168941481Y-45320000D01*
X168878519Y-45320000D01*
X168784852Y-45334835D01*
X168671955Y-45392359D01*
X168660000Y-45404314D01*
X168660000Y-44441127D01*
X168463671Y-44493734D01*
X168257517Y-44589865D01*
X168071179Y-44720342D01*
X167910342Y-44881179D01*
X167779867Y-45067515D01*
X167752657Y-45125867D01*
X167706484Y-45178306D01*
X167639290Y-45197457D01*
X167572409Y-45177241D01*
X167527893Y-45125865D01*
X167500685Y-45067518D01*
X167500568Y-45067266D01*
X167370047Y-44880861D01*
X167370045Y-44880858D01*
X167209141Y-44719954D01*
X167022734Y-44589432D01*
X167022732Y-44589431D01*
X166816497Y-44493261D01*
X166816488Y-44493258D01*
X166596697Y-44434366D01*
X166596693Y-44434365D01*
X166596692Y-44434365D01*
X166596691Y-44434364D01*
X166596686Y-44434364D01*
X166370002Y-44414532D01*
X166369998Y-44414532D01*
X166143313Y-44434364D01*
X166143302Y-44434366D01*
X165923511Y-44493258D01*
X165923502Y-44493261D01*
X165717267Y-44589431D01*
X165717265Y-44589432D01*
X165530858Y-44719954D01*
X165369954Y-44880858D01*
X165239433Y-45067264D01*
X165239432Y-45067266D01*
X165239315Y-45067518D01*
X165212106Y-45125867D01*
X165165933Y-45178306D01*
X165098739Y-45197457D01*
X165031858Y-45177241D01*
X164987342Y-45125865D01*
X164960135Y-45067520D01*
X164960134Y-45067518D01*
X164829657Y-44881179D01*
X164668820Y-44720342D01*
X164482482Y-44589865D01*
X164276328Y-44493734D01*
X164080000Y-44441127D01*
X164080000Y-45404314D01*
X164068045Y-45392359D01*
X163955148Y-45334835D01*
X163861481Y-45320000D01*
X163798519Y-45320000D01*
X163704852Y-45334835D01*
X163591955Y-45392359D01*
X163580000Y-45404314D01*
X163580000Y-44441127D01*
X163383671Y-44493734D01*
X163177517Y-44589865D01*
X162991179Y-44720342D01*
X162830342Y-44881179D01*
X162699865Y-45067517D01*
X162672382Y-45126457D01*
X162626210Y-45178896D01*
X162559016Y-45198048D01*
X162492135Y-45177832D01*
X162447618Y-45126457D01*
X162420134Y-45067517D01*
X162289657Y-44881179D01*
X162128820Y-44720342D01*
X161942482Y-44589865D01*
X161736328Y-44493734D01*
X161540000Y-44441127D01*
X161540000Y-45404314D01*
X161528045Y-45392359D01*
X161415148Y-45334835D01*
X161321481Y-45320000D01*
X161258519Y-45320000D01*
X161164852Y-45334835D01*
X161051955Y-45392359D01*
X161040000Y-45404314D01*
X161040000Y-44441127D01*
X160843671Y-44493734D01*
X160637517Y-44589865D01*
X160451179Y-44720342D01*
X160290342Y-44881179D01*
X160159867Y-45067515D01*
X160132657Y-45125867D01*
X160086484Y-45178306D01*
X160019290Y-45197457D01*
X159952409Y-45177241D01*
X159907893Y-45125865D01*
X159880685Y-45067518D01*
X159880568Y-45067266D01*
X159750047Y-44880861D01*
X159750045Y-44880858D01*
X159589141Y-44719954D01*
X159402734Y-44589432D01*
X159402732Y-44589431D01*
X159196497Y-44493261D01*
X159196488Y-44493258D01*
X158976697Y-44434366D01*
X158976693Y-44434365D01*
X158976692Y-44434365D01*
X158976691Y-44434364D01*
X158976686Y-44434364D01*
X158750002Y-44414532D01*
X158749998Y-44414532D01*
X158523313Y-44434364D01*
X158523302Y-44434366D01*
X158303511Y-44493258D01*
X158303502Y-44493261D01*
X158097267Y-44589431D01*
X158097265Y-44589432D01*
X157910858Y-44719954D01*
X157749954Y-44880858D01*
X157619432Y-45067265D01*
X157619431Y-45067267D01*
X157592382Y-45125275D01*
X157546209Y-45177714D01*
X157479016Y-45196866D01*
X157412135Y-45176650D01*
X157367618Y-45125275D01*
X157340686Y-45067520D01*
X157340568Y-45067266D01*
X157210047Y-44880861D01*
X157210045Y-44880858D01*
X157049141Y-44719954D01*
X156862734Y-44589432D01*
X156862732Y-44589431D01*
X156656497Y-44493261D01*
X156656488Y-44493258D01*
X156436697Y-44434366D01*
X156436693Y-44434365D01*
X156436692Y-44434365D01*
X156436691Y-44434364D01*
X156436686Y-44434364D01*
X156210002Y-44414532D01*
X156209998Y-44414532D01*
X155983313Y-44434364D01*
X155983302Y-44434366D01*
X155763511Y-44493258D01*
X155763502Y-44493261D01*
X155557267Y-44589431D01*
X155557265Y-44589432D01*
X155370858Y-44719954D01*
X155209954Y-44880858D01*
X155079432Y-45067265D01*
X155079431Y-45067267D01*
X154983261Y-45273502D01*
X154983258Y-45273511D01*
X154924366Y-45493302D01*
X154924364Y-45493313D01*
X154904532Y-45719998D01*
X154904532Y-45720001D01*
X111760500Y-45720001D01*
X111760500Y-38100001D01*
X154904532Y-38100001D01*
X154924364Y-38326686D01*
X154924366Y-38326697D01*
X154983258Y-38546488D01*
X154983261Y-38546497D01*
X155079431Y-38752732D01*
X155079432Y-38752734D01*
X155209954Y-38939141D01*
X155370858Y-39100045D01*
X155370861Y-39100047D01*
X155557266Y-39230568D01*
X155763504Y-39326739D01*
X155983308Y-39385635D01*
X156145230Y-39399801D01*
X156209998Y-39405468D01*
X156210000Y-39405468D01*
X156210002Y-39405468D01*
X156266807Y-39400498D01*
X156436692Y-39385635D01*
X156656496Y-39326739D01*
X156862734Y-39230568D01*
X157049139Y-39100047D01*
X157210047Y-38939139D01*
X157340568Y-38752734D01*
X157367618Y-38694724D01*
X157413790Y-38642285D01*
X157480983Y-38623133D01*
X157547865Y-38643348D01*
X157592382Y-38694725D01*
X157619429Y-38752728D01*
X157619432Y-38752734D01*
X157749954Y-38939141D01*
X157910858Y-39100045D01*
X157910861Y-39100047D01*
X158097266Y-39230568D01*
X158303504Y-39326739D01*
X158523308Y-39385635D01*
X158685230Y-39399801D01*
X158749998Y-39405468D01*
X158750000Y-39405468D01*
X158750002Y-39405468D01*
X158806807Y-39400498D01*
X158976692Y-39385635D01*
X159196496Y-39326739D01*
X159402734Y-39230568D01*
X159589139Y-39100047D01*
X159750047Y-38939139D01*
X159880568Y-38752734D01*
X159907895Y-38694129D01*
X159954064Y-38641695D01*
X160021257Y-38622542D01*
X160088139Y-38642757D01*
X160132657Y-38694133D01*
X160159865Y-38752482D01*
X160290342Y-38938820D01*
X160451179Y-39099657D01*
X160637517Y-39230134D01*
X160843673Y-39326265D01*
X160843682Y-39326269D01*
X161039999Y-39378872D01*
X161040000Y-39378871D01*
X161040000Y-38415686D01*
X161051955Y-38427641D01*
X161164852Y-38485165D01*
X161258519Y-38500000D01*
X161321481Y-38500000D01*
X161415148Y-38485165D01*
X161528045Y-38427641D01*
X161540000Y-38415686D01*
X161540000Y-39378872D01*
X161736317Y-39326269D01*
X161736326Y-39326265D01*
X161942482Y-39230134D01*
X162128820Y-39099657D01*
X162289657Y-38938820D01*
X162420132Y-38752484D01*
X162447341Y-38694134D01*
X162493513Y-38641695D01*
X162560707Y-38622542D01*
X162627588Y-38642757D01*
X162672106Y-38694133D01*
X162699431Y-38752732D01*
X162699432Y-38752734D01*
X162829954Y-38939141D01*
X162990858Y-39100045D01*
X162990861Y-39100047D01*
X163177266Y-39230568D01*
X163383504Y-39326739D01*
X163603308Y-39385635D01*
X163765230Y-39399801D01*
X163829998Y-39405468D01*
X163830000Y-39405468D01*
X163830002Y-39405468D01*
X163886807Y-39400498D01*
X164056692Y-39385635D01*
X164276496Y-39326739D01*
X164482734Y-39230568D01*
X164669139Y-39100047D01*
X164830047Y-38939139D01*
X164960568Y-38752734D01*
X164987618Y-38694724D01*
X165033790Y-38642285D01*
X165100983Y-38623133D01*
X165167865Y-38643348D01*
X165212382Y-38694725D01*
X165239429Y-38752728D01*
X165239432Y-38752734D01*
X165369954Y-38939141D01*
X165530858Y-39100045D01*
X165530861Y-39100047D01*
X165717266Y-39230568D01*
X165923504Y-39326739D01*
X166143308Y-39385635D01*
X166305230Y-39399801D01*
X166369998Y-39405468D01*
X166370000Y-39405468D01*
X166370002Y-39405468D01*
X166426807Y-39400498D01*
X166596692Y-39385635D01*
X166816496Y-39326739D01*
X167022734Y-39230568D01*
X167209139Y-39100047D01*
X167370047Y-38939139D01*
X167500568Y-38752734D01*
X167527895Y-38694129D01*
X167574064Y-38641695D01*
X167641257Y-38622542D01*
X167708139Y-38642757D01*
X167752657Y-38694133D01*
X167779865Y-38752482D01*
X167910342Y-38938820D01*
X168071179Y-39099657D01*
X168257517Y-39230134D01*
X168463673Y-39326265D01*
X168463682Y-39326269D01*
X168659999Y-39378872D01*
X168660000Y-39378871D01*
X168660000Y-38415686D01*
X168671955Y-38427641D01*
X168784852Y-38485165D01*
X168878519Y-38500000D01*
X168941481Y-38500000D01*
X169035148Y-38485165D01*
X169148045Y-38427641D01*
X169160000Y-38415686D01*
X169160000Y-39378872D01*
X169356317Y-39326269D01*
X169356326Y-39326265D01*
X169562482Y-39230134D01*
X169748820Y-39099657D01*
X169909658Y-38938819D01*
X169927190Y-38913781D01*
X169981766Y-38870155D01*
X170051264Y-38862961D01*
X170113619Y-38894482D01*
X170149034Y-38954712D01*
X170152055Y-38971647D01*
X170155907Y-39007480D01*
X170206202Y-39142328D01*
X170206206Y-39142335D01*
X170292452Y-39257544D01*
X170292455Y-39257547D01*
X170407664Y-39343793D01*
X170407671Y-39343797D01*
X170542517Y-39394091D01*
X170542516Y-39394091D01*
X170549444Y-39394835D01*
X170602127Y-39400500D01*
X172297872Y-39400499D01*
X172357483Y-39394091D01*
X172492331Y-39343796D01*
X172607546Y-39257546D01*
X172693796Y-39142331D01*
X172744091Y-39007483D01*
X172750500Y-38947873D01*
X172750499Y-37252128D01*
X172744091Y-37192517D01*
X172709567Y-37099954D01*
X172693797Y-37057671D01*
X172693793Y-37057664D01*
X172607547Y-36942455D01*
X172607544Y-36942452D01*
X172492335Y-36856206D01*
X172492328Y-36856202D01*
X172357482Y-36805908D01*
X172357483Y-36805908D01*
X172297883Y-36799501D01*
X172297881Y-36799500D01*
X172297873Y-36799500D01*
X172297864Y-36799500D01*
X170602129Y-36799500D01*
X170602123Y-36799501D01*
X170542516Y-36805908D01*
X170407671Y-36856202D01*
X170407664Y-36856206D01*
X170292455Y-36942452D01*
X170292452Y-36942455D01*
X170206206Y-37057664D01*
X170206202Y-37057671D01*
X170155908Y-37192517D01*
X170152056Y-37228352D01*
X170125318Y-37292903D01*
X170067926Y-37332752D01*
X169998101Y-37335245D01*
X169938012Y-37299593D01*
X169927192Y-37286221D01*
X169909657Y-37261179D01*
X169748820Y-37100342D01*
X169562482Y-36969865D01*
X169356328Y-36873734D01*
X169160000Y-36821127D01*
X169160000Y-37784314D01*
X169148045Y-37772359D01*
X169035148Y-37714835D01*
X168941481Y-37700000D01*
X168878519Y-37700000D01*
X168784852Y-37714835D01*
X168671955Y-37772359D01*
X168660000Y-37784314D01*
X168660000Y-36821127D01*
X168463671Y-36873734D01*
X168257517Y-36969865D01*
X168071179Y-37100342D01*
X167910342Y-37261179D01*
X167779867Y-37447515D01*
X167752657Y-37505867D01*
X167706484Y-37558306D01*
X167639290Y-37577457D01*
X167572409Y-37557241D01*
X167527893Y-37505865D01*
X167500685Y-37447518D01*
X167500568Y-37447266D01*
X167370047Y-37260861D01*
X167370045Y-37260858D01*
X167209141Y-37099954D01*
X167022734Y-36969432D01*
X167022732Y-36969431D01*
X166816497Y-36873261D01*
X166816488Y-36873258D01*
X166596697Y-36814366D01*
X166596693Y-36814365D01*
X166596692Y-36814365D01*
X166596691Y-36814364D01*
X166596686Y-36814364D01*
X166370002Y-36794532D01*
X166369998Y-36794532D01*
X166143313Y-36814364D01*
X166143302Y-36814366D01*
X165923511Y-36873258D01*
X165923502Y-36873261D01*
X165717267Y-36969431D01*
X165717265Y-36969432D01*
X165530858Y-37099954D01*
X165369954Y-37260858D01*
X165239432Y-37447265D01*
X165239431Y-37447267D01*
X165212382Y-37505275D01*
X165166209Y-37557714D01*
X165099016Y-37576866D01*
X165032135Y-37556650D01*
X164987618Y-37505275D01*
X164960686Y-37447520D01*
X164960568Y-37447266D01*
X164830047Y-37260861D01*
X164830045Y-37260858D01*
X164669141Y-37099954D01*
X164482734Y-36969432D01*
X164482732Y-36969431D01*
X164276497Y-36873261D01*
X164276488Y-36873258D01*
X164056697Y-36814366D01*
X164056693Y-36814365D01*
X164056692Y-36814365D01*
X164056691Y-36814364D01*
X164056686Y-36814364D01*
X163830002Y-36794532D01*
X163829998Y-36794532D01*
X163603313Y-36814364D01*
X163603302Y-36814366D01*
X163383511Y-36873258D01*
X163383502Y-36873261D01*
X163177267Y-36969431D01*
X163177265Y-36969432D01*
X162990858Y-37099954D01*
X162829954Y-37260858D01*
X162699433Y-37447264D01*
X162699432Y-37447266D01*
X162699315Y-37447518D01*
X162672106Y-37505867D01*
X162625933Y-37558306D01*
X162558739Y-37577457D01*
X162491858Y-37557241D01*
X162447342Y-37505865D01*
X162420135Y-37447520D01*
X162420134Y-37447518D01*
X162289657Y-37261179D01*
X162128820Y-37100342D01*
X161942482Y-36969865D01*
X161736328Y-36873734D01*
X161540000Y-36821127D01*
X161540000Y-37784314D01*
X161528045Y-37772359D01*
X161415148Y-37714835D01*
X161321481Y-37700000D01*
X161258519Y-37700000D01*
X161164852Y-37714835D01*
X161051955Y-37772359D01*
X161040000Y-37784314D01*
X161040000Y-36821127D01*
X160843671Y-36873734D01*
X160637517Y-36969865D01*
X160451179Y-37100342D01*
X160290342Y-37261179D01*
X160159867Y-37447515D01*
X160132657Y-37505867D01*
X160086484Y-37558306D01*
X160019290Y-37577457D01*
X159952409Y-37557241D01*
X159907893Y-37505865D01*
X159880685Y-37447518D01*
X159880568Y-37447266D01*
X159750047Y-37260861D01*
X159750045Y-37260858D01*
X159589141Y-37099954D01*
X159402734Y-36969432D01*
X159402732Y-36969431D01*
X159196497Y-36873261D01*
X159196488Y-36873258D01*
X158976697Y-36814366D01*
X158976693Y-36814365D01*
X158976692Y-36814365D01*
X158976691Y-36814364D01*
X158976686Y-36814364D01*
X158750002Y-36794532D01*
X158749998Y-36794532D01*
X158523313Y-36814364D01*
X158523302Y-36814366D01*
X158303511Y-36873258D01*
X158303502Y-36873261D01*
X158097267Y-36969431D01*
X158097265Y-36969432D01*
X157910858Y-37099954D01*
X157749954Y-37260858D01*
X157619432Y-37447265D01*
X157619431Y-37447267D01*
X157592382Y-37505275D01*
X157546209Y-37557714D01*
X157479016Y-37576866D01*
X157412135Y-37556650D01*
X157367618Y-37505275D01*
X157340686Y-37447520D01*
X157340568Y-37447266D01*
X157210047Y-37260861D01*
X157210045Y-37260858D01*
X157049141Y-37099954D01*
X156862734Y-36969432D01*
X156862732Y-36969431D01*
X156656497Y-36873261D01*
X156656488Y-36873258D01*
X156436697Y-36814366D01*
X156436693Y-36814365D01*
X156436692Y-36814365D01*
X156436691Y-36814364D01*
X156436686Y-36814364D01*
X156210002Y-36794532D01*
X156209998Y-36794532D01*
X155983313Y-36814364D01*
X155983302Y-36814366D01*
X155763511Y-36873258D01*
X155763502Y-36873261D01*
X155557267Y-36969431D01*
X155557265Y-36969432D01*
X155370858Y-37099954D01*
X155209954Y-37260858D01*
X155079432Y-37447265D01*
X155079431Y-37447267D01*
X154983261Y-37653502D01*
X154983258Y-37653511D01*
X154924366Y-37873302D01*
X154924364Y-37873313D01*
X154904532Y-38099998D01*
X154904532Y-38100001D01*
X111760500Y-38100001D01*
X111760500Y-32450004D01*
X120615233Y-32450004D01*
X120634273Y-32704079D01*
X120690968Y-32952477D01*
X120690973Y-32952494D01*
X120784058Y-33189671D01*
X120784057Y-33189671D01*
X120911457Y-33410332D01*
X120953452Y-33462993D01*
X120953453Y-33462993D01*
X121757226Y-32659219D01*
X121795901Y-32752588D01*
X121892075Y-32877925D01*
X122017412Y-32974099D01*
X122110779Y-33012772D01*
X121306813Y-33816737D01*
X121467623Y-33926375D01*
X121467624Y-33926376D01*
X121697176Y-34036921D01*
X121697174Y-34036921D01*
X121940652Y-34112024D01*
X121940658Y-34112026D01*
X122192595Y-34149999D01*
X122192604Y-34150000D01*
X122447396Y-34150000D01*
X122447404Y-34149999D01*
X122699341Y-34112026D01*
X122699347Y-34112024D01*
X122942824Y-34036921D01*
X123172381Y-33926373D01*
X123333185Y-33816737D01*
X122529220Y-33012772D01*
X122622588Y-32974099D01*
X122747925Y-32877925D01*
X122844099Y-32752589D01*
X122882773Y-32659220D01*
X123686545Y-33462993D01*
X123728545Y-33410327D01*
X123855939Y-33189675D01*
X123880071Y-33128187D01*
X123922886Y-33072973D01*
X123988756Y-33049672D01*
X124056767Y-33065681D01*
X124105326Y-33115918D01*
X124119500Y-33173488D01*
X124119500Y-33697870D01*
X124119501Y-33697876D01*
X124125908Y-33757483D01*
X124176202Y-33892328D01*
X124176206Y-33892335D01*
X124262452Y-34007544D01*
X124262455Y-34007547D01*
X124377664Y-34093793D01*
X124377671Y-34093797D01*
X124512517Y-34144091D01*
X124512516Y-34144091D01*
X124519444Y-34144835D01*
X124572127Y-34150500D01*
X127067872Y-34150499D01*
X127127483Y-34144091D01*
X127262331Y-34093796D01*
X127377546Y-34007546D01*
X127463796Y-33892331D01*
X127514091Y-33757483D01*
X127520500Y-33697873D01*
X127520500Y-33020005D01*
X132784357Y-33020005D01*
X132804890Y-33267812D01*
X132804892Y-33267824D01*
X132865936Y-33508881D01*
X132965826Y-33736606D01*
X133101833Y-33944782D01*
X133101836Y-33944785D01*
X133270256Y-34127738D01*
X133466491Y-34280474D01*
X133466493Y-34280475D01*
X133684332Y-34398364D01*
X133685190Y-34398828D01*
X133904141Y-34473994D01*
X133918964Y-34479083D01*
X133920386Y-34479571D01*
X134165665Y-34520500D01*
X134414335Y-34520500D01*
X134659614Y-34479571D01*
X134894810Y-34398828D01*
X135113509Y-34280474D01*
X135309744Y-34127738D01*
X135478164Y-33944785D01*
X135614173Y-33736607D01*
X135714063Y-33508881D01*
X135775108Y-33267821D01*
X135778255Y-33229844D01*
X135795643Y-33020005D01*
X140284859Y-33020005D01*
X140305385Y-33267729D01*
X140305387Y-33267738D01*
X140366412Y-33508717D01*
X140466266Y-33736364D01*
X140566564Y-33889882D01*
X141306923Y-33149523D01*
X141330507Y-33229844D01*
X141408239Y-33350798D01*
X141516900Y-33444952D01*
X141647685Y-33504680D01*
X141657466Y-33506086D01*
X140919942Y-34243609D01*
X140966768Y-34280055D01*
X140966770Y-34280056D01*
X141185385Y-34398364D01*
X141185396Y-34398369D01*
X141420506Y-34479083D01*
X141665707Y-34520000D01*
X141914293Y-34520000D01*
X142159493Y-34479083D01*
X142394603Y-34398369D01*
X142394614Y-34398364D01*
X142613228Y-34280057D01*
X142613231Y-34280055D01*
X142660056Y-34243609D01*
X141922533Y-33506086D01*
X141932315Y-33504680D01*
X142063100Y-33444952D01*
X142171761Y-33350798D01*
X142249493Y-33229844D01*
X142273076Y-33149524D01*
X143013434Y-33889882D01*
X143113731Y-33736369D01*
X143213587Y-33508717D01*
X143274612Y-33267738D01*
X143274614Y-33267729D01*
X143295141Y-33020005D01*
X143295141Y-33019994D01*
X143274614Y-32772270D01*
X143274612Y-32772261D01*
X143213587Y-32531282D01*
X143113731Y-32303630D01*
X143013434Y-32150116D01*
X142273076Y-32890475D01*
X142249493Y-32810156D01*
X142171761Y-32689202D01*
X142063100Y-32595048D01*
X141932315Y-32535320D01*
X141922534Y-32533913D01*
X142660057Y-31796390D01*
X142660056Y-31796389D01*
X142613229Y-31759943D01*
X142553963Y-31727870D01*
X171819500Y-31727870D01*
X171819501Y-31727876D01*
X171825908Y-31787483D01*
X171876202Y-31922328D01*
X171876206Y-31922335D01*
X171962452Y-32037544D01*
X171962455Y-32037547D01*
X172077664Y-32123793D01*
X172077671Y-32123797D01*
X172212517Y-32174091D01*
X172212516Y-32174091D01*
X172219444Y-32174835D01*
X172272127Y-32180500D01*
X174767872Y-32180499D01*
X174827483Y-32174091D01*
X174962331Y-32123796D01*
X175077546Y-32037546D01*
X175163796Y-31922331D01*
X175214091Y-31787483D01*
X175220500Y-31727873D01*
X175220499Y-31204854D01*
X175240183Y-31137818D01*
X175292987Y-31092063D01*
X175362146Y-31082119D01*
X175425702Y-31111144D01*
X175459927Y-31159553D01*
X175483607Y-31219888D01*
X175611041Y-31440612D01*
X175769950Y-31639877D01*
X175956783Y-31813232D01*
X176167366Y-31956805D01*
X176167371Y-31956807D01*
X176167372Y-31956808D01*
X176167373Y-31956809D01*
X176289328Y-32015538D01*
X176396992Y-32067387D01*
X176396993Y-32067387D01*
X176396996Y-32067389D01*
X176640542Y-32142513D01*
X176892565Y-32180500D01*
X177147435Y-32180500D01*
X177399458Y-32142513D01*
X177643004Y-32067389D01*
X177872634Y-31956805D01*
X178083217Y-31813232D01*
X178270050Y-31639877D01*
X178428959Y-31440612D01*
X178556393Y-31219888D01*
X178649508Y-30982637D01*
X178706222Y-30734157D01*
X178725268Y-30480000D01*
X189144341Y-30480000D01*
X189164936Y-30715403D01*
X189164938Y-30715413D01*
X189226094Y-30943655D01*
X189226096Y-30943659D01*
X189226097Y-30943663D01*
X189255944Y-31007669D01*
X189325964Y-31157828D01*
X189325965Y-31157830D01*
X189461505Y-31351402D01*
X189628597Y-31518494D01*
X189822169Y-31654034D01*
X189822171Y-31654035D01*
X190036337Y-31753903D01*
X190036343Y-31753904D01*
X190036344Y-31753905D01*
X190058879Y-31759943D01*
X190264592Y-31815063D01*
X190441034Y-31830500D01*
X190558966Y-31830500D01*
X190735408Y-31815063D01*
X190963663Y-31753903D01*
X191177829Y-31654035D01*
X191371401Y-31518495D01*
X191538495Y-31351401D01*
X191674035Y-31157830D01*
X191773903Y-30943663D01*
X191835063Y-30715408D01*
X191855659Y-30480000D01*
X191835063Y-30244592D01*
X191773903Y-30016337D01*
X191674035Y-29802171D01*
X191674034Y-29802169D01*
X191538494Y-29608597D01*
X191371402Y-29441505D01*
X191177830Y-29305965D01*
X191177828Y-29305964D01*
X191019484Y-29232127D01*
X190963663Y-29206097D01*
X190963659Y-29206096D01*
X190963655Y-29206094D01*
X190735413Y-29144938D01*
X190735403Y-29144936D01*
X190558966Y-29129500D01*
X190441034Y-29129500D01*
X190264596Y-29144936D01*
X190264586Y-29144938D01*
X190036344Y-29206094D01*
X190036337Y-29206096D01*
X190036337Y-29206097D01*
X190022816Y-29212401D01*
X189822171Y-29305964D01*
X189822169Y-29305965D01*
X189628597Y-29441505D01*
X189461506Y-29608597D01*
X189461501Y-29608604D01*
X189325967Y-29802165D01*
X189325965Y-29802169D01*
X189226098Y-30016335D01*
X189226094Y-30016344D01*
X189164938Y-30244586D01*
X189164936Y-30244596D01*
X189144341Y-30479999D01*
X189144341Y-30480000D01*
X178725268Y-30480000D01*
X178706222Y-30225843D01*
X178649508Y-29977363D01*
X178556393Y-29740112D01*
X178428959Y-29519388D01*
X178270050Y-29320123D01*
X178083217Y-29146768D01*
X177872634Y-29003195D01*
X177872630Y-29003193D01*
X177872627Y-29003191D01*
X177872626Y-29003190D01*
X177643006Y-28892612D01*
X177643008Y-28892612D01*
X177399466Y-28817489D01*
X177399462Y-28817488D01*
X177399458Y-28817487D01*
X177278231Y-28799214D01*
X177147440Y-28779500D01*
X177147435Y-28779500D01*
X176892565Y-28779500D01*
X176892559Y-28779500D01*
X176735609Y-28803157D01*
X176640542Y-28817487D01*
X176640539Y-28817488D01*
X176640533Y-28817489D01*
X176396992Y-28892612D01*
X176167373Y-29003190D01*
X176167372Y-29003191D01*
X175956782Y-29146768D01*
X175769952Y-29320121D01*
X175769950Y-29320123D01*
X175611041Y-29519388D01*
X175483608Y-29740109D01*
X175459927Y-29800447D01*
X175417110Y-29855661D01*
X175351240Y-29878961D01*
X175283230Y-29862950D01*
X175234672Y-29812711D01*
X175220499Y-29755144D01*
X175220499Y-29232129D01*
X175220498Y-29232123D01*
X175220497Y-29232116D01*
X175214091Y-29172517D01*
X175204487Y-29146768D01*
X175163797Y-29037671D01*
X175163793Y-29037664D01*
X175077547Y-28922455D01*
X175077544Y-28922452D01*
X174962335Y-28836206D01*
X174962328Y-28836202D01*
X174827482Y-28785908D01*
X174827483Y-28785908D01*
X174767883Y-28779501D01*
X174767881Y-28779500D01*
X174767873Y-28779500D01*
X174767864Y-28779500D01*
X172272129Y-28779500D01*
X172272123Y-28779501D01*
X172212516Y-28785908D01*
X172077671Y-28836202D01*
X172077664Y-28836206D01*
X171962455Y-28922452D01*
X171962452Y-28922455D01*
X171876206Y-29037664D01*
X171876202Y-29037671D01*
X171825908Y-29172517D01*
X171819501Y-29232116D01*
X171819501Y-29232123D01*
X171819500Y-29232135D01*
X171819500Y-31727870D01*
X142553963Y-31727870D01*
X142394614Y-31641635D01*
X142394603Y-31641630D01*
X142159493Y-31560916D01*
X141914293Y-31520000D01*
X141665707Y-31520000D01*
X141420506Y-31560916D01*
X141185396Y-31641630D01*
X141185390Y-31641632D01*
X140966761Y-31759949D01*
X140919942Y-31796388D01*
X140919942Y-31796390D01*
X141657466Y-32533913D01*
X141647685Y-32535320D01*
X141516900Y-32595048D01*
X141408239Y-32689202D01*
X141330507Y-32810156D01*
X141306923Y-32890475D01*
X140566564Y-32150116D01*
X140466267Y-32303632D01*
X140366412Y-32531282D01*
X140305387Y-32772261D01*
X140305385Y-32772270D01*
X140284859Y-33019994D01*
X140284859Y-33020005D01*
X135795643Y-33020005D01*
X135795643Y-33019994D01*
X135775109Y-32772187D01*
X135775107Y-32772175D01*
X135714063Y-32531118D01*
X135614173Y-32303393D01*
X135478166Y-32095217D01*
X135350751Y-31956808D01*
X135309744Y-31912262D01*
X135113509Y-31759526D01*
X135113507Y-31759525D01*
X135113506Y-31759524D01*
X134894811Y-31641172D01*
X134894802Y-31641169D01*
X134659616Y-31560429D01*
X134414335Y-31519500D01*
X134165665Y-31519500D01*
X133920383Y-31560429D01*
X133685197Y-31641169D01*
X133685188Y-31641172D01*
X133466493Y-31759524D01*
X133270257Y-31912261D01*
X133101833Y-32095217D01*
X132965826Y-32303393D01*
X132865936Y-32531118D01*
X132804892Y-32772175D01*
X132804890Y-32772187D01*
X132784357Y-33019994D01*
X132784357Y-33020005D01*
X127520500Y-33020005D01*
X127520499Y-31202128D01*
X127514091Y-31142517D01*
X127512338Y-31137818D01*
X127463797Y-31007671D01*
X127463793Y-31007664D01*
X127377547Y-30892455D01*
X127377544Y-30892452D01*
X127262335Y-30806206D01*
X127262328Y-30806202D01*
X127127482Y-30755908D01*
X127127483Y-30755908D01*
X127067883Y-30749501D01*
X127067881Y-30749500D01*
X127067873Y-30749500D01*
X127067864Y-30749500D01*
X124572129Y-30749500D01*
X124572123Y-30749501D01*
X124512516Y-30755908D01*
X124377671Y-30806202D01*
X124377664Y-30806206D01*
X124262455Y-30892452D01*
X124262452Y-30892455D01*
X124176206Y-31007664D01*
X124176202Y-31007671D01*
X124125908Y-31142517D01*
X124124077Y-31159553D01*
X124119501Y-31202123D01*
X124119500Y-31202135D01*
X124119500Y-31726509D01*
X124099815Y-31793548D01*
X124047011Y-31839303D01*
X123977853Y-31849247D01*
X123914297Y-31820222D01*
X123880072Y-31771811D01*
X123855941Y-31710328D01*
X123855942Y-31710328D01*
X123728544Y-31489671D01*
X123686546Y-31437006D01*
X122882772Y-32240779D01*
X122844099Y-32147412D01*
X122747925Y-32022075D01*
X122622588Y-31925901D01*
X122529220Y-31887227D01*
X123333185Y-31083261D01*
X123172377Y-30973624D01*
X123172376Y-30973623D01*
X122942823Y-30863078D01*
X122942825Y-30863078D01*
X122699347Y-30787975D01*
X122699341Y-30787973D01*
X122447404Y-30750000D01*
X122192595Y-30750000D01*
X121940658Y-30787973D01*
X121940652Y-30787975D01*
X121697175Y-30863078D01*
X121467624Y-30973623D01*
X121467616Y-30973628D01*
X121306813Y-31083261D01*
X122110779Y-31887227D01*
X122017412Y-31925901D01*
X121892075Y-32022075D01*
X121795901Y-32147411D01*
X121757227Y-32240779D01*
X120953453Y-31437006D01*
X120911455Y-31489670D01*
X120784058Y-31710328D01*
X120690973Y-31947505D01*
X120690968Y-31947522D01*
X120634273Y-32195920D01*
X120615233Y-32449995D01*
X120615233Y-32450004D01*
X111760500Y-32450004D01*
X111760500Y-30480000D01*
X114214341Y-30480000D01*
X114234936Y-30715403D01*
X114234938Y-30715413D01*
X114296094Y-30943655D01*
X114296096Y-30943659D01*
X114296097Y-30943663D01*
X114325944Y-31007669D01*
X114395964Y-31157828D01*
X114395965Y-31157830D01*
X114531505Y-31351402D01*
X114698597Y-31518494D01*
X114892169Y-31654034D01*
X114892171Y-31654035D01*
X115106337Y-31753903D01*
X115106343Y-31753904D01*
X115106344Y-31753905D01*
X115128879Y-31759943D01*
X115334592Y-31815063D01*
X115511034Y-31830500D01*
X115628966Y-31830500D01*
X115805408Y-31815063D01*
X116033663Y-31753903D01*
X116247829Y-31654035D01*
X116441401Y-31518495D01*
X116608495Y-31351401D01*
X116744035Y-31157830D01*
X116843903Y-30943663D01*
X116905063Y-30715408D01*
X116925659Y-30480000D01*
X116905063Y-30244592D01*
X116843903Y-30016337D01*
X116744035Y-29802171D01*
X116744034Y-29802169D01*
X116608494Y-29608597D01*
X116441402Y-29441505D01*
X116247830Y-29305965D01*
X116247828Y-29305964D01*
X116089484Y-29232127D01*
X116033663Y-29206097D01*
X116033659Y-29206096D01*
X116033655Y-29206094D01*
X115805413Y-29144938D01*
X115805403Y-29144936D01*
X115628966Y-29129500D01*
X115511034Y-29129500D01*
X115334596Y-29144936D01*
X115334586Y-29144938D01*
X115106344Y-29206094D01*
X115106337Y-29206096D01*
X115106337Y-29206097D01*
X115092816Y-29212401D01*
X114892171Y-29305964D01*
X114892169Y-29305965D01*
X114698597Y-29441505D01*
X114531506Y-29608597D01*
X114531501Y-29608604D01*
X114395967Y-29802165D01*
X114395965Y-29802169D01*
X114296098Y-30016335D01*
X114296094Y-30016344D01*
X114234938Y-30244586D01*
X114234936Y-30244596D01*
X114214341Y-30479999D01*
X114214341Y-30480000D01*
X111760500Y-30480000D01*
X111760500Y-29211740D01*
X111760598Y-29208263D01*
X111764051Y-29146768D01*
X111766995Y-29094333D01*
X111777401Y-28922304D01*
X111778160Y-28915706D01*
X111794848Y-28817488D01*
X111801277Y-28779656D01*
X111813432Y-28713324D01*
X111828562Y-28630763D01*
X111829961Y-28624810D01*
X111869387Y-28487956D01*
X111913270Y-28347135D01*
X111915158Y-28341921D01*
X111970397Y-28208565D01*
X112030343Y-28075370D01*
X112032599Y-28070861D01*
X112102958Y-27943557D01*
X112178228Y-27819044D01*
X112180693Y-27815286D01*
X112264461Y-27697226D01*
X112266145Y-27694967D01*
X112354932Y-27581638D01*
X112357472Y-27578605D01*
X112454052Y-27470531D01*
X112456373Y-27468077D01*
X112558077Y-27366373D01*
X112560531Y-27364052D01*
X112668605Y-27267472D01*
X112671638Y-27264932D01*
X112784967Y-27176145D01*
X112787226Y-27174461D01*
X112905286Y-27090693D01*
X112909044Y-27088228D01*
X113033561Y-27012956D01*
X113160861Y-26942599D01*
X113165370Y-26940343D01*
X113298565Y-26880397D01*
X113431921Y-26825158D01*
X113437135Y-26823270D01*
X113577956Y-26779387D01*
X113714810Y-26739961D01*
X113720763Y-26738562D01*
X113803324Y-26723432D01*
X113869656Y-26711277D01*
X113917941Y-26703072D01*
X114005706Y-26688160D01*
X114012304Y-26687401D01*
X114184333Y-26676995D01*
X114270782Y-26672140D01*
X114298263Y-26670598D01*
X114301740Y-26670500D01*
X191768260Y-26670500D01*
X191771737Y-26670598D01*
G37*
%TD.AperFunction*%
%TD*%
M02*
