%TF.GenerationSoftware,KiCad,Pcbnew,7.0.8*%
%TF.CreationDate,2025-04-12T00:46:53+05:30*%
%TF.ProjectId,hardware assignement,68617264-7761-4726-9520-61737369676e,rev?*%
%TF.SameCoordinates,Original*%
%TF.FileFunction,Soldermask,Top*%
%TF.FilePolarity,Negative*%
%FSLAX46Y46*%
G04 Gerber Fmt 4.6, Leading zero omitted, Abs format (unit mm)*
G04 Created by KiCad (PCBNEW 7.0.8) date 2025-04-12 00:46:53*
%MOMM*%
%LPD*%
G01*
G04 APERTURE LIST*
G04 Aperture macros list*
%AMRoundRect*
0 Rectangle with rounded corners*
0 $1 Rounding radius*
0 $2 $3 $4 $5 $6 $7 $8 $9 X,Y pos of 4 corners*
0 Add a 4 corners polygon primitive as box body*
4,1,4,$2,$3,$4,$5,$6,$7,$8,$9,$2,$3,0*
0 Add four circle primitives for the rounded corners*
1,1,$1+$1,$2,$3*
1,1,$1+$1,$4,$5*
1,1,$1+$1,$6,$7*
1,1,$1+$1,$8,$9*
0 Add four rect primitives between the rounded corners*
20,1,$1+$1,$2,$3,$4,$5,0*
20,1,$1+$1,$4,$5,$6,$7,0*
20,1,$1+$1,$6,$7,$8,$9,0*
20,1,$1+$1,$8,$9,$2,$3,0*%
G04 Aperture macros list end*
%ADD10O,1.700000X1.700000*%
%ADD11R,1.700000X1.700000*%
%ADD12R,1.550000X1.425000*%
%ADD13R,1.900000X1.000000*%
%ADD14R,1.300000X1.650000*%
%ADD15R,1.900000X1.800000*%
%ADD16R,1.380000X0.450000*%
%ADD17RoundRect,0.250000X0.625000X-0.400000X0.625000X0.400000X-0.625000X0.400000X-0.625000X-0.400000X0*%
%ADD18RoundRect,0.250000X-0.475000X0.337500X-0.475000X-0.337500X0.475000X-0.337500X0.475000X0.337500X0*%
%ADD19RoundRect,0.250000X0.475000X-0.337500X0.475000X0.337500X-0.475000X0.337500X-0.475000X-0.337500X0*%
%ADD20RoundRect,0.200000X-0.275000X0.200000X-0.275000X-0.200000X0.275000X-0.200000X0.275000X0.200000X0*%
%ADD21RoundRect,0.250000X-0.400000X-0.625000X0.400000X-0.625000X0.400000X0.625000X-0.400000X0.625000X0*%
%ADD22RoundRect,0.250000X-0.625000X0.400000X-0.625000X-0.400000X0.625000X-0.400000X0.625000X0.400000X0*%
%ADD23RoundRect,0.375000X0.375000X0.725000X-0.375000X0.725000X-0.375000X-0.725000X0.375000X-0.725000X0*%
%ADD24C,2.400000*%
%ADD25R,2.400000X2.400000*%
%ADD26RoundRect,0.112500X0.112500X-0.187500X0.112500X0.187500X-0.112500X0.187500X-0.112500X-0.187500X0*%
%ADD27RoundRect,0.112500X-0.112500X0.187500X-0.112500X-0.187500X0.112500X-0.187500X0.112500X0.187500X0*%
%ADD28RoundRect,0.140000X-0.140000X-0.170000X0.140000X-0.170000X0.140000X0.170000X-0.140000X0.170000X0*%
%ADD29RoundRect,0.250000X-1.412500X-0.550000X1.412500X-0.550000X1.412500X0.550000X-1.412500X0.550000X0*%
%ADD30C,2.000000*%
%ADD31R,1.300000X1.000000*%
%ADD32O,1.600000X1.600000*%
%ADD33R,1.600000X1.600000*%
%ADD34RoundRect,0.150000X-0.150000X0.512500X-0.150000X-0.512500X0.150000X-0.512500X0.150000X0.512500X0*%
%ADD35RoundRect,0.075000X-0.662500X-0.075000X0.662500X-0.075000X0.662500X0.075000X-0.662500X0.075000X0*%
%ADD36RoundRect,0.075000X-0.075000X-0.662500X0.075000X-0.662500X0.075000X0.662500X-0.075000X0.662500X0*%
%ADD37O,0.850000X0.850000*%
%ADD38R,0.850000X0.850000*%
%ADD39RoundRect,0.200000X-0.200000X-0.275000X0.200000X-0.275000X0.200000X0.275000X-0.200000X0.275000X0*%
%ADD40R,0.900000X1.850000*%
%ADD41R,0.650000X1.150000*%
%ADD42R,1.000000X1.350000*%
%ADD43R,0.650000X1.350000*%
%ADD44C,2.200000*%
%ADD45RoundRect,0.250000X0.362500X0.700000X-0.362500X0.700000X-0.362500X-0.700000X0.362500X-0.700000X0*%
%ADD46RoundRect,0.100000X-0.100000X0.217500X-0.100000X-0.217500X0.100000X-0.217500X0.100000X0.217500X0*%
%ADD47RoundRect,0.250000X0.337500X0.475000X-0.337500X0.475000X-0.337500X-0.475000X0.337500X-0.475000X0*%
%ADD48RoundRect,0.250000X-0.337500X-0.475000X0.337500X-0.475000X0.337500X0.475000X-0.337500X0.475000X0*%
%ADD49RoundRect,0.208750X-0.431250X0.208750X-0.431250X-0.208750X0.431250X-0.208750X0.431250X0.208750X0*%
%ADD50RoundRect,0.208750X0.431250X-0.208750X0.431250X0.208750X-0.431250X0.208750X-0.431250X-0.208750X0*%
G04 APERTURE END LIST*
D10*
%TO.C,uart*%
X156220000Y-101600000D03*
X153680000Y-101600000D03*
X151140000Y-101600000D03*
D11*
X148600000Y-101600000D03*
%TD*%
D10*
%TO.C,I2C*%
X154930000Y-66040000D03*
X157470000Y-66040000D03*
X160010000Y-66040000D03*
D11*
X162550000Y-66040000D03*
%TD*%
D12*
%TO.C,usb*%
X189125000Y-76252500D03*
D13*
X191700000Y-77190000D03*
D12*
X189125000Y-81227500D03*
D14*
X191700000Y-82115000D03*
X191700000Y-75365000D03*
D15*
X191700000Y-79890000D03*
D16*
X189040000Y-77440000D03*
X189040000Y-78090000D03*
X189040000Y-78740000D03*
X189040000Y-79390000D03*
X189040000Y-80040000D03*
%TD*%
D10*
%TO.C,Serial*%
X120650000Y-77460000D03*
X120650000Y-80000000D03*
X120650000Y-82540000D03*
D11*
X120650000Y-85080000D03*
%TD*%
D17*
%TO.C,R3*%
X41910000Y-22580000D03*
X41910000Y-25680000D03*
%TD*%
D18*
%TO.C,C16*%
X158750000Y-51837500D03*
X158750000Y-49762500D03*
%TD*%
D19*
%TO.C,C11*%
X138430000Y-77702500D03*
X138430000Y-79777500D03*
%TD*%
%TO.C,C10*%
X144780000Y-85322500D03*
X144780000Y-87397500D03*
%TD*%
D10*
%TO.C,J12*%
X34880000Y-25415000D03*
X34880000Y-22875000D03*
D11*
X34880000Y-20335000D03*
%TD*%
D20*
%TO.C,TH1*%
X46990000Y-23685000D03*
X46990000Y-22035000D03*
%TD*%
D21*
%TO.C,R8*%
X176820000Y-49525000D03*
X173720000Y-49525000D03*
%TD*%
%TO.C,R6*%
X176820000Y-54605000D03*
X173720000Y-54605000D03*
%TD*%
D22*
%TO.C,R5*%
X156210000Y-98070000D03*
X156210000Y-94970000D03*
%TD*%
%TO.C,R4*%
X149860000Y-95810000D03*
X149860000Y-92710000D03*
%TD*%
D23*
%TO.C,L1*%
X127210000Y-56960000D03*
X121710000Y-56960000D03*
%TD*%
D24*
%TO.C,J11*%
X177020000Y-30480000D03*
D25*
X173520000Y-30480000D03*
%TD*%
D24*
%TO.C,J10*%
X122320000Y-32450000D03*
D25*
X125820000Y-32450000D03*
%TD*%
D10*
%TO.C,J7*%
X140540000Y-101615000D03*
X140540000Y-99075000D03*
D11*
X140540000Y-96535000D03*
%TD*%
D10*
%TO.C,J6*%
X135890000Y-101615000D03*
X135890000Y-99075000D03*
D11*
X135890000Y-96535000D03*
%TD*%
D10*
%TO.C,J3*%
X131240000Y-101615000D03*
X131240000Y-99075000D03*
D11*
X131240000Y-96535000D03*
%TD*%
D10*
%TO.C,J1*%
X127000000Y-101615000D03*
X127000000Y-99075000D03*
D11*
X127000000Y-96535000D03*
%TD*%
D26*
%TO.C,D6*%
X157480000Y-68800000D03*
X157480000Y-70900000D03*
%TD*%
%TO.C,D4*%
X161290000Y-68800000D03*
X161290000Y-70900000D03*
%TD*%
%TO.C,D3*%
X175260000Y-80230000D03*
X175260000Y-82330000D03*
%TD*%
D27*
%TO.C,D2*%
X175260000Y-78520000D03*
X175260000Y-76420000D03*
%TD*%
D28*
%TO.C,C15*%
X130020000Y-44260000D03*
X129060000Y-44260000D03*
%TD*%
%TO.C,C14*%
X129060000Y-41720000D03*
X130020000Y-41720000D03*
%TD*%
D29*
%TO.C,C13*%
X129540000Y-49340000D03*
X134615000Y-49340000D03*
%TD*%
D30*
%TO.C,C12*%
X141790000Y-33020000D03*
X134290000Y-33020000D03*
%TD*%
D31*
%TO.C,Y1*%
X134450000Y-83450000D03*
X132250000Y-83450000D03*
X132250000Y-81650000D03*
X134450000Y-81650000D03*
%TD*%
D32*
%TO.C,U3*%
X171450000Y-45720000D03*
X168910000Y-45720000D03*
X166370000Y-45720000D03*
X163830000Y-45720000D03*
X161290000Y-45720000D03*
X158750000Y-45720000D03*
X156210000Y-45720000D03*
X156210000Y-38100000D03*
X158750000Y-38100000D03*
X161290000Y-38100000D03*
X163830000Y-38100000D03*
X166370000Y-38100000D03*
X168910000Y-38100000D03*
D33*
X171450000Y-38100000D03*
%TD*%
D34*
%TO.C,U2*%
X126680000Y-45397500D03*
X125730000Y-45397500D03*
X124780000Y-45397500D03*
X124780000Y-43122500D03*
X125730000Y-43122500D03*
X126680000Y-43122500D03*
%TD*%
D35*
%TO.C,U1*%
X148005000Y-78080000D03*
X148005000Y-78580000D03*
X148005000Y-79080000D03*
X148005000Y-79580000D03*
X148005000Y-80080000D03*
X148005000Y-80580000D03*
X148005000Y-81080000D03*
X148005000Y-81580000D03*
X148005000Y-82080000D03*
X148005000Y-82580000D03*
X148005000Y-83080000D03*
X148005000Y-83580000D03*
D36*
X149417500Y-84992500D03*
X149917500Y-84992500D03*
X150417500Y-84992500D03*
X150917500Y-84992500D03*
X151417500Y-84992500D03*
X151917500Y-84992500D03*
X152417500Y-84992500D03*
X152917500Y-84992500D03*
X153417500Y-84992500D03*
X153917500Y-84992500D03*
X154417500Y-84992500D03*
X154917500Y-84992500D03*
D35*
X156330000Y-83580000D03*
X156330000Y-83080000D03*
X156330000Y-82580000D03*
X156330000Y-82080000D03*
X156330000Y-81580000D03*
X156330000Y-81080000D03*
X156330000Y-80580000D03*
X156330000Y-80080000D03*
X156330000Y-79580000D03*
X156330000Y-79080000D03*
X156330000Y-78580000D03*
X156330000Y-78080000D03*
D36*
X154917500Y-76667500D03*
X154417500Y-76667500D03*
X153917500Y-76667500D03*
X153417500Y-76667500D03*
X152917500Y-76667500D03*
X152417500Y-76667500D03*
X151917500Y-76667500D03*
X151417500Y-76667500D03*
X150917500Y-76667500D03*
X150417500Y-76667500D03*
X149917500Y-76667500D03*
X149417500Y-76667500D03*
%TD*%
D37*
%TO.C,SW1*%
X149130000Y-69850000D03*
X150130000Y-69850000D03*
D38*
X151130000Y-69850000D03*
%TD*%
D39*
%TO.C,R7*%
X121475000Y-45530000D03*
X119825000Y-45530000D03*
%TD*%
D20*
%TO.C,R2*%
X168910000Y-78295000D03*
X168910000Y-76645000D03*
%TD*%
%TO.C,R1*%
X153670000Y-71945000D03*
X153670000Y-70295000D03*
%TD*%
D40*
%TO.C,Q2*%
X184635000Y-40125000D03*
X178235000Y-37775000D03*
X184635000Y-37775000D03*
X178235000Y-40125000D03*
D41*
X182985000Y-39900000D03*
D42*
X181610000Y-39800000D03*
X181610000Y-38100000D03*
D43*
X182985000Y-38100000D03*
%TD*%
D44*
%TO.C,H4*%
X190500000Y-101600000D03*
%TD*%
%TO.C,H3*%
X115570000Y-100330000D03*
%TD*%
%TO.C,H2*%
X190500000Y-30480000D03*
%TD*%
%TO.C,H1*%
X115570000Y-30480000D03*
%TD*%
D45*
%TO.C,FB1*%
X141847500Y-82550000D03*
X145172500Y-82550000D03*
%TD*%
D46*
%TO.C,D1*%
X120650000Y-48932500D03*
X120650000Y-49747500D03*
%TD*%
D19*
%TO.C,C9*%
X142240000Y-85322500D03*
X142240000Y-87397500D03*
%TD*%
D47*
%TO.C,C8*%
X142472500Y-77470000D03*
X144547500Y-77470000D03*
%TD*%
D48*
%TO.C,C7*%
X148822500Y-73660000D03*
X150897500Y-73660000D03*
%TD*%
%TO.C,C6*%
X161057500Y-77470000D03*
X158982500Y-77470000D03*
%TD*%
D49*
%TO.C,C5*%
X132233229Y-86661316D03*
X132233229Y-85406316D03*
%TD*%
D48*
%TO.C,C4*%
X157247500Y-90170000D03*
X155172500Y-90170000D03*
%TD*%
%TO.C,C3*%
X157247500Y-87630000D03*
X155172500Y-87630000D03*
%TD*%
D50*
%TO.C,C2*%
X134462072Y-78017558D03*
X134462072Y-79272558D03*
%TD*%
D47*
%TO.C,C1*%
X142472500Y-80010000D03*
X144547500Y-80010000D03*
%TD*%
M02*
