%TF.GenerationSoftware,KiCad,Pcbnew,7.0.8*%
%TF.CreationDate,2025-04-12T00:46:53+05:30*%
%TF.ProjectId,hardware assignement,68617264-7761-4726-9520-61737369676e,rev?*%
%TF.SameCoordinates,Original*%
%TF.FileFunction,Soldermask,Bot*%
%TF.FilePolarity,Negative*%
%FSLAX46Y46*%
G04 Gerber Fmt 4.6, Leading zero omitted, Abs format (unit mm)*
G04 Created by KiCad (PCBNEW 7.0.8) date 2025-04-12 00:46:53*
%MOMM*%
%LPD*%
G01*
G04 APERTURE LIST*
%ADD10O,1.700000X1.700000*%
%ADD11R,1.700000X1.700000*%
%ADD12C,2.400000*%
%ADD13R,2.400000X2.400000*%
%ADD14C,2.000000*%
%ADD15O,1.600000X1.600000*%
%ADD16R,1.600000X1.600000*%
%ADD17O,0.850000X0.850000*%
%ADD18R,0.850000X0.850000*%
%ADD19C,2.200000*%
G04 APERTURE END LIST*
D10*
%TO.C,uart*%
X156220000Y-101600000D03*
X153680000Y-101600000D03*
X151140000Y-101600000D03*
D11*
X148600000Y-101600000D03*
%TD*%
D10*
%TO.C,I2C*%
X154930000Y-66040000D03*
X157470000Y-66040000D03*
X160010000Y-66040000D03*
D11*
X162550000Y-66040000D03*
%TD*%
D10*
%TO.C,Serial*%
X120650000Y-77460000D03*
X120650000Y-80000000D03*
X120650000Y-82540000D03*
D11*
X120650000Y-85080000D03*
%TD*%
D10*
%TO.C,J12*%
X34880000Y-25415000D03*
X34880000Y-22875000D03*
D11*
X34880000Y-20335000D03*
%TD*%
D12*
%TO.C,J11*%
X177020000Y-30480000D03*
D13*
X173520000Y-30480000D03*
%TD*%
D12*
%TO.C,J10*%
X122320000Y-32450000D03*
D13*
X125820000Y-32450000D03*
%TD*%
D10*
%TO.C,J7*%
X140540000Y-101615000D03*
X140540000Y-99075000D03*
D11*
X140540000Y-96535000D03*
%TD*%
D10*
%TO.C,J6*%
X135890000Y-101615000D03*
X135890000Y-99075000D03*
D11*
X135890000Y-96535000D03*
%TD*%
D10*
%TO.C,J3*%
X131240000Y-101615000D03*
X131240000Y-99075000D03*
D11*
X131240000Y-96535000D03*
%TD*%
D10*
%TO.C,J1*%
X127000000Y-101615000D03*
X127000000Y-99075000D03*
D11*
X127000000Y-96535000D03*
%TD*%
D14*
%TO.C,C12*%
X141790000Y-33020000D03*
X134290000Y-33020000D03*
%TD*%
D15*
%TO.C,U3*%
X171450000Y-45720000D03*
X168910000Y-45720000D03*
X166370000Y-45720000D03*
X163830000Y-45720000D03*
X161290000Y-45720000D03*
X158750000Y-45720000D03*
X156210000Y-45720000D03*
X156210000Y-38100000D03*
X158750000Y-38100000D03*
X161290000Y-38100000D03*
X163830000Y-38100000D03*
X166370000Y-38100000D03*
X168910000Y-38100000D03*
D16*
X171450000Y-38100000D03*
%TD*%
D17*
%TO.C,SW1*%
X149130000Y-69850000D03*
X150130000Y-69850000D03*
D18*
X151130000Y-69850000D03*
%TD*%
D19*
%TO.C,H4*%
X190500000Y-101600000D03*
%TD*%
%TO.C,H3*%
X115570000Y-100330000D03*
%TD*%
%TO.C,H2*%
X190500000Y-30480000D03*
%TD*%
%TO.C,H1*%
X115570000Y-30480000D03*
%TD*%
M02*
