%TF.GenerationSoftware,KiCad,Pcbnew,7.0.8*%
%TF.CreationDate,2025-04-12T00:46:43+05:30*%
%TF.ProjectId,hardware assignement,68617264-7761-4726-9520-61737369676e,rev?*%
%TF.SameCoordinates,Original*%
%TF.FileFunction,Plated,1,2,PTH,Drill*%
%TF.FilePolarity,Positive*%
%FSLAX46Y46*%
G04 Gerber Fmt 4.6, Leading zero omitted, Abs format (unit mm)*
G04 Created by KiCad (PCBNEW 7.0.8) date 2025-04-12 00:46:43*
%MOMM*%
%LPD*%
G01*
G04 APERTURE LIST*
%TA.AperFunction,ViaDrill*%
%ADD10C,0.400000*%
%TD*%
%TA.AperFunction,ViaDrill*%
%ADD11C,0.500000*%
%TD*%
%TA.AperFunction,ComponentDrill*%
%ADD12C,0.500000*%
%TD*%
%TA.AperFunction,ComponentDrill*%
%ADD13C,0.800000*%
%TD*%
%TA.AperFunction,ComponentDrill*%
%ADD14C,1.000000*%
%TD*%
%TA.AperFunction,ComponentDrill*%
%ADD15C,1.200000*%
%TD*%
G04 APERTURE END LIST*
D10*
X121920000Y-43180000D03*
X124856994Y-47491799D03*
X129540000Y-81280000D03*
X131992750Y-44268376D03*
X132080000Y-41910000D03*
X134620000Y-76200000D03*
X134620000Y-86360000D03*
X136515122Y-83300227D03*
X140065445Y-85549273D03*
X140547490Y-77625835D03*
X140970000Y-80010000D03*
X147320000Y-63500000D03*
X147320000Y-66040000D03*
X149860000Y-81280000D03*
X151083494Y-71740597D03*
X151211070Y-67900557D03*
X152329505Y-81595897D03*
X153670000Y-82550000D03*
X154940000Y-68580000D03*
X156210000Y-60960000D03*
X156210000Y-72390000D03*
X158126658Y-78762225D03*
X158750000Y-87630000D03*
X158750000Y-90170000D03*
X161290000Y-49530000D03*
X162560000Y-77470000D03*
X163830000Y-71120000D03*
X166370000Y-72390000D03*
X168910000Y-69850000D03*
X171450000Y-78740000D03*
X171450000Y-81280000D03*
X175260000Y-83820000D03*
X176530000Y-46990000D03*
X177800000Y-76200000D03*
X179070000Y-49530000D03*
X186690000Y-77470000D03*
D11*
X119380000Y-31750000D03*
X119380000Y-33020000D03*
X119380000Y-34290000D03*
X142240000Y-29210000D03*
X143510000Y-29210000D03*
X144780000Y-29210000D03*
X158750000Y-53340000D03*
X161290000Y-48260000D03*
X163830000Y-48260000D03*
X168910000Y-48260000D03*
X180340000Y-43180000D03*
X181610000Y-35560000D03*
X181610000Y-43180000D03*
X182880000Y-35560000D03*
D12*
%TO.C,SW1*%
X149130000Y-69850000D03*
X150130000Y-69850000D03*
X151130000Y-69850000D03*
D13*
%TO.C,U3*%
X156210000Y-38100000D03*
X156210000Y-45720000D03*
X158750000Y-38100000D03*
X158750000Y-45720000D03*
X161290000Y-38100000D03*
X161290000Y-45720000D03*
X163830000Y-38100000D03*
X163830000Y-45720000D03*
X166370000Y-38100000D03*
X166370000Y-45720000D03*
X168910000Y-38100000D03*
X168910000Y-45720000D03*
X171450000Y-38100000D03*
X171450000Y-45720000D03*
D14*
%TO.C,J12*%
X34880000Y-20335000D03*
X34880000Y-22875000D03*
X34880000Y-25415000D03*
%TO.C,Serial*%
X120650000Y-77460000D03*
X120650000Y-80000000D03*
X120650000Y-82540000D03*
X120650000Y-85080000D03*
%TO.C,J1*%
X127000000Y-96535000D03*
X127000000Y-99075000D03*
X127000000Y-101615000D03*
%TO.C,J3*%
X131240000Y-96535000D03*
X131240000Y-99075000D03*
X131240000Y-101615000D03*
%TO.C,C12*%
X134290000Y-33020000D03*
%TO.C,J6*%
X135890000Y-96535000D03*
X135890000Y-99075000D03*
X135890000Y-101615000D03*
%TO.C,J7*%
X140540000Y-96535000D03*
X140540000Y-99075000D03*
X140540000Y-101615000D03*
%TO.C,C12*%
X141790000Y-33020000D03*
%TO.C,uart*%
X148600000Y-101600000D03*
X151140000Y-101600000D03*
X153680000Y-101600000D03*
%TO.C,I2C*%
X154930000Y-66040000D03*
%TO.C,uart*%
X156220000Y-101600000D03*
%TO.C,I2C*%
X157470000Y-66040000D03*
X160010000Y-66040000D03*
X162550000Y-66040000D03*
D15*
%TO.C,J10*%
X122320000Y-32450000D03*
X125820000Y-32450000D03*
%TO.C,J11*%
X173520000Y-30480000D03*
X177020000Y-30480000D03*
M02*
